<?xml version="1.0" encoding="utf-8"?>
<!-- Generator: Adobe Illustrator 27.5.0, SVG Export Plug-In . SVG Version: 6.00 Build 0)  -->
<svg version="1.1" xmlns="http://www.w3.org/2000/svg" xmlns:xlink="http://www.w3.org/1999/xlink" x="0px" y="0px"
	 viewBox="0 0 500 500" style="enable-background:new 0 0 500 500;" xml:space="preserve">
<g id="Background_Complete">
	<g>
		<g>
			<g>
				<g>
					<path style="fill:#E0E0E0;" d="M440.711,138.587c0-0.168,0.784-0.304,1.75-0.304c0.967,0,1.751,0.136,1.751,0.304
						c0,0.168-0.784,0.304-1.751,0.304C441.495,138.891,440.711,138.755,440.711,138.587z"/>
				</g>
			</g>
			<g>
				<g>
					<path style="fill:#E0E0E0;" d="M433.709,138.587c0-0.168,0.784-0.304,1.75-0.304c0.967,0,1.751,0.136,1.751,0.304
						c0,0.168-0.784,0.304-1.751,0.304C434.493,138.891,433.709,138.755,433.709,138.587z"/>
				</g>
			</g>
			<g>
				<g>
					<path style="fill:#E0E0E0;" d="M426.707,138.587c0-0.168,0.784-0.304,1.75-0.304c0.967,0,1.751,0.136,1.751,0.304
						c0,0.168-0.784,0.304-1.751,0.304C427.491,138.891,426.707,138.755,426.707,138.587z"/>
				</g>
			</g>
			<g>
				<g>
					<path style="fill:#E0E0E0;" d="M419.705,138.587c0-0.168,0.784-0.304,1.75-0.304c0.967,0,1.751,0.136,1.751,0.304
						c0,0.168-0.784,0.304-1.751,0.304C420.489,138.891,419.705,138.755,419.705,138.587z"/>
				</g>
			</g>
			<g>
				<g>
					<path style="fill:#E0E0E0;" d="M412.703,138.587c0-0.168,0.784-0.304,1.75-0.304c0.967,0,1.751,0.136,1.751,0.304
						c0,0.168-0.784,0.304-1.751,0.304C413.487,138.891,412.703,138.755,412.703,138.587z"/>
				</g>
			</g>
			<g>
				<g>
					<path style="fill:#E0E0E0;" d="M405.701,138.587c0-0.168,0.784-0.304,1.75-0.304c0.967,0,1.751,0.136,1.751,0.304
						c0,0.168-0.784,0.304-1.751,0.304C406.485,138.891,405.701,138.755,405.701,138.587z"/>
				</g>
			</g>
			<g>
				<g>
					<path style="fill:#E0E0E0;" d="M398.7,138.587c0-0.168,0.784-0.304,1.75-0.304c0.967,0,1.751,0.136,1.751,0.304
						c0,0.168-0.784,0.304-1.751,0.304C399.483,138.891,398.7,138.755,398.7,138.587z"/>
				</g>
			</g>
			<g>
				<g>
					<path style="fill:#E0E0E0;" d="M391.698,138.587c0-0.168,0.784-0.304,1.75-0.304c0.967,0,1.751,0.136,1.751,0.304
						c0,0.168-0.784,0.304-1.751,0.304C392.481,138.891,391.698,138.755,391.698,138.587z"/>
				</g>
			</g>
			<g>
				<g>
					<path style="fill:#E0E0E0;" d="M384.696,138.587c0-0.168,0.784-0.304,1.75-0.304c0.967,0,1.751,0.136,1.751,0.304
						c0,0.168-0.784,0.304-1.751,0.304C385.48,138.891,384.696,138.755,384.696,138.587z"/>
				</g>
			</g>
			<g>
				<g>
					<path style="fill:#E0E0E0;" d="M377.694,138.587c0-0.168,0.784-0.304,1.75-0.304c0.967,0,1.751,0.136,1.751,0.304
						c0,0.168-0.784,0.304-1.751,0.304C378.478,138.891,377.694,138.755,377.694,138.587z"/>
				</g>
			</g>
			<g>
				<g>
					<path style="fill:#E0E0E0;" d="M370.692,138.587c0-0.168,0.784-0.304,1.75-0.304c0.967,0,1.751,0.136,1.751,0.304
						c0,0.168-0.784,0.304-1.751,0.304C371.476,138.891,370.692,138.755,370.692,138.587z"/>
				</g>
			</g>
			<g>
				<g>
					<path style="fill:#E0E0E0;" d="M363.69,138.587c0-0.168,0.784-0.304,1.75-0.304c0.967,0,1.75,0.136,1.75,0.304
						c0,0.168-0.784,0.304-1.75,0.304C364.474,138.891,363.69,138.755,363.69,138.587z"/>
				</g>
			</g>
			<g>
				<g>
					<path style="fill:#E0E0E0;" d="M358.701,136.574c0.168,0,0.304,0.784,0.304,1.75c-0.001,0.087-0.002,0.17-0.003,0.262l-0.3-0.3
						c0.844,0.022,1.488,0.148,1.488,0.3c0,0.152-0.645,0.278-1.488,0.3l-0.296,0.008l-0.004-0.308
						c-0.001-0.093-0.002-0.175-0.003-0.262C358.397,137.358,358.533,136.574,358.701,136.574z"/>
				</g>
			</g>
			<g>
				<g>
					<path style="fill:#E0E0E0;" d="M358.701,129.572c0.168,0,0.304,0.784,0.304,1.75c0,0.967-0.136,1.751-0.304,1.751
						c-0.168,0-0.304-0.784-0.304-1.751C358.397,130.356,358.533,129.572,358.701,129.572z"/>
				</g>
			</g>
			<g>
				<g>
					<path style="fill:#E0E0E0;" d="M358.701,122.571c0.168,0,0.304,0.784,0.304,1.75c0,0.967-0.136,1.751-0.304,1.751
						c-0.168,0-0.304-0.784-0.304-1.751C358.397,123.354,358.533,122.571,358.701,122.571z"/>
				</g>
			</g>
			<g>
				<g>
					<path style="fill:#E0E0E0;" d="M358.701,115.569c0.168,0,0.304,0.784,0.304,1.75c0,0.967-0.136,1.751-0.304,1.751
						c-0.168,0-0.304-0.784-0.304-1.751C358.397,116.352,358.533,115.569,358.701,115.569z"/>
				</g>
			</g>
			<g>
				<g>
					<path style="fill:#E0E0E0;" d="M358.701,108.567c0.168,0,0.304,0.784,0.304,1.75c0,0.967-0.136,1.751-0.304,1.751
						c-0.168,0-0.304-0.784-0.304-1.751C358.397,109.351,358.533,108.567,358.701,108.567z"/>
				</g>
			</g>
			<g>
				<g>
					<path style="fill:#E0E0E0;" d="M358.701,101.565c0.168,0,0.304,0.784,0.304,1.75c0,0.967-0.136,1.751-0.304,1.751
						c-0.168,0-0.304-0.784-0.304-1.751C358.397,102.349,358.533,101.565,358.701,101.565z"/>
				</g>
			</g>
			<g>
				<g>
					<path style="fill:#E0E0E0;" d="M358.701,94.563c0.168,0,0.304,0.784,0.304,1.75c0,0.967-0.136,1.751-0.304,1.751
						c-0.168,0-0.304-0.784-0.304-1.751C358.397,95.347,358.533,94.563,358.701,94.563z"/>
				</g>
			</g>
			<g>
				<g>
					<path style="fill:#E0E0E0;" d="M358.701,87.561c0.168,0,0.304,0.784,0.304,1.75c0,0.967-0.136,1.751-0.304,1.751
						c-0.168,0-0.304-0.784-0.304-1.751C358.397,88.345,358.533,87.561,358.701,87.561z"/>
				</g>
			</g>
			<g>
				<g>
					<path style="fill:#E0E0E0;" d="M358.701,80.559c0.168,0,0.304,0.784,0.304,1.75c0,0.967-0.136,1.751-0.304,1.751
						c-0.168,0-0.304-0.784-0.304-1.751C358.397,81.343,358.533,80.559,358.701,80.559z"/>
				</g>
			</g>
			<g>
				<g>
					<path style="fill:#E0E0E0;" d="M358.701,73.557c0.168,0,0.304,0.784,0.304,1.75c0,0.967-0.136,1.75-0.304,1.75
						c-0.168,0-0.304-0.784-0.304-1.75C358.397,74.341,358.533,73.557,358.701,73.557z"/>
				</g>
			</g>
			<g>
				<g>
					<path style="fill:#E0E0E0;" d="M358.701,66.555c0.168,0,0.304,0.784,0.304,1.75c0,0.967-0.136,1.751-0.304,1.751
						c-0.168,0-0.304-0.784-0.304-1.751C358.397,67.339,358.533,66.555,358.701,66.555z"/>
				</g>
			</g>
			<g>
				<g>
					<path style="fill:#E0E0E0;" d="M358.701,59.554c0.168,0,0.304,0.784,0.304,1.75c0,0.967-0.136,1.751-0.304,1.751
						c-0.168,0-0.304-0.784-0.304-1.751C358.397,60.337,358.533,59.554,358.701,59.554z"/>
				</g>
			</g>
			<g>
				<g>
					<path style="fill:#E0E0E0;" d="M359.225,53.076c0,0.085-0.2,0.162-0.524,0.217l0.217-0.217
						c0.054,0.315,0.087,0.748,0.087,1.226c0,0.967-0.136,1.75-0.304,1.75c-0.168,0-0.304-0.784-0.304-1.75
						c0-0.478,0.033-0.911,0.087-1.226l0.042-0.246l0.175,0.03C359.025,52.915,359.225,52.991,359.225,53.076z"/>
				</g>
			</g>
			<g>
				<g>
					<path style="fill:#E0E0E0;" d="M366.227,53.076c0,0.168-0.784,0.304-1.75,0.304c-0.967,0-1.75-0.136-1.75-0.304
						c0-0.168,0.784-0.304,1.75-0.304C365.443,52.772,366.227,52.908,366.227,53.076z"/>
				</g>
			</g>
			<g>
				<g>
					<path style="fill:#E0E0E0;" d="M373.229,53.076c0,0.168-0.784,0.304-1.75,0.304c-0.967,0-1.751-0.136-1.751-0.304
						c0-0.168,0.784-0.304,1.751-0.304C372.445,52.772,373.229,52.908,373.229,53.076z"/>
				</g>
			</g>
			<g>
				<g>
					<path style="fill:#E0E0E0;" d="M380.231,53.076c0,0.168-0.784,0.304-1.75,0.304c-0.967,0-1.751-0.136-1.751-0.304
						c0-0.168,0.784-0.304,1.751-0.304C379.447,52.772,380.231,52.908,380.231,53.076z"/>
				</g>
			</g>
			<g>
				<g>
					<path style="fill:#E0E0E0;" d="M387.233,53.076c0,0.168-0.784,0.304-1.75,0.304c-0.967,0-1.75-0.136-1.75-0.304
						c0-0.168,0.784-0.304,1.75-0.304C386.449,52.772,387.233,52.908,387.233,53.076z"/>
				</g>
			</g>
			<g>
				<g>
					<path style="fill:#E0E0E0;" d="M394.235,53.076c0,0.168-0.784,0.304-1.75,0.304c-0.967,0-1.751-0.136-1.751-0.304
						c0-0.168,0.784-0.304,1.751-0.304C393.451,52.772,394.235,52.908,394.235,53.076z"/>
				</g>
			</g>
			<g>
				<g>
					<path style="fill:#E0E0E0;" d="M401.236,53.076c0,0.168-0.784,0.304-1.75,0.304c-0.967,0-1.751-0.136-1.751-0.304
						c0-0.168,0.784-0.304,1.751-0.304C400.453,52.772,401.236,52.908,401.236,53.076z"/>
				</g>
			</g>
			<g>
				<g>
					<path style="fill:#E0E0E0;" d="M408.238,53.076c0,0.168-0.784,0.304-1.75,0.304c-0.967,0-1.751-0.136-1.751-0.304
						c0-0.168,0.784-0.304,1.751-0.304C407.455,52.772,408.238,52.908,408.238,53.076z"/>
				</g>
			</g>
			<g>
				<g>
					<path style="fill:#E0E0E0;" d="M415.24,53.076c0,0.168-0.784,0.304-1.75,0.304c-0.967,0-1.751-0.136-1.751-0.304
						c0-0.168,0.784-0.304,1.751-0.304C414.456,52.772,415.24,52.908,415.24,53.076z"/>
				</g>
			</g>
			<g>
				<g>
					<path style="fill:#E0E0E0;" d="M422.242,53.076c0,0.168-0.784,0.304-1.75,0.304c-0.967,0-1.751-0.136-1.751-0.304
						c0-0.168,0.784-0.304,1.751-0.304C421.458,52.772,422.242,52.908,422.242,53.076z"/>
				</g>
			</g>
			<g>
				<g>
					<path style="fill:#E0E0E0;" d="M429.244,53.076c0,0.168-0.784,0.304-1.75,0.304c-0.967,0-1.75-0.136-1.75-0.304
						c0-0.168,0.784-0.304,1.75-0.304C428.46,52.772,429.244,52.908,429.244,53.076z"/>
				</g>
			</g>
			<g>
				<g>
					<path style="fill:#E0E0E0;" d="M436.246,53.076c0,0.168-0.784,0.304-1.75,0.304c-0.967,0-1.751-0.136-1.751-0.304
						c0-0.168,0.784-0.304,1.751-0.304C435.462,52.772,436.246,52.908,436.246,53.076z"/>
				</g>
			</g>
			<g>
				<g>
					<path style="fill:#E0E0E0;" d="M443.248,53.076c0,0.168-0.784,0.304-1.75,0.304c-0.967,0-1.751-0.136-1.751-0.304
						c0-0.168,0.784-0.304,1.751-0.304C442.464,52.772,443.248,52.908,443.248,53.076z"/>
				</g>
			</g>
			<g>
				<g>
					<path style="fill:#E0E0E0;" d="M444.212,59.114c-0.168,0-0.304-0.784-0.304-1.75c0-0.967,0.136-1.751,0.304-1.751
						c0.168,0,0.304,0.784,0.304,1.751C444.516,58.33,444.38,59.114,444.212,59.114z"/>
				</g>
			</g>
			<g>
				<g>
					<path style="fill:#E0E0E0;" d="M444.212,66.116c-0.168,0-0.304-0.784-0.304-1.75c0-0.967,0.136-1.751,0.304-1.751
						c0.168,0,0.304,0.784,0.304,1.751C444.516,65.332,444.38,66.116,444.212,66.116z"/>
				</g>
			</g>
			<g>
				<g>
					<path style="fill:#E0E0E0;" d="M444.212,73.118c-0.168,0-0.304-0.784-0.304-1.75c0-0.967,0.136-1.751,0.304-1.751
						c0.168,0,0.304,0.784,0.304,1.751C444.516,72.334,444.38,73.118,444.212,73.118z"/>
				</g>
			</g>
			<g>
				<g>
					<path style="fill:#E0E0E0;" d="M444.212,80.12c-0.168,0-0.304-0.784-0.304-1.75c0-0.967,0.136-1.751,0.304-1.751
						c0.168,0,0.304,0.784,0.304,1.751C444.516,79.336,444.38,80.12,444.212,80.12z"/>
				</g>
			</g>
			<g>
				<g>
					<path style="fill:#E0E0E0;" d="M444.212,87.121c-0.168,0-0.304-0.784-0.304-1.75c0-0.967,0.136-1.751,0.304-1.751
						c0.168,0,0.304,0.784,0.304,1.751C444.516,86.338,444.38,87.121,444.212,87.121z"/>
				</g>
			</g>
			<g>
				<g>
					<path style="fill:#E0E0E0;" d="M444.212,94.123c-0.168,0-0.304-0.784-0.304-1.75c0-0.967,0.136-1.751,0.304-1.751
						c0.168,0,0.304,0.784,0.304,1.751C444.516,93.34,444.38,94.123,444.212,94.123z"/>
				</g>
			</g>
			<g>
				<g>
					<path style="fill:#E0E0E0;" d="M444.212,101.125c-0.168,0-0.304-0.784-0.304-1.75c0-0.967,0.136-1.751,0.304-1.751
						c0.168,0,0.304,0.784,0.304,1.751C444.516,100.341,444.38,101.125,444.212,101.125z"/>
				</g>
			</g>
			<g>
				<g>
					<path style="fill:#E0E0E0;" d="M444.212,108.127c-0.168,0-0.304-0.784-0.304-1.75c0-0.967,0.136-1.751,0.304-1.751
						c0.168,0,0.304,0.784,0.304,1.751C444.516,107.343,444.38,108.127,444.212,108.127z"/>
				</g>
			</g>
			<g>
				<g>
					<path style="fill:#E0E0E0;" d="M444.212,115.129c-0.168,0-0.304-0.784-0.304-1.75c0-0.967,0.136-1.751,0.304-1.751
						c0.168,0,0.304,0.784,0.304,1.751C444.516,114.345,444.38,115.129,444.212,115.129z"/>
				</g>
			</g>
			<g>
				<g>
					<path style="fill:#E0E0E0;" d="M444.212,122.131c-0.168,0-0.304-0.784-0.304-1.75c0-0.967,0.136-1.751,0.304-1.751
						c0.168,0,0.304,0.784,0.304,1.751C444.516,121.347,444.38,122.131,444.212,122.131z"/>
				</g>
			</g>
			<g>
				<g>
					<path style="fill:#E0E0E0;" d="M444.212,129.133c-0.168,0-0.304-0.784-0.304-1.75c0-0.967,0.136-1.751,0.304-1.751
						c0.168,0,0.304,0.784,0.304,1.751C444.516,128.349,444.38,129.133,444.212,129.133z"/>
				</g>
			</g>
			<g>
				<g>
					<path style="fill:#E0E0E0;" d="M444.212,136.135c-0.168,0-0.304-0.784-0.304-1.75c0-0.967,0.136-1.751,0.304-1.751
						c0.168,0,0.304,0.784,0.304,1.751C444.516,135.351,444.38,136.135,444.212,136.135z"/>
				</g>
			</g>
		</g>
		<g>
			<rect x="441.045" y="134.554" style="fill:#E0E0E0;" width="6.333" height="6.333"/>
		</g>
		<g>
			<rect x="355.534" y="135.42" style="fill:#E0E0E0;" width="6.333" height="6.333"/>
		</g>
		<g>
			<rect x="441.045" y="49.293" style="fill:#E0E0E0;" width="6.333" height="6.333"/>
		</g>
		<g>
			<rect x="355.534" y="49.91" style="fill:#E0E0E0;" width="6.333" height="6.333"/>
		</g>
	</g>
	<g>
		<g>
			<g>
				<g>
					<g>
						<path style="fill:#E0E0E0;" d="M111.12,161.979c11.06-9.694,12.065-25.534,10.05-39.45c-0.336-2.323-0.351-4.809-1.686-6.733
							c-1.335-1.923-4.077-3.036-6.057-1.823c-1.642,1.006-2.174,3.104-2.959,4.876c-1.044,2.359-2.762,4.405-4.893,5.826
							c-1.4,0.934-3.185,1.608-4.74,0.961c-2.134-0.888-2.677-3.64-2.919-5.962c-0.449-4.326-0.9-8.651-1.349-12.976
							c-0.241-2.32-0.496-4.689-1.46-6.811c-0.964-2.121-2.783-3.99-5.057-4.365c-2.275-0.374-4.862,1.198-5.078,3.52
							c-0.09,0.966,0.211,1.925,0.253,2.895c0.042,0.97-0.289,2.085-1.174,2.454c-0.896,0.374-1.896-0.181-2.664-0.783
							c-2.652-2.077-4.609-4.915-6.458-7.747c-1.849-2.832-3.661-5.741-6.115-8.055c-2.453-2.314-5.681-4.007-9.023-3.829
							c-3.342,0.178-6.655,2.619-7.134,5.972c-0.481,3.362,1.792,6.469,4.16,8.887c3.512,3.587,7.538,6.658,11.911,9.085
							c0.788,0.438,1.643,0.911,2.017,1.74c0.674,1.491-0.621,3.188-2.092,3.864c-1.665,0.766-3.561,0.794-5.345,1.206
							c-1.785,0.412-3.656,1.426-4.151,3.21c-0.689,2.475,1.568,4.741,3.698,6.153c4.265,2.828,9.009,4.91,13.96,6.129
							c1.775,0.436,3.631,0.786,5.138,1.832c1.508,1.048,2.568,3.04,1.917,4.765c-0.651,1.727-2.727,2.485-4.551,2.35
							c-1.823-0.134-3.53-0.928-5.303-1.383c-3.32-0.851-7.411-0.178-9.149,2.802c-1.142,1.958-0.982,4.492-0.065,6.576
							c0.916,2.083,2.498,3.791,4.148,5.344c5.769,5.429,12.84,9.533,20.516,11.281C97.143,165.538,104.069,165.476,111.12,161.979"
							/>
					</g>
				</g>
			</g>
		</g>
		<g>
			<g>
				<g>
					<g>
						<g>
							<path style="fill:#FAFAFA;" d="M112.446,172.314c-1.116-5.478-3.051-11.879-5.897-18.695
								c-2.834-6.823-6.56-14.044-10.716-21.463c-1.046-1.851-2.08-3.679-3.098-5.482c-1.021-1.797-2.033-3.579-3.131-5.26
								c-2.182-3.374-4.536-6.451-6.862-9.302c-2.326-2.853-4.637-5.476-6.816-7.912c-2.185-2.433-4.264-4.662-6.246-6.613
								c-3.953-3.918-7.509-6.695-10.027-8.501c-1.258-0.908-2.257-1.58-2.94-2.026c-0.328-0.211-0.586-0.378-0.78-0.503
								c-0.177-0.111-0.27-0.165-0.274-0.158c-0.005,0.006,0.08,0.072,0.249,0.196c0.188,0.134,0.438,0.312,0.756,0.538
								c0.667,0.47,1.65,1.163,2.891,2.09c2.485,1.846,5.998,4.65,9.912,8.584c1.963,1.959,4.024,4.195,6.194,6.635
								c2.166,2.445,4.464,5.073,6.776,7.925c2.312,2.851,4.65,5.922,6.815,9.28c1.089,1.674,2.091,3.441,3.113,5.243
								c1.018,1.802,2.05,3.63,3.095,5.48c4.153,7.413,7.88,14.611,10.726,21.405c2.857,6.786,4.814,13.152,5.964,18.603"/>
						</g>
					</g>
				</g>
			</g>
		</g>
		<g>
			<g>
				<g>
					<g>
						<g>
							<path style="fill:#FAFAFA;" d="M89.479,121.411c0.029,0.001,0.069-0.36,0.117-1.014c0.051-0.654,0.094-1.603,0.129-2.776
								c0.073-2.345,0.064-5.587,0.04-9.162c-0.024-3.576,0.013-6.809,0.121-9.147c0.051-1.169,0.102-2.115,0.146-2.768
								c0.04-0.654,0.048-1.017,0.019-1.021c-0.03-0.003-0.094,0.354-0.184,1.004c-0.095,0.649-0.192,1.595-0.282,2.765
								c-0.187,2.341-0.272,5.587-0.248,9.167c0.033,3.527,0.062,6.718,0.085,9.156c0.003,1.102,0.005,2.03,0.007,2.775
								C89.434,121.046,89.449,121.41,89.479,121.411z"/>
						</g>
					</g>
				</g>
			</g>
		</g>
		<g>
			<g>
				<g>
					<g>
						<g>
							<path style="fill:#FAFAFA;" d="M59.048,119.127c0.003,0.03,0.432,0.032,1.205,0.011c0.773-0.016,1.89-0.046,3.272-0.038
								c2.763-0.007,6.581,0.118,10.787,0.44c4.207,0.33,8.001,0.79,10.735,1.202c1.37,0.196,2.473,0.385,3.237,0.511
								c0.763,0.129,1.188,0.186,1.195,0.157c0.006-0.03-0.408-0.143-1.164-0.323c-0.756-0.176-1.854-0.412-3.221-0.648
								c-2.73-0.491-6.532-1.001-10.751-1.332c-4.218-0.322-8.052-0.399-10.823-0.314c-1.386,0.032-2.505,0.108-3.278,0.177
								C59.472,119.043,59.047,119.097,59.048,119.127z"/>
						</g>
					</g>
				</g>
			</g>
		</g>
		<g>
			<g>
				<g>
					<g>
						<g>
							<path style="fill:#FAFAFA;" d="M106.122,153.111c0.014,0.005,0.07-0.128,0.164-0.386c0.106-0.307,0.235-0.682,0.391-1.135
								c0.335-0.987,0.783-2.428,1.312-4.215c1.062-3.574,2.373-8.558,3.746-14.076c1.374-5.521,2.637-10.51,3.622-14.101
								c0.484-1.746,0.884-3.183,1.18-4.251c0.126-0.463,0.23-0.845,0.315-1.159c0.067-0.266,0.096-0.408,0.082-0.413
								c-0.014-0.004-0.07,0.129-0.164,0.387c-0.106,0.307-0.235,0.681-0.391,1.134c-0.335,0.987-0.783,2.428-1.312,4.215
								c-1.062,3.574-2.373,8.558-3.746,14.079c-1.373,5.519-2.636,10.508-3.622,14.1c-0.485,1.746-0.883,3.183-1.18,4.25
								c-0.126,0.463-0.229,0.846-0.315,1.159C106.136,152.965,106.107,153.107,106.122,153.111z"/>
						</g>
					</g>
				</g>
			</g>
		</g>
		<g>
			<g>
				<g>
					<g>
						<g>
							<path style="fill:#FAFAFA;" d="M65.092,144.712c-0.002,0.015,0.14,0.055,0.411,0.119c0.321,0.07,0.715,0.155,1.193,0.259
								c1.101,0.227,2.587,0.534,4.395,0.907c3.71,0.767,8.823,1.884,14.471,3.127c5.649,1.244,10.777,2.315,14.505,3.005
								c1.864,0.346,3.374,0.61,4.422,0.771c0.484,0.072,0.883,0.13,1.207,0.179c0.277,0.036,0.424,0.048,0.426,0.033
								c0.002-0.015-0.14-0.055-0.411-0.119c-0.32-0.069-0.715-0.154-1.193-0.258c-1.101-0.227-2.586-0.534-4.394-0.907
								c-3.71-0.766-8.824-1.884-14.473-3.128c-5.648-1.243-10.775-2.315-14.502-3.005c-1.864-0.346-3.374-0.61-4.422-0.771
								c-0.484-0.072-0.882-0.131-1.207-0.179C65.241,144.708,65.095,144.697,65.092,144.712z"/>
						</g>
					</g>
				</g>
			</g>
		</g>
	</g>
	<g>
		<g>
			
				<ellipse transform="matrix(0.7071 -0.7071 0.7071 0.7071 -176.7919 281.6831)" style="fill:#E0E0E0;" cx="251.626" cy="354.248" rx="124.552" ry="124.552"/>
		</g>
		<g>
			<path style="fill:#FAFAFA;" d="M251.626,452.538c-54.197,0-98.29-44.093-98.29-98.29c0-54.197,44.092-98.29,98.29-98.29
				c54.197,0,98.29,44.093,98.29,98.29C349.916,408.446,305.823,452.538,251.626,452.538z M251.626,256.958
				c-53.646,0-97.29,43.645-97.29,97.29s43.644,97.29,97.29,97.29s97.29-43.645,97.29-97.29S305.271,256.958,251.626,256.958z"/>
		</g>
		<g>
			<path style="fill:#FAFAFA;" d="M251.626,468.215c-62.841,0-113.967-51.125-113.967-113.967s51.125-113.967,113.967-113.967
				c62.842,0,113.967,51.125,113.967,113.967S314.467,468.215,251.626,468.215z M251.626,241.282
				c-62.29,0-112.967,50.677-112.967,112.967c0,62.29,50.677,112.967,112.967,112.967c62.29,0,112.967-50.677,112.967-112.967
				C364.592,291.958,313.916,241.282,251.626,241.282z"/>
		</g>
		<g>
			<path style="fill:#FAFAFA;" d="M251.626,439.471c-46.992,0-85.222-38.23-85.222-85.223c0-46.992,38.23-85.223,85.222-85.223
				c46.992,0,85.223,38.23,85.223,85.223C336.848,401.241,298.618,439.471,251.626,439.471z M251.626,270.026
				c-46.44,0-84.222,37.782-84.222,84.223c0,46.44,37.782,84.223,84.222,84.223c46.441,0,84.223-37.782,84.223-84.223
				C335.848,307.808,298.066,270.026,251.626,270.026z"/>
		</g>
		<g>
			<path style="fill:#FAFAFA;" d="M251.626,426.118c-39.629,0-71.87-32.241-71.87-71.87s32.241-71.87,71.87-71.87
				c39.629,0,71.87,32.241,71.87,71.87S291.254,426.118,251.626,426.118z M251.626,283.378c-39.078,0-70.87,31.792-70.87,70.87
				c0,39.078,31.792,70.87,70.87,70.87c39.078,0,70.87-31.792,70.87-70.87C322.496,315.17,290.704,283.378,251.626,283.378z"/>
		</g>
		<g>
			<path style="fill:#FAFAFA;" d="M251.626,412.43c-32.081,0-58.182-26.101-58.182-58.182c0-32.082,26.101-58.183,58.182-58.183
				c32.081,0,58.182,26.101,58.182,58.183C309.807,386.329,283.707,412.43,251.626,412.43z M251.626,297.066
				c-31.53,0-57.182,25.652-57.182,57.183c0,31.53,25.652,57.182,57.182,57.182c31.53,0,57.182-25.651,57.182-57.182
				C308.807,322.718,283.156,297.066,251.626,297.066z"/>
		</g>
		<g>
			<path style="fill:#FAFAFA;" d="M251.626,400.109c-25.288,0-45.861-20.573-45.861-45.86c0-25.288,20.573-45.861,45.861-45.861
				c25.287,0,45.86,20.573,45.86,45.861C297.486,379.535,276.913,400.109,251.626,400.109z M251.626,309.387
				c-24.736,0-44.861,20.125-44.861,44.861c0,24.736,20.124,44.86,44.861,44.86c24.736,0,44.86-20.124,44.86-44.86
				C296.486,329.512,276.362,309.387,251.626,309.387z"/>
		</g>
	</g>
	<g>
		<rect x="242.284" y="54.218" style="fill:#EBEBEB;" width="48.325" height="48.325"/>
	</g>
</g>
<g id="Background_Simple" style="display:none;">
	<path style="display:inline;fill:#F5F5F5;" d="M62.469,204.906c-0.182,12.473,0.98,24.947,3.741,37.111
		c8.158,35.941,26.073,55.761,50.483,81.84c23.784,25.409,56.768,46.964,90.31,56.196c45.671,12.57,80.126,17.046,126.706,8.431
		c23.27-4.304,54.701-21.103,72.117-37.125c16.538-15.215,31.685-36.846,35.506-58.991c4.358-25.252,1.754-52.365-11.233-74.456
		c-12.987-22.09-37.344-38.183-62.96-37.497c-27.506,0.737-53.888,19.698-80.641,13.265c-12.085-2.906-22.78-11.16-28.653-22.114
		c-6.438-12.008-6.998-26.2-10.76-39.296c-9.017-31.392-37.952-55.654-70.234-60.616c-32.282-4.962-66.415,8.837-87.443,33.829
		c-21.027,24.992-28.685,50.679-26.835,92.309L62.469,204.906z"/>
</g>
<g id="Desk">
	<g>
		<g>
			
				<rect x="199.155" y="310.357" transform="matrix(0.9973 -0.0729 0.0729 0.9973 -26.3213 19.481)" style="fill:#263238;" width="108.753" height="119.436"/>
		</g>
		<g>
			<polygon style="fill:#455A64;" points="300.117,366.727 298.524,331.514 203.788,340.401 207.403,376.982 			"/>
		</g>
		<g>
			<path style="fill:#455A64;" d="M319.943,427.828l-121.416,8.158c-4.233,0.284-7.895-2.916-8.179-7.149l0,0
				c-0.284-4.233,2.916-7.895,7.149-8.179l121.416-8.158c4.233-0.285,7.895,2.916,8.179,7.149l0,0
				C327.377,423.882,324.176,427.544,319.943,427.828z"/>
		</g>
	</g>
	<g>
		<g>
			<rect x="50.763" y="161.055" style="fill:#EBEBEB;" width="404.063" height="183.036"/>
		</g>
		<g>
			<polygon style="fill:#E0E0E0;" points="50.763,344.091 61.205,349.533 444.823,349.169 454.826,344.091 			"/>
		</g>
	</g>
</g>
<g id="Character">
	<g>
		<g>
			<g>
				<g>
					<polygon style="fill:#455A64;" points="160.366,326.822 159.646,203.555 349.056,203.555 349.056,328.096 					"/>
				</g>
				<g>
					<g>
						<path style="fill:#FAFAFA;" d="M199.451,303.356c7.331-0.381,14.787,1.344,22.109,2.188l-3.929-1.042
							c-0.614-6.961,2.055-14.14,7.066-19.01c5.011-4.87,12.264-7.333,19.204-6.522c5.21,0.609,10.334,2.95,15.507,2.079
							c9.484-1.597,14.359-12.886,23.362-16.268c11.511-4.324,24.918,5.782,36.268,1.052c4.598-1.916,7.941-5.974,12.212-8.539
							c3.658-2.197,8.956-2.834,12.039-0.306v-26.489c-3.035,5.866-10.5,8.716-17.225,8.158c-7.138-0.591-13.632-4.165-19.831-7.728
							c-6.199-3.563-12.577-7.273-19.681-8.185c-10.103-1.297-19.901,3.216-29.701,5.977c-8.848,2.493-18.379,3.57-27.209,1.015
							c-0.294-0.085-0.583-0.197-0.875-0.296c-1.11,1.039-2.309,1.952-3.685,2.619c-7.515,3.643-17.545-1.241-24.409,3.518
							c-4.112,2.851-5.542,8.195-8.561,12.185c-5.57,7.362-18.989,9.487-26.702,4.328v60.902l0.027,7.881l4.042,0.004
							C176.048,310.86,187.444,303.981,199.451,303.356z M315.477,249.036c0.455-0.361,0.984-0.597,1.539-0.737
							c0.074-0.022,0.14-0.062,0.216-0.079l-0.081,0.038c1.794-0.392,3.86,0.308,4.857,1.879c1.334,2.101,0.444,5.274-1.789,6.374
							c-2.233,1.099-5.292-0.134-6.136-2.475c-0.678-1.879,0.214-4.1,1.839-5.207L315.477,249.036z"/>
					</g>
					<g>
						<path style="fill:#E8505B;" d="M343.29,256.988c-3.083-2.528-8.381-1.891-12.039,0.306c-4.271,2.565-7.614,6.623-12.212,8.539
							c-11.35,4.73-24.758-5.376-36.268-1.052c-9.003,3.382-13.878,14.671-23.362,16.268c-5.173,0.871-10.297-1.47-15.507-2.079
							c-6.94-0.811-14.193,1.652-19.204,6.522c-5.011,4.87-7.679,12.05-7.066,19.01l3.929,1.042
							c5.71,0.658,11.338,0.779,16.761-1.054c15.624-5.282,24.129-25.174,40.513-27.066c9.084-1.049,18.155,4.005,27.17,2.47
							c7.314-1.246,13.137-6.549,19.179-10.854c5.94-4.231,11.872-8.258,18.618-5.785v-5.789
							C343.638,257.295,343.469,257.135,343.29,256.988z"/>
					</g>
					<g>
						<g>
							<path style="fill:#E8505B;" d="M325.183,269.038c-6.043,4.305-11.866,9.609-19.179,10.854
								c-9.015,1.535-18.086-3.519-27.17-2.47c-16.384,1.892-24.889,21.784-40.513,27.066c-5.423,1.833-11.051,1.712-16.761,1.054
								c-7.322-0.843-14.779-2.569-22.109-2.188c-12.007,0.625-23.403,7.504-29.969,17.521l3.976,0.004
								c3.834-3.98,8.888-6.733,14.397-8.077c7.991-1.949,16.798-0.252,23.492,4.528c1.536,1.097,2.983,2.355,4.436,3.593
								l29.815,0.031c1.318-0.744,2.639-1.483,3.987-2.168c5.4-2.743,11.567-4.645,17.492-3.389c3.645,0.772,7.08,2.764,9.132,5.589
								l31.925,0.033c1.056-2.116,2.888-3.849,5.156-4.542c2.408-0.735,5.186-0.457,7.245-1.906
								c2.398-1.688,2.846-4.969,3.824-7.733c2.714-7.671,11.462-12.636,19.442-11.129v-32.459
								C337.055,260.78,331.123,264.807,325.183,269.038z M296.965,314.588c-5.081,2.501-12.043-0.304-13.964-5.632
								c-1.514-4.2,0.394-9.183,3.967-11.747l-0.793,0.369c0.885-0.702,1.891-1.207,2.953-1.539c0.338-0.126,0.685-0.233,1.04-0.317
								l-0.178,0.083c4.082-0.888,8.779,0.707,11.047,4.28C304.071,304.866,302.047,312.087,296.965,314.588z M332.381,278.375
								c-1.361,0.67-3.226-0.082-3.741-1.509c-0.413-1.145,0.13-2.499,1.121-3.174l-0.271,0.126c0.277-0.22,0.6-0.364,0.939-0.449
								c0.045-0.013,0.085-0.037,0.131-0.048l-0.05,0.023c1.094-0.239,2.353,0.188,2.961,1.146
								C334.285,275.77,333.742,277.704,332.381,278.375z"/>
						</g>
					</g>
					<g>
						<path style="fill:#E8505B;" d="M324.359,306.841c-0.978,2.764-1.427,6.045-3.824,7.733c-2.059,1.449-4.837,1.171-7.245,1.906
							c-2.268,0.692-4.1,2.426-5.156,4.542l35.668,0.037v-25.346C335.821,294.205,327.073,299.17,324.359,306.841z"/>
					</g>
					<g>
						<path style="fill:#E8505B;" d="M187.854,312.805c-5.509,1.344-10.563,4.097-14.397,8.077l42.325,0.044
							c-1.454-1.238-2.9-2.496-4.436-3.593C204.652,312.553,195.845,310.855,187.854,312.805z"/>
					</g>
					<g>
						<path style="fill:#E8505B;" d="M267.076,315.4c-5.925-1.256-12.092,0.646-17.492,3.389c-1.348,0.685-2.669,1.424-3.987,2.168
							l30.611,0.032C274.157,318.164,270.721,316.172,267.076,315.4z"/>
					</g>
					<g>
						<path style="fill:#E8505B;" d="M254.721,217.567c-5.329,0.395-11.025-0.522-15.763,1.948
							c-4.243,2.212-6.823,6.711-10.295,9.961c0.292,0.1,0.581,0.211,0.875,0.296c8.83,2.555,18.361,1.478,27.208-1.015
							c9.8-2.761,19.598-7.274,29.701-5.977c7.104,0.912,13.482,4.622,19.681,8.185c6.199,3.563,12.693,7.137,19.831,7.728
							c6.726,0.557,14.191-2.292,17.225-8.158v-2.291V208.7l0,0l-76.554-0.036C266.251,213.936,260.016,217.174,254.721,217.567z"/>
					</g>
					<g>
						<path style="fill:#E8505B;" d="M314.082,254.036c0.844,2.341,3.904,3.574,6.136,2.475c2.233-1.099,3.123-4.272,1.789-6.374
							c-0.997-1.571-3.063-2.271-4.857-1.879l0.081-0.038c-0.075,0.018-0.142,0.057-0.216,0.079
							c-0.555,0.14-1.084,0.376-1.539,0.737l0.445-0.207C314.296,249.936,313.405,252.157,314.082,254.036z"/>
					</g>
					<g>
						<path style="fill:#E8505B;" d="M289.989,295.805l0.178-0.083c-0.355,0.084-0.702,0.191-1.04,0.317
							c-1.062,0.333-2.068,0.837-2.953,1.539l0.793-0.369c-3.573,2.563-5.481,7.547-3.967,11.747
							c1.921,5.328,8.883,8.133,13.964,5.632c5.081-2.501,7.106-9.722,4.071-14.504
							C298.768,296.512,294.071,294.916,289.989,295.805z"/>
					</g>
					<g style="opacity:0.3;">
						<g>
							<path style="fill:#FFFFFF;" d="M289.989,295.805l0.178-0.083c-0.355,0.084-0.702,0.191-1.04,0.317
								c-1.062,0.333-2.068,0.837-2.953,1.539l0.793-0.369c-3.573,2.563-5.481,7.547-3.967,11.747
								c1.921,5.328,8.883,8.133,13.964,5.632c5.081-2.501,7.106-9.722,4.071-14.504
								C298.768,296.512,294.071,294.916,289.989,295.805z"/>
						</g>
					</g>
					<g>
						<path style="fill:#E8505B;" d="M333.472,274.489c-0.608-0.958-1.867-1.384-2.961-1.146l0.05-0.023
							c-0.046,0.011-0.086,0.035-0.131,0.048c-0.339,0.085-0.661,0.229-0.939,0.449l0.271-0.126
							c-0.991,0.675-1.534,2.028-1.121,3.174c0.515,1.427,2.38,2.179,3.741,1.509C333.742,277.704,334.285,275.77,333.472,274.489z"
							/>
					</g>
					<g>
						<path style="fill:#E8505B;" d="M192.114,247.762c3.019-3.99,4.449-9.334,8.561-12.185c6.863-4.759,16.893,0.125,24.409-3.518
							c1.376-0.667,2.575-1.58,3.685-2.619c3.472-3.25,6.052-7.749,10.295-9.961c4.739-2.47,10.434-1.553,15.763-1.948
							c5.296-0.393,11.423-3.595,11.802-8.867c0.002-0.033-0.002,0.033,0,0H238.21h-73.155l0.148,43.299
							c0.067,0.046,0.141,0.082,0.209,0.127C173.125,257.249,186.544,255.124,192.114,247.762z"/>
					</g>
					<g style="opacity:0.3;">
						<g>
							<path style="fill:#FFFFFF;" d="M343.29,256.988c-3.083-2.528-8.381-1.891-12.039,0.306
								c-4.271,2.565-7.614,6.623-12.212,8.539c-11.35,4.73-24.758-5.376-36.268-1.052c-9.003,3.382-13.878,14.671-23.362,16.268
								c-5.173,0.871-10.297-1.47-15.507-2.079c-6.94-0.811-14.193,1.652-19.204,6.522c-5.011,4.87-7.679,12.05-7.066,19.01
								l3.929,1.042c5.71,0.658,11.338,0.779,16.761-1.054c15.624-5.282,24.129-25.174,40.513-27.066
								c9.084-1.049,18.155,4.005,27.17,2.47c7.314-1.246,13.137-6.549,19.179-10.854c5.94-4.231,11.872-8.258,18.618-5.785v-5.789
								C343.638,257.295,343.469,257.135,343.29,256.988z"/>
						</g>
					</g>
					<g style="opacity:0.3;">
						<g>
							<path style="fill:#FFFFFF;" d="M238.21,208.664h-73.155l0.148,43.299c0.067,0.046,0.141,0.082,0.209,0.127
								c7.713,5.159,21.132,3.034,26.702-4.328c3.019-3.99,4.449-9.334,8.561-12.185c6.863-4.759,16.893,0.125,24.409-3.518
								c1.376-0.667,2.575-1.58,3.685-2.619c3.472-3.25,6.052-7.749,10.295-9.961c4.739-2.47,10.434-1.553,15.763-1.948
								c5.296-0.393,11.423-3.595,11.802-8.867"/>
						</g>
					</g>
				</g>
			</g>
			<g>
				<g>
					<g>
						<path style="fill:#263238;" d="M294.285,261.143c-0.328-1.277-2.689-10.477-7.025-27.373l0.085,0.05
							c-19.085,4.856-47.137,11.995-78.348,19.937l-0.005,0.001l0.075-0.126c2.421,9.536,4.767,18.777,6.954,27.391l-0.122-0.073
							C260.907,269.577,291.963,261.73,294.285,261.143c-2.319,0.592-33.357,8.517-78.337,20.002l-0.098,0.025l-0.025-0.098
							c-2.189-8.613-4.537-17.853-6.961-27.389l-0.026-0.101l0.101-0.026l0.005-0.001c31.217-7.915,59.276-15.03,78.365-19.87
							l0.068-0.017l0.017,0.068C291.648,250.653,293.964,259.865,294.285,261.143z"/>
					</g>
				</g>
				<g>
					
						<rect x="293.168" y="259.819" transform="matrix(0.9692 -0.2462 0.2462 0.9692 -55.1687 80.4649)" style="fill:#455A64;" width="2.093" height="2.093"/>
				</g>
				<g>
					
						<rect x="214.877" y="280.001" transform="matrix(0.9692 -0.2462 0.2462 0.9692 -62.5499 61.8142)" style="fill:#455A64;" width="2.093" height="2.093"/>
				</g>
				<g>
					
						<rect x="286.184" y="232.324" transform="matrix(0.9692 -0.2462 0.2462 0.9692 -48.6144 77.8991)" style="fill:#455A64;" width="2.093" height="2.093"/>
				</g>
				<g>
					
						<rect x="246.685" y="242.357" transform="matrix(0.9692 -0.2462 0.2462 0.9692 -52.3003 68.4833)" style="fill:#455A64;" width="2.093" height="2.093"/>
				</g>
				<g>
					
						<rect x="253.669" y="269.852" transform="matrix(0.9692 -0.2462 0.2462 0.9692 -58.8546 71.049)" style="fill:#455A64;" width="2.093" height="2.093"/>
				</g>
				<g>
					
						<rect x="211.281" y="265.845" transform="matrix(0.9692 -0.2462 0.2462 0.9692 -59.1728 60.4899)" style="fill:#455A64;" width="2.093" height="2.093"/>
				</g>
				<g>
					
						<rect x="289.643" y="245.941" transform="matrix(0.9692 -0.2462 0.2462 0.9692 -51.8525 79.1539)" style="fill:#455A64;" width="2.093" height="2.093"/>
				</g>
				<g>
					
						<rect x="207.92" y="252.611" transform="matrix(0.9692 -0.2462 0.2462 0.9692 -56.0201 59.2578)" style="fill:#455A64;" width="2.093" height="2.093"/>
				</g>
				<g>
					<path style="fill:#263238;" d="M228.211,256.041l-5.64,1.433l-0.679-2.674l14.442-3.668l0.679,2.674l-5.641,1.433l3.644,14.345
						l-3.16,0.803L228.211,256.041z"/>
					<path style="fill:#263238;" d="M252.168,259.352l-10.187,2.587c0.846,1.804,2.735,2.618,4.997,2.043
						c1.459-0.37,2.483-1.122,3.166-2.306l2.104,1.459c-0.814,1.682-2.452,2.876-4.689,3.443c-4.352,1.105-7.883-0.974-8.865-4.841
						c-0.982-3.865,1.159-7.359,5.025-8.341c3.793-0.964,7.237,0.982,8.268,5.042C252.048,258.682,252.118,259.053,252.168,259.352z
						 M241.443,259.927l7.367-1.871c-0.719-1.811-2.48-2.734-4.475-2.228C242.367,256.328,241.254,257.956,241.443,259.927z"/>
					<path style="fill:#263238;" d="M264.441,262.109l-4.474-3.652l-2.213,5.351l-3.354,0.852l3.384-7.874l-6.462-5.165l3.379-0.858
						l4.265,3.445l2.105-5.063l3.283-0.834l-3.251,7.581l6.768,5.347L264.441,262.109z"/>
					<path style="fill:#263238;" d="M277.735,257.981c-0.58,0.77-1.601,1.34-2.695,1.617c-2.844,0.723-4.857-0.371-5.585-3.24
						l-1.587-6.248l-2.14,0.543l-0.618-2.431l2.141-0.544l-0.754-2.966l3.039-0.772l0.754,2.966l3.477-0.883l0.617,2.431
						l-3.477,0.883l1.568,6.175c0.321,1.265,1.127,1.785,2.293,1.488c0.633-0.16,1.197-0.484,1.566-0.967L277.735,257.981z"/>
				</g>
				<g>
					<g>
						<path style="fill:#263238;" d="M292.709,254.939c0.014,0.056-17.518,4.557-39.153,10.053
							c-21.643,5.498-39.194,9.908-39.208,9.852c-0.014-0.056,17.514-4.556,39.157-10.054
							C275.14,259.294,292.695,254.883,292.709,254.939z"/>
					</g>
				</g>
			</g>
			<g>
				<g>
					<path style="fill:#263238;" d="M456.197,255.601c-0.031-0.045,0.663-0.276,1.57-1.226c0.908-0.923,1.864-2.753,1.938-5.244
						c0.028-1.234-0.15-2.64-0.785-4.006c-0.616-1.363-1.722-2.659-3.194-3.607c-2.935-1.957-7.37-2.338-11.459-0.583
						c-4.161,1.66-7.878,4.962-11.973,8.264c-2.066,1.637-4.289,3.278-6.86,4.492c-2.578,1.19-5.484,1.865-8.48,1.914
						c-5.966,0.05-12.355-2.406-16.721-7.31c-2.203-2.401-3.871-5.393-4.683-8.674c-0.784-3.252-0.669-6.961,1.148-10.003
						c0.891-1.502,2.096-2.818,3.561-3.749c1.442-0.958,3.176-1.488,4.908-1.416c1.73,0.114,3.376,0.898,4.578,2.093
						c1.201,1.205,1.97,2.745,2.423,4.321c0.879,3.161,0.576,6.618-1.007,9.39c-1.599,2.755-4.256,4.694-7.093,5.669
						c-2.849,0.987-5.864,1.14-8.662,0.656c-2.802-0.487-5.384-1.51-7.75-2.688c-4.738-2.385-8.701-5.326-12.565-7.57
						c-3.835-2.281-7.597-3.913-11.102-4.462c-3.497-0.558-6.613-0.036-8.911,0.895c-2.319,0.929-3.842,2.204-4.735,3.157
						c-0.218,0.242-0.412,0.456-0.582,0.644c-0.148,0.194-0.275,0.359-0.382,0.499c-0.206,0.268-0.323,0.398-0.323,0.398
						s0.087-0.15,0.279-0.429c0.102-0.144,0.222-0.316,0.363-0.517c0.165-0.194,0.354-0.416,0.567-0.666
						c0.876-0.984,2.396-2.302,4.736-3.274c2.319-0.973,5.475-1.535,9.033-0.995c3.56,0.53,7.376,2.16,11.242,4.432
						c3.896,2.236,7.872,5.158,12.571,7.502c2.346,1.159,4.893,2.156,7.636,2.624c2.727,0.464,5.667,0.305,8.425-0.658
						c2.747-0.951,5.296-2.827,6.822-5.466c1.502-2.629,1.796-5.971,0.947-9c-0.435-1.509-1.173-2.971-2.297-4.097
						c-1.125-1.114-2.642-1.833-4.243-1.94c-1.602-0.064-3.228,0.424-4.597,1.336c-1.39,0.882-2.544,2.141-3.394,3.576
						c-1.73,2.89-1.853,6.46-1.093,9.618c0.786,3.185,2.41,6.111,4.558,8.454c4.256,4.794,10.504,7.208,16.338,7.172
						c2.929-0.043,5.769-0.695,8.291-1.849c2.52-1.18,4.724-2.793,6.786-4.416c4.088-3.27,7.854-6.596,12.103-8.267
						c4.182-1.771,8.753-1.36,11.756,0.681c1.51,0.991,2.636,2.331,3.261,3.749c0.641,1.416,0.805,2.855,0.762,4.114
						c-0.107,2.542-1.115,4.393-2.065,5.31c-0.224,0.248-0.451,0.433-0.659,0.578c-0.196,0.161-0.374,0.274-0.529,0.346
						C456.355,255.532,456.197,255.601,456.197,255.601z"/>
				</g>
			</g>
			<g style="opacity:0.3;">
				<g>
					<path d="M324.359,306.841c-0.978,2.764-1.427,6.045-3.824,7.733c-2.059,1.449-4.837,1.171-7.245,1.906
						c-2.268,0.692-4.1,2.426-5.156,4.542l35.668,0.037v-25.346C335.821,294.205,327.073,299.17,324.359,306.841z"/>
				</g>
			</g>
			<g style="opacity:0.3;">
				<g>
					<path d="M333.472,274.489c-0.608-0.958-1.867-1.384-2.961-1.146l0.05-0.023c-0.046,0.011-0.086,0.035-0.131,0.048
						c-0.339,0.085-0.661,0.229-0.939,0.449l0.271-0.126c-0.991,0.675-1.534,2.028-1.121,3.174c0.515,1.427,2.38,2.179,3.741,1.509
						C333.742,277.704,334.285,275.77,333.472,274.489z"/>
				</g>
			</g>
			<g style="opacity:0.3;">
				<g>
					<path d="M187.854,312.805c-5.509,1.344-10.563,4.097-14.397,8.077l42.325,0.044c-1.454-1.238-2.9-2.496-4.436-3.593
						C204.652,312.553,195.845,310.855,187.854,312.805z"/>
				</g>
			</g>
			<g style="opacity:0.3;">
				<g>
					<path d="M267.076,315.4c-5.925-1.256-12.092,0.646-17.492,3.389c-1.348,0.685-2.669,1.424-3.987,2.168l30.611,0.032
						C274.157,318.164,270.721,316.172,267.076,315.4z"/>
				</g>
			</g>
		</g>
		<g>
			<g>
				<path style="fill:#E8505B;" d="M211.37,369.884c2.749-4.934,9.09-6.666,14.735-6.471c5.645,0.194,11.211,1.819,16.853,1.555
					c12.896-0.604,24.071-10.891,36.976-10.52c7.748,0.223,15.313,4.333,22.93,2.898c1.84-0.347,4.021-0.923,5.371,0.374
					c1.109,1.065,0.98,2.968,0.117,4.24c-0.863,1.272-2.268,2.054-3.64,2.747c-19.696,9.949-42.496,10.921-64.389,13.671
					c-5.603,0.704-11.302,1.535-16.863,0.556c-5.562-0.979-11.081-4.131-13.319-9.315"/>
			</g>
			<g style="opacity:0.5;">
				<g>
					<path d="M211.37,369.884c2.749-4.934,9.09-6.666,14.735-6.471c5.645,0.194,11.211,1.819,16.853,1.555
						c12.896-0.604,24.071-10.891,36.976-10.52c7.748,0.223,15.313,4.333,22.93,2.898c1.84-0.347,4.021-0.923,5.371,0.374
						c1.109,1.065,0.98,2.968,0.117,4.24c-0.863,1.272-2.268,2.054-3.64,2.747c-19.696,9.949-42.496,10.921-64.389,13.671
						c-5.603,0.704-11.302,1.535-16.863,0.556c-5.562-0.979-11.081-4.131-13.319-9.315"/>
				</g>
			</g>
		</g>
		<g>
			<g>
				<g>
					<path style="fill:#FFBE9D;" d="M367.145,337.816l-35.708-62.975l-2.911-5.628c-1.34-2.591-3.919-4.31-6.826-4.551l-5.765-0.477
						c0,0,0.425-6.68-2.694-6.151c-2.01,0.341-9.28,6.589-7.869,8.427c1.411,1.838,5.543-2.906,5.543-2.906l1.573,11.683
						c0,0-10.951-6.372-12.716-5.999c-1.765,0.373-1.841,2.317-0.443,3.141c8.373,4.937,11.76,11.635,12.572,13.488l-0.03,0.017
						l25.295,56.489l-8.646,6.905l10.265,26.849l21.63-14.801C369.022,356.9,372.106,346.127,367.145,337.816z"/>
				</g>
				<g>
					<g>
						
							<rect x="293.571" y="263.105" transform="matrix(0.8868 0.4621 -0.4621 0.8868 154.9154 -106.1408)" style="fill:#263238;" width="1.176" height="0.209"/>
					</g>
					<g>
						<path style="fill:#263238;" d="M294.613,263.192l4.488,0.124l25.539,14.051c0.922,0.507,1.266,1.659,0.773,2.589l0,0
							c-0.499,0.942-1.668,1.299-2.609,0.796l-25.35-13.546l-3.081-3.504C294.197,263.5,294.345,263.185,294.613,263.192z"/>
					</g>
					<g>
						<polygon style="fill:#455A64;" points="322.088,275.959 320.277,279.435 319.242,278.896 321.065,275.397 						"/>
					</g>
				</g>
			</g>
			<g>
				<path style="fill:#FFBE9D;" d="M219.447,277.242c-1.795-0.181-8.567,5.856-8.567,5.856l-3.348-12.072
					c0,0,4.489,0.404,5.694-1.575c1.205-1.979-10.966-1.788-11.244-0.448c-0.279,1.34,0.702,4.983,0.702,4.983l-4.612,0.889
					c-3.876,0.747-6.822,3.919-7.28,7.841l-0.753,6.445l0.129,0.053l-35.68,59.604c-5.669,9.47-3.725,21.642,4.611,28.876
					l35.743,25.393l13.337-29.077l-26.423-17.358l30.267-58.399c0,0,6.817-17.092,8.202-17.938
					C221.611,279.471,221.242,277.423,219.447,277.242z"/>
			</g>
			<g>
				<path style="fill:#E8505B;" d="M344.234,377.773l-0.42-4.151c-0.497-4.914-2.979-9.411-6.871-12.452l0,0
					c-4.563-3.564-7.147-9.095-6.953-14.882l0.058-1.723l-18.269,11.225c0,0-2.649,1.709-5.44,4.429l-0.04-0.088
					c0,0-39.038,0.643-95.666,8.922l-21.46-7.763l1.85,1.453c1.016,5.7-0.88,10.739-4.889,14.916v0
					c-3.42,3.563-5.237,8.368-5.03,13.303l0.175,4.168c0,0,12.806,8.354,22.134,11.492c0.115,0.039,0.23,0.067,0.344,0.102
					c10.87,4.855,28.233,10.385,49.775,9.506c34.868-1.422,63.526-19.986,67.287-22.521
					C329.653,389.133,344.234,377.773,344.234,377.773z"/>
			</g>
			<g>
				<g>
					<g>
						<path style="fill:#263238;" d="M210.632,369.052c0.012-0.013,0.144,0.09,0.383,0.298c0.242,0.205,0.581,0.526,1.013,0.947
							c0.85,0.851,2.045,2.135,3.271,3.918c1.224,1.776,2.456,4.082,3.254,6.841c0.793,2.737,1.273,5.937,0.77,9.237
							c-0.234,1.647-0.743,3.211-1.406,4.63c-0.688,1.417-1.489,2.674-2.304,3.855c-1.638,2.346-3.512,4.195-5.335,5.375
							c-1.803,1.218-3.477,1.813-4.62,2.176c-0.576,0.181-1.031,0.289-1.342,0.352c-0.31,0.067-0.474,0.093-0.479,0.076
							c-0.013-0.05,0.634-0.208,1.756-0.62c1.113-0.419,2.74-1.057,4.477-2.288c1.758-1.194,3.559-3.022,5.149-5.345
							c0.786-1.16,1.582-2.432,2.236-3.798c0.636-1.379,1.125-2.892,1.352-4.491c0.488-3.2,0.038-6.329-0.717-9.027
							c-0.757-2.71-1.93-4.989-3.099-6.768c-1.169-1.784-2.312-3.094-3.111-3.982C211.072,369.553,210.603,369.083,210.632,369.052z
							"/>
					</g>
				</g>
				<g style="opacity:0.2;">
					<g>
						<path d="M310.254,399.887c2.824-2.02,1.421-6.125-1.719-7.607c-3.139-1.483-6.844-0.586-10.145,0.492
							c-10.655,3.478-20.72,8.583-31.359,12.106c-10.64,3.522-22.273,5.412-33.028,2.256c-7.489-2.198-12.529-7.12-20.284-6.239
							c-3.525,0.4-4.635,4.887-9.855,5.973c0,0,9.714,4.568,23.446,7.364c8.656,1.763,18.978,2.612,29.255,1.829
							c10.224-0.778,20.757-3.065,29.564-5.937C300.22,405.531,310.254,399.887,310.254,399.887z"/>
					</g>
				</g>
				<g style="opacity:0.2;">
					<path d="M219.081,383.734c0,0,0.925-9.477-4.787-15.211l-3.815,0.573C210.479,369.096,215.498,372.711,219.081,383.734z"/>
				</g>
				<g>
					<g>
						<path style="fill:#FFBE9D;" d="M237.226,358.564c-0.196,0.52,1.933,22.433,1.933,22.433s11.111,15.507,28.582,0.411
							l2.108-23.893L237.226,358.564z"/>
					</g>
					<g style="opacity:0.2;">
						<path d="M239.159,380.996c0,0-5.15-8.55-6.581-14.912l4.235-0.517l1.035,1.188L239.159,380.996z"/>
					</g>
				</g>
				<g>
					<g>
						<path style="fill:#263238;" d="M330.936,387.199c0.009,0.016-0.137,0.119-0.425,0.301c-0.288,0.181-0.72,0.438-1.291,0.744
							c-1.142,0.597-2.837,1.457-5.119,1.974c-1.138,0.249-2.424,0.413-3.804,0.307c-1.371-0.119-2.82-0.4-4.283-0.901
							c-2.921-0.992-5.892-2.875-8.218-5.589c-1.163-1.354-2.104-2.842-2.795-4.378c-0.679-1.545-1.161-3.076-1.557-4.565
							c-0.759-2.977-0.969-5.798-0.609-8.11c0.32-2.324,1.209-4.057,1.924-5.128c0.354-0.547,0.685-0.928,0.919-1.177
							c0.228-0.254,0.354-0.38,0.367-0.368c0.013,0.012-0.086,0.162-0.286,0.435c-0.207,0.269-0.507,0.665-0.829,1.219
							c-0.651,1.089-1.465,2.797-1.731,5.07c-0.305,2.26-0.064,5.015,0.708,7.938c0.399,1.454,0.894,2.984,1.558,4.476
							c0.676,1.488,1.594,2.932,2.724,4.249c4.563,5.318,11.43,7.233,15.834,6.163c2.239-0.459,3.943-1.256,5.104-1.795
							C330.289,387.505,330.916,387.163,330.936,387.199z"/>
					</g>
				</g>
				<g>
					<g>
						<path style="fill:#263238;" d="M306.044,381.665c0.004,0.008-0.062,0.052-0.196,0.131c-0.163,0.091-0.36,0.203-0.601,0.338
							c-0.573,0.308-1.353,0.727-2.337,1.256c-1.014,0.547-2.26,1.208-3.753,1.882c-1.49,0.677-3.149,1.536-5.07,2.286
							c-1.904,0.79-3.984,1.672-6.28,2.453c-2.267,0.865-4.748,1.612-7.356,2.409c-5.242,1.496-11.098,2.837-17.328,3.746
							c-6.238,0.87-12.235,1.218-17.687,1.274c-1.363-0.012-2.692-0.025-3.984-0.036c-1.292-0.002-2.543-0.11-3.754-0.158
							c-2.424-0.086-4.671-0.317-6.722-0.509c-2.056-0.156-3.896-0.469-5.52-0.669c-1.625-0.198-3.013-0.446-4.146-0.655
							c-1.099-0.202-1.969-0.362-2.608-0.48c-0.271-0.055-0.493-0.101-0.676-0.138c-0.152-0.034-0.229-0.056-0.227-0.065
							c0.002-0.009,0.082-0.005,0.237,0.012c0.185,0.023,0.41,0.052,0.685,0.087c0.643,0.094,1.518,0.222,2.622,0.384
							c1.137,0.178,2.527,0.397,4.152,0.566c1.624,0.173,3.464,0.46,5.517,0.591c2.049,0.168,4.291,0.377,6.708,0.444
							c1.208,0.038,2.455,0.138,3.743,0.132c1.288,0.005,2.613,0.01,3.971,0.014c5.432-0.082,11.404-0.443,17.617-1.31
							c6.205-0.905,12.038-2.226,17.268-3.691c2.601-0.782,5.078-1.511,7.344-2.355c2.295-0.761,4.376-1.62,6.283-2.386
							c1.925-0.726,3.59-1.559,5.088-2.209c1.501-0.647,2.757-1.281,3.784-1.799c1.002-0.492,1.796-0.882,2.379-1.168
							c0.251-0.117,0.456-0.213,0.625-0.292C305.964,381.686,306.039,381.658,306.044,381.665z"/>
					</g>
				</g>
				<g style="opacity:0.2;">
					<g>
						<path d="M248.989,387.133c-0.824,2.126-0.519,4.655,0.788,6.524c1.306,1.869,3.576,3.025,5.856,2.982
							c1.038-0.019,2.119-0.264,3.087,0.113c1.171,0.456,1.819,1.671,2.591,2.663c2.305,2.964,6.529,4.272,10.106,3.132
							c3.577-1.141,6.263-4.652,6.428-8.403c0.031-0.714,0.005-1.505,0.473-2.045c1.003-1.159,2.803-0.034,4.162,0.674
							c3.451,1.799,8.09,0.003,9.993-3.391c1.903-3.394,1.304-7.831-0.885-11.049c-2.189-3.217-5.737-5.317-9.458-6.456
							c-2.388-0.731-4.997-1.167-6.865-2.823c-2.694-2.389-2.94-6.438-2.992-10.038"/>
					</g>
				</g>
			</g>
			<g>
				<g>
					<path style="fill:#263238;" d="M277.424,319.122c2.445,5.356,3.717,8.451,4.09,14.164c0.68,10.404-1.657,18.959-7.352,27.692
						c-0.042,0.064,0.042-0.063,0,0c-4.163,6.34-16.62,14.246-20.308,15.312c-3.689,1.065-18.363-8.068-21.33-18.343
						c-2.967-10.275-6.775-16.511-1.726-34.462c5.175-18.4,29.964-19.056,29.964-19.056s16.648,0.011,19.694,9.658
						C283.502,323.732,277.424,319.122,277.424,319.122z"/>
				</g>
				<g>
					<path style="fill:#263238;" d="M251.203,339.731c-4.088,0.403-7.876,3.088-9.61,6.813c-1.733,3.725-1.349,8.352,0.975,11.739
						c2.055,2.995,5.441,5,7.034,8.264c1.46,2.992,1.155,6.534,0.457,9.789c-0.698,3.255-1.759,6.484-1.711,9.813
						c0.048,3.329,1.503,6.909,4.515,8.327c3.012,1.418,7.415-0.574,7.426-3.904c-1.01,5.272,5.07,10.445,10.113,8.604
						c5.042-1.841,6.359-9.714,2.19-13.096c3.687,0.868,7.819,0.863,10.978-1.226c3.159-2.089,4.76-6.742,2.608-9.859
						c-2.547-3.69-8.352-3.354-11.566-6.48c-2.656-2.582-2.803-6.712-2.999-10.41c-0.282-5.321-1.075-10.782-3.792-15.366
						s-7.731-8.125-13.047-7.762"/>
				</g>
				<g>
					<g>
						<path style="fill:#FAFAFA;" d="M260.77,390.35c-0.008,0.016-0.19-0.069-0.531-0.247c-0.174-0.083-0.379-0.205-0.609-0.366
							c-0.238-0.151-0.505-0.337-0.783-0.576c-1.144-0.904-2.568-2.582-3.524-5.037c-0.474-1.223-0.844-2.627-1-4.165
							c-0.154-1.539-0.102-3.199,0.154-4.91c0.491-3.439,1.797-7.029,3.224-10.714c1.427-3.685,2.714-7.237,3.195-10.61
							c0.251-1.68,0.302-3.302,0.154-4.798c-0.151-1.498-0.51-2.868-0.967-4.063c-0.923-2.398-2.292-4.046-3.39-4.959
							c-1.099-0.928-1.846-1.256-1.816-1.309c0.008-0.016,0.191,0.065,0.536,0.236c0.176,0.079,0.382,0.197,0.616,0.354
							c0.241,0.146,0.511,0.328,0.793,0.562c1.16,0.882,2.613,2.538,3.604,4.98c0.491,1.216,0.879,2.615,1.054,4.152
							c0.172,1.538,0.135,3.199-0.108,4.913c-0.465,3.444-1.756,7.043-3.184,10.729c-1.427,3.684-2.729,7.23-3.236,10.598
							c-0.264,1.678-0.33,3.299-0.199,4.797c0.134,1.5,0.474,2.874,0.915,4.076c0.889,2.411,2.23,4.081,3.312,5.014
							C260.061,389.955,260.801,390.297,260.77,390.35z"/>
					</g>
				</g>
				<g>
					<g>
						<path style="fill:#455A64;" d="M275.805,386.352c0.003,0.016-0.209,0.069-0.62,0.139c-0.412,0.057-1.027,0.12-1.822,0.085
							c-1.562-0.072-3.956-0.55-6.212-2.363c-1.107-0.907-2.133-2.145-2.863-3.669c-0.723-1.519-1.161-3.332-1.048-5.236
							c0.098-1.904,0.686-3.822,1.398-5.72c0.715-1.904,1.539-3.823,2.085-5.88c1.116-4.109,1.233-8.267,0.479-11.871
							c-0.73-3.618-2.345-6.622-4.1-8.779c-1.75-2.182-3.612-3.533-4.947-4.334c-1.347-0.798-2.169-1.101-2.147-1.151
							c0.007-0.017,0.213,0.053,0.602,0.201c0.391,0.142,0.952,0.396,1.646,0.775c1.381,0.757,3.311,2.084,5.131,4.277
							c1.824,2.165,3.513,5.222,4.284,8.914c0.797,3.677,0.691,7.921-0.445,12.105c-0.557,2.099-1.396,4.043-2.11,5.924
							c-0.713,1.88-1.29,3.743-1.397,5.568c-0.23,3.674,1.567,6.847,3.668,8.594c2.144,1.785,4.461,2.313,5.991,2.444
							C274.934,386.494,275.799,386.296,275.805,386.352z"/>
					</g>
				</g>
				<g>
					<g>
						<path style="fill:#E8505B;" d="M260.687,336.076c-0.075,0.064-0.569-0.684-1.757-1.364c-1.147-0.678-3.129-1.203-5.072-0.493
							c-1.934,0.736-3.088,2.431-3.511,3.695c-0.453,1.292-0.336,2.181-0.435,2.181c-0.031,0.003-0.091-0.211-0.118-0.61
							c-0.029-0.399,0.009-0.986,0.201-1.683c0.356-1.368,1.543-3.255,3.68-4.071c2.149-0.782,4.281-0.134,5.446,0.667
							c0.601,0.401,1.015,0.82,1.254,1.14C260.618,335.857,260.712,336.058,260.687,336.076z"/>
					</g>
				</g>
				<g>
					<g>
						<path style="fill:#455A64;" d="M251.167,376.882c-0.012,0.013-0.136-0.082-0.362-0.276c-0.225-0.195-0.545-0.496-0.93-0.911
							c-0.769-0.826-1.807-2.122-2.725-3.94c-0.892-1.813-1.737-4.154-1.777-6.881c-0.012-1.353,0.216-2.808,0.873-4.158
							c0.658-1.355,1.712-2.486,2.72-3.628c1.01-1.138,1.953-2.306,2.35-3.642c0.413-1.33,0.232-2.723-0.134-3.968
							c-0.744-2.5-2.064-4.614-2.305-6.688c-0.313-2.026,0.104-3.764,0.819-4.683c0.339-0.47,0.705-0.743,0.958-0.901
							c0.265-0.145,0.405-0.211,0.413-0.196c0.048,0.06-0.596,0.285-1.205,1.212c-0.626,0.903-0.969,2.559-0.622,4.509
							c0.27,1.977,1.596,4.023,2.402,6.61c0.391,1.283,0.609,2.787,0.163,4.251c-0.431,1.467-1.435,2.695-2.449,3.84
							c-1.019,1.149-2.034,2.246-2.653,3.507c-0.621,1.258-0.851,2.634-0.852,3.934c0.011,2.618,0.796,4.926,1.629,6.72
							c0.857,1.801,1.832,3.11,2.546,3.967C250.747,376.418,251.197,376.85,251.167,376.882z"/>
					</g>
				</g>
				<g>
					<g>
						<path style="fill:#455A64;" d="M272.339,366.64c-0.038-0.005-0.004-0.513,0.064-1.43c0.069-0.916,0.161-2.242,0.201-3.88
							c0.072-3.256-0.086-7.866-1.794-12.555c-1.717-4.684-4.852-8.183-7.551-9.973c-2.708-1.84-4.783-2.192-4.735-2.313
							c0.004-0.017,0.131,0.001,0.369,0.052c0.235,0.061,0.595,0.113,1.03,0.27c0.887,0.264,2.137,0.791,3.54,1.685
							c2.813,1.75,6.08,5.303,7.836,10.1c1.744,4.793,1.84,9.475,1.673,12.749c-0.087,1.649-0.236,2.976-0.367,3.888
							C272.474,366.145,272.372,366.645,272.339,366.64z"/>
					</g>
				</g>
				<g>
					<g>
						<path style="fill:#455A64;" d="M263.253,338.438c-0.078-0.007-0.019-0.909,0.035-2.35c0.035-1.425,0.06-3.469-0.825-5.441
							c-0.856-2-2.646-3.102-3.994-3.459c-1.368-0.377-2.28-0.212-2.286-0.307c-0.02-0.044,0.897-0.354,2.376-0.05
							c0.727,0.163,1.581,0.486,2.383,1.084c0.807,0.587,1.53,1.469,1.996,2.516c0.945,2.117,0.846,4.246,0.719,5.679
							C263.506,337.565,263.318,338.445,263.253,338.438z"/>
					</g>
				</g>
				<g>
					<g>
						<path style="fill:#F5F5F5;" d="M264.869,319.854c-0.045,0.068-0.533-0.223-1.376-0.52c-0.837-0.299-2.061-0.567-3.406-0.449
							c-1.346,0.117-2.504,0.593-3.277,1.033c-0.779,0.439-1.209,0.81-1.265,0.75c-0.045-0.042,0.301-0.518,1.069-1.062
							c0.758-0.543,1.98-1.114,3.428-1.24c1.448-0.127,2.75,0.224,3.591,0.627C264.483,319.397,264.906,319.805,264.869,319.854z"/>
					</g>
				</g>
				<g>
					<g>
						<path style="fill:#455A64;" d="M276.928,319.814c-0.084,0.066-0.811-1.16-2.556-2.546c-1.706-1.379-4.602-2.823-7.994-2.788
							c-3.393,0.051-6.251,1.569-7.921,2.991c-1.709,1.43-2.404,2.673-2.49,2.61c-0.026-0.015,0.124-0.334,0.474-0.865
							c0.348-0.531,0.93-1.255,1.775-2.024c1.655-1.535,4.604-3.18,8.156-3.233c3.551-0.036,6.541,1.532,8.234,3.024
							c0.864,0.747,1.465,1.456,1.826,1.978C276.795,319.483,276.953,319.797,276.928,319.814z"/>
					</g>
				</g>
				<g>
					<g>
						<path style="fill:#F5F5F5;" d="M271.29,305.763c0.01,0.094-1.287,0.166-3.264,0.76c-1.966,0.58-4.612,1.798-6.913,3.935
							c-2.302,2.138-3.712,4.687-4.436,6.605c-0.738,1.927-0.906,3.216-0.999,3.199c-0.032-0.004-0.023-0.329,0.06-0.91
							c0.082-0.581,0.261-1.415,0.593-2.414c0.649-1.99,2.05-4.654,4.428-6.861c2.377-2.207,5.136-3.408,7.169-3.908
							c1.021-0.257,1.866-0.374,2.451-0.413C270.963,305.715,271.288,305.73,271.29,305.763z"/>
					</g>
				</g>
				<g>
					<g>
						<path style="fill:#455A64;" d="M255.621,305.654c0.067,0.059-0.55,0.714-1.227,1.961c-0.679,1.233-1.358,3.124-1.339,5.276
							c0.021,2.153,0.737,4.032,1.439,5.251c0.701,1.234,1.329,1.877,1.264,1.937c-0.035,0.041-0.768-0.517-1.578-1.746
							c-0.808-1.211-1.622-3.167-1.645-5.437c-0.021-2.27,0.756-4.241,1.541-5.467C254.862,306.185,255.586,305.613,255.621,305.654
							z"/>
					</g>
				</g>
				<g>
					<g>
						<path style="fill:#455A64;" d="M241.824,309.377c0.101-0.012,0.093,1.061,0.769,2.575c0.652,1.509,2.109,3.375,4.251,4.716
							c2.15,1.339,4.393,2.006,5.998,2.473c1.616,0.456,2.627,0.719,2.61,0.795c-0.014,0.064-1.05-0.07-2.702-0.438
							c-1.638-0.38-3.948-0.999-6.183-2.389c-2.236-1.397-3.723-3.401-4.314-5.016c-0.305-0.806-0.433-1.497-0.46-1.974
							C241.762,309.642,241.794,309.378,241.824,309.377z"/>
					</g>
				</g>
				<g>
					<g>
						<path style="fill:#455A64;" d="M249.438,353.096c-0.005,0.017-0.174-0.023-0.49-0.116c-0.32-0.084-0.778-0.248-1.362-0.48
							c-1.162-0.47-2.799-1.311-4.558-2.728c-1.732-1.429-3.584-3.476-4.839-6.209c-1.281-2.71-1.783-6.124-1.158-9.534
							c0.638-3.405,2.368-6.432,4.674-8.374c2.295-1.965,4.943-2.901,7.171-3.214c2.25-0.293,4.097-0.008,5.297,0.357
							c0.601,0.189,1.059,0.358,1.354,0.51c0.3,0.139,0.453,0.219,0.445,0.236c-0.024,0.057-0.648-0.253-1.851-0.55
							c-1.197-0.3-3.007-0.52-5.191-0.188c-2.163,0.35-4.716,1.299-6.911,3.212c-2.203,1.888-3.858,4.811-4.477,8.107
							c-0.603,3.303-0.135,6.603,1.083,9.241c1.194,2.663,2.97,4.687,4.638,6.124c1.694,1.425,3.279,2.303,4.403,2.825
							C248.793,352.839,249.454,353.046,249.438,353.096z"/>
					</g>
				</g>
				<g>
					<g>
						<path style="fill:#455A64;" d="M248.109,363.655c-0.008,0.016-0.223-0.083-0.625-0.286c-0.404-0.2-0.994-0.506-1.722-0.957
							c-1.463-0.884-3.516-2.304-5.737-4.425c-2.193-2.138-4.56-4.985-6.453-8.59c-0.955-1.794-1.778-3.771-2.437-5.884
							c-0.634-2.117-1.078-4.403-1.025-6.773c0.041-2.368,0.677-4.67,1.742-6.628c1.046-1.976,2.476-3.629,4.025-4.959
							c3.126-2.686,6.762-3.876,9.774-4.363c3.046-0.471,5.552-0.3,7.245-0.087c0.85,0.106,1.504,0.229,1.944,0.324
							c0.44,0.097,0.669,0.156,0.665,0.174c-0.003,0.018-0.239-0.007-0.683-0.07c-0.444-0.061-1.1-0.151-1.947-0.226
							c-1.688-0.15-4.172-0.261-7.163,0.249c-2.96,0.527-6.497,1.729-9.522,4.364c-3.008,2.557-5.505,6.602-5.559,11.236
							c-0.052,2.295,0.376,4.53,0.993,6.614c0.642,2.081,1.443,4.033,2.373,5.807c1.842,3.566,4.148,6.402,6.286,8.55
							c2.165,2.132,4.166,3.586,5.588,4.517C247.291,363.179,248.137,363.604,248.109,363.655z"/>
					</g>
				</g>
				<g>
					<g>
						<path style="fill:#455A64;" d="M272.272,352.928c-0.115-0.061,1.506-1.993,2.663-5.76c0.548-1.877,0.954-4.206,0.817-6.79
							c-0.115-2.577-0.803-5.394-2.204-8.027c-2.794-5.319-7.632-8.574-11.367-9.574c-1.887-0.516-3.502-0.455-4.566-0.232
							c-1.067,0.237-1.61,0.54-1.632,0.492c-0.008-0.016,0.123-0.096,0.382-0.234c0.26-0.135,0.663-0.301,1.203-0.454
							c1.078-0.292,2.751-0.413,4.705,0.072c1.948,0.479,4.145,1.523,6.238,3.142c2.092,1.615,4.07,3.838,5.498,6.546
							c1.439,2.701,2.132,5.608,2.223,8.249c0.113,2.65-0.341,5.023-0.944,6.92c-0.624,1.898-1.394,3.329-1.99,4.266
							c-0.292,0.473-0.55,0.819-0.732,1.049C272.387,352.823,272.286,352.939,272.272,352.928z"/>
					</g>
				</g>
			</g>
		</g>
	</g>
</g>
<g id="Windows">
	<g>
		<g>
			<rect x="267.244" y="82.327" style="fill:#FFFFFF;" width="153.981" height="114.815"/>
		</g>
		<g>
			<g>
				<path style="fill:#263238;" d="M421.225,197.142c0,0-0.015-0.723-0.023-2.104c-0.006-1.388-0.014-3.432-0.024-6.1
					c-0.013-5.346-0.031-13.184-0.055-23.195c-0.027-20.005-0.065-48.682-0.111-83.415l0.213,0.213
					c-43.398,0.013-96.585,0.03-153.968,0.047h-0.013l0.26-0.26c-0.009,41.256-0.017,80.337-0.025,114.815l-0.235-0.235
					c45.582,0.048,84.047,0.089,111.127,0.117c13.551,0.027,24.251,0.048,31.574,0.063c3.658,0.012,6.47,0.022,8.379,0.028
					c0.946,0.006,1.667,0.011,2.16,0.014C420.971,197.133,421.225,197.142,421.225,197.142s-0.236,0.009-0.713,0.014
					c-0.488,0.003-1.199,0.008-2.134,0.014c-1.898,0.006-4.694,0.016-8.332,0.028c-7.311,0.015-17.993,0.036-31.521,0.063
					c-27.118,0.029-65.636,0.069-111.281,0.117l-0.235,0l0-0.236c-0.008-34.478-0.016-73.559-0.025-114.815l0-0.26h0.261h0.013
					c57.384,0.018,110.57,0.034,153.968,0.047h0.214l0,0.213c-0.046,34.789-0.085,63.512-0.111,83.549
					c-0.024,9.99-0.042,17.812-0.055,23.147c-0.011,2.651-0.019,4.682-0.024,6.06C421.24,196.45,421.225,197.142,421.225,197.142z"
					/>
			</g>
		</g>
	</g>
	<g>
		<g>
			<g>
				<rect x="346.637" y="150.109" style="fill:#FAFAFA;" width="93.629" height="36.398"/>
			</g>
			<g>
				<g>
					<path style="fill:#263238;" d="M440.266,186.507c0,0-0.012-0.228-0.019-0.655c-0.005-0.443-0.011-1.07-0.019-1.888
						c-0.01-1.669-0.025-4.101-0.045-7.234c-0.023-6.278-0.056-15.355-0.098-26.622l0.18,0.18
						c-23.508,0.02-56.776,0.049-93.623,0.08h-0.006l0.26-0.26c-0.004,12.726-0.007,25.023-0.01,36.398l-0.25-0.25
						c27.067,0.047,50.439,0.088,67.063,0.117c8.314,0.03,14.939,0.053,19.505,0.07c2.27,0.014,4.024,0.024,5.231,0.032
						c0.586,0.007,1.036,0.012,1.358,0.016C440.101,186.497,440.266,186.507,440.266,186.507s-0.143,0.01-0.44,0.016
						c-0.315,0.004-0.755,0.009-1.329,0.016c-1.196,0.007-2.932,0.018-5.179,0.032c-4.552,0.016-11.158,0.04-19.448,0.069
						c-16.666,0.029-40.097,0.07-67.233,0.118l-0.25,0v-0.25c-0.003-11.375-0.007-23.672-0.01-36.398l0-0.26h0.261h0.006
						c36.846,0.032,70.114,0.06,93.623,0.08l0.181,0l-0.001,0.18c-0.041,11.314-0.075,20.427-0.098,26.731
						c-0.019,3.116-0.034,5.533-0.045,7.193c-0.008,0.804-0.015,1.42-0.019,1.855C440.278,186.304,440.266,186.507,440.266,186.507z
						"/>
				</g>
			</g>
		</g>
		<g>
			<rect x="346.637" y="150.109" style="fill:#263238;" width="93.629" height="7.8"/>
		</g>
		<g>
			<rect x="357.764" y="163.856" style="fill:#263238;" width="9.195" height="9.195"/>
		</g>
		<g>
			<rect x="363.332" y="169.425" style="fill:#263238;" width="9.195" height="9.195"/>
		</g>
		<g>
			<rect x="379.68" y="163.856" style="fill:#263238;" width="9.195" height="9.195"/>
		</g>
		<g>
			<g>
				<rect x="385.249" y="169.425" style="fill:#F5F5F5;" width="9.195" height="9.195"/>
			</g>
			<g>
				<g>
					<path style="fill:#263238;" d="M394.444,178.62c-0.017-0.017-0.034-0.263-0.052-0.708c-0.016-0.518-0.036-1.145-0.059-1.893
						c-0.042-1.617-0.093-3.886-0.115-6.594l0.225,0.225c-2.699,0.01-5.841,0.022-9.194,0.035c-0.058,0.056,0.492-0.492,0.259-0.259
						v0.002v0.005v0.01v0.02v0.039v0.079v0.157l0,0.314l0,0.624c-0.001,0.414-0.001,0.824-0.002,1.229
						c-0.002,0.81-0.005,1.604-0.007,2.377c-0.009,1.538-0.018,2.992-0.026,4.337l-0.225-0.225c2.708,0.022,4.977,0.073,6.594,0.115
						c0.749,0.023,1.375,0.043,1.893,0.059C394.181,178.586,394.427,178.603,394.444,178.62s-0.197,0.033-0.615,0.051
						c-0.504,0.016-1.114,0.036-1.843,0.059c-1.602,0.042-3.93,0.093-6.738,0.115l-0.224,0.002l-0.001-0.227
						c-0.008-1.345-0.017-2.8-0.026-4.337c-0.002-0.773-0.005-1.566-0.007-2.377c-0.001-0.406-0.001-0.816-0.002-1.229l0-0.624
						l0-0.314v-0.157v-0.079v-0.039v-0.02v-0.01v-0.005v-0.002c-0.233,0.232,0.317-0.319,0.261-0.262
						c3.353,0.013,6.495,0.025,9.194,0.035l0.227,0.001l-0.002,0.224c-0.022,2.807-0.073,5.136-0.115,6.737
						c-0.023,0.729-0.043,1.339-0.059,1.843C394.477,178.423,394.461,178.637,394.444,178.62z"/>
				</g>
			</g>
		</g>
		<g>
			<g>
				<g>
					<rect x="400.13" y="163.856" style="fill:#F5F5F5;" width="9.195" height="9.195"/>
				</g>
				<g>
					<g>
						<path style="fill:#263238;" d="M409.325,173.051c-0.017-0.017-0.034-0.263-0.052-0.708c-0.016-0.518-0.036-1.145-0.059-1.893
							c-0.042-1.617-0.093-3.886-0.115-6.594l0.225,0.225c-2.699,0.01-5.841,0.022-9.194,0.035
							c-0.058,0.056,0.492-0.492,0.259-0.259v0.003v0.005v0.01v0.02v0.039v0.079v0.157l0,0.314l0,0.623
							c-0.001,0.414-0.001,0.824-0.002,1.229c-0.002,0.81-0.005,1.604-0.007,2.377c-0.009,1.538-0.018,2.992-0.026,4.337
							l-0.225-0.225c2.708,0.022,4.977,0.073,6.594,0.115c0.749,0.023,1.375,0.043,1.893,0.059
							C409.061,173.018,409.308,173.034,409.325,173.051s-0.197,0.034-0.615,0.051c-0.504,0.016-1.114,0.036-1.842,0.059
							c-1.602,0.042-3.93,0.093-6.738,0.115l-0.224,0.002l-0.001-0.227c-0.008-1.345-0.017-2.8-0.026-4.337
							c-0.002-0.773-0.004-1.566-0.007-2.377c-0.001-0.406-0.001-0.816-0.002-1.229l0-0.623l0-0.314v-0.157l0-0.079v-0.039v-0.02
							v-0.01v-0.005v-0.003c-0.233,0.232,0.317-0.319,0.261-0.262c3.353,0.013,6.495,0.025,9.194,0.035l0.227,0.001l-0.002,0.224
							c-0.022,2.807-0.073,5.136-0.115,6.737c-0.023,0.729-0.043,1.339-0.059,1.843
							C409.358,172.854,409.342,173.068,409.325,173.051z"/>
					</g>
				</g>
			</g>
			<g>
				<g>
					<rect x="405.699" y="169.425" style="fill:#F5F5F5;" width="9.195" height="9.195"/>
				</g>
				<g>
					<g>
						<path style="fill:#263238;" d="M414.894,178.62c-0.017-0.017-0.034-0.263-0.052-0.708c-0.016-0.518-0.036-1.145-0.059-1.893
							c-0.042-1.617-0.093-3.886-0.115-6.594l0.225,0.225c-2.699,0.01-5.841,0.022-9.194,0.035
							c-0.058,0.056,0.492-0.492,0.259-0.259v0.002v0.005v0.01v0.02v0.039v0.079v0.157l0,0.314l-0.001,0.624
							c-0.001,0.414-0.001,0.824-0.002,1.229c-0.002,0.81-0.005,1.604-0.007,2.377c-0.009,1.538-0.018,2.992-0.026,4.337
							l-0.225-0.225c2.708,0.022,4.977,0.073,6.594,0.115c0.749,0.023,1.375,0.043,1.893,0.059
							C414.63,178.586,414.877,178.603,414.894,178.62s-0.197,0.033-0.615,0.051c-0.504,0.016-1.114,0.036-1.842,0.059
							c-1.602,0.042-3.93,0.093-6.738,0.115l-0.224,0.002l-0.001-0.227c-0.008-1.345-0.017-2.8-0.026-4.337
							c-0.002-0.773-0.004-1.566-0.007-2.377c-0.001-0.406-0.001-0.816-0.002-1.229l0-0.624l0-0.314v-0.157v-0.079v-0.039v-0.02
							v-0.01v-0.005v-0.002c-0.233,0.232,0.317-0.319,0.261-0.262c3.353,0.013,6.495,0.025,9.194,0.035l0.227,0.001l-0.002,0.224
							c-0.022,2.807-0.073,5.136-0.115,6.737c-0.023,0.729-0.043,1.339-0.059,1.843C414.927,178.423,414.911,178.637,414.894,178.62
							z"/>
					</g>
				</g>
			</g>
			<g>
				<rect x="405.699" y="169.425" style="fill:#263238;" width="3.626" height="3.626"/>
			</g>
		</g>
		<g>
			<g>
				<rect x="418.93" y="163.856" style="fill:#263238;" width="9.195" height="9.195"/>
			</g>
			<g>
				<rect x="424.499" y="169.425" style="fill:#263238;" width="9.195" height="9.195"/>
			</g>
			<g>
				<rect x="424.499" y="169.425" style="fill:#FAFAFA;" width="3.626" height="3.626"/>
			</g>
		</g>
	</g>
	<g>
		<g>
			<rect x="368.804" y="261.132" style="fill:#FAFAFA;" width="89.981" height="34.98"/>
			<path style="fill:#222221;" d="M458.91,296.238h-90.23v-35.23h90.23V296.238z M368.929,295.988h89.73v-34.73h-89.73V295.988z"/>
		</g>
		<g>
			<rect x="368.804" y="261.132" style="fill:#263238;" width="89.981" height="7.496"/>
		</g>
		<g>
			<g>
				<g>
					<rect x="373.875" y="277.984" style="fill:#F5F5F5;" width="8.89" height="8.89"/>
				</g>
				<g>
					<g>
						<path style="fill:#263238;" d="M382.766,286.874c-0.017-0.017-0.034-0.256-0.052-0.686c-0.016-0.504-0.036-1.11-0.059-1.832
							c-0.042-1.563-0.093-3.756-0.115-6.373l0.225,0.225c-2.611,0.01-5.648,0.022-8.889,0.035
							c-0.058,0.056,0.492-0.492,0.259-0.259v0.002v0.005v0.01v0.019v0.038v0.076v0.152l0,0.303l0,0.603
							c-0.001,0.4-0.001,0.796-0.002,1.189c-0.002,0.784-0.005,1.551-0.007,2.298c-0.009,1.486-0.018,2.892-0.026,4.194
							l-0.225-0.225c2.617,0.022,4.81,0.073,6.373,0.115c0.721,0.023,1.327,0.043,1.831,0.059
							C382.51,286.841,382.748,286.857,382.766,286.874c0.034,0.034-0.823,0.067-2.373,0.11c-1.548,0.042-3.801,0.093-6.517,0.115
							l-0.224,0.002l-0.001-0.227c-0.008-1.301-0.017-2.707-0.026-4.194c-0.002-0.747-0.005-1.514-0.007-2.298
							c-0.001-0.392-0.001-0.789-0.002-1.189l0-0.603l0-0.303l0-0.152v-0.076v-0.038v-0.019v-0.01v-0.005v-0.002
							c-0.233,0.232,0.317-0.319,0.261-0.262c3.241,0.013,6.278,0.025,8.889,0.035l0.227,0.001l-0.002,0.224
							c-0.022,2.716-0.073,4.968-0.115,6.516C382.833,286.051,382.799,286.908,382.766,286.874z"/>
					</g>
				</g>
			</g>
			<g>
				<g>
					<line style="fill:#FAFAFA;" x1="382.766" y1="277.984" x2="373.875" y2="286.874"/>
				</g>
				<g>
					<g>
						<path style="fill:#E8505B;" d="M373.875,286.874c-0.102-0.102,1.806-2.174,4.261-4.629c2.456-2.456,4.528-4.363,4.63-4.261
							c0.102,0.102-1.806,2.174-4.261,4.629C376.05,285.068,373.977,286.976,373.875,286.874z"/>
					</g>
				</g>
			</g>
		</g>
		<g>
			<g>
				<rect x="385.443" y="277.984" style="fill:#263238;" width="8.89" height="8.89"/>
			</g>
		</g>
		<g>
			<g>
				<rect x="397.011" y="277.984" style="fill:#455A64;" width="8.89" height="8.89"/>
			</g>
		</g>
		<g>
			<g>
				<rect x="408.579" y="277.984" style="fill:#E8505B;" width="8.89" height="8.89"/>
			</g>
		</g>
		<g>
			<g>
				<rect x="420.147" y="277.984" style="fill:#E8505B;" width="8.89" height="8.89"/>
			</g>
		</g>
		<g style="opacity:0.5;">
			<g>
				<rect x="420.147" y="277.984" style="fill:#FFFFFF;" width="8.89" height="8.89"/>
			</g>
		</g>
		<g>
			<g>
				<rect x="431.715" y="277.984" style="fill:#E8505B;" width="8.89" height="8.89"/>
			</g>
		</g>
		<g style="opacity:0.3;">
			<g>
				<rect x="431.715" y="277.984" width="8.89" height="8.89"/>
			</g>
		</g>
		<g>
			<g>
				<rect x="443.283" y="277.984" style="fill:#E8505B;" width="8.89" height="8.89"/>
			</g>
		</g>
		<g style="opacity:0.7;">
			<g>
				<rect x="443.283" y="277.984" width="8.89" height="8.89"/>
			</g>
		</g>
	</g>
	<g>
		<g>
			<g>
				<g>
					<g>
						<rect x="104.046" y="82.327" style="fill:#FFFFFF;" width="125.82" height="87.62"/>
					</g>
					<g>
						<g>
							<path style="fill:#263238;" d="M229.865,169.947c0,0-0.015-0.551-0.023-1.601c-0.005-1.059-0.013-2.611-0.024-4.637
								c-0.012-4.068-0.03-10.028-0.054-17.653c-0.026-15.239-0.064-37.117-0.11-63.729l0.21,0.21
								c-34.948,0.014-78.588,0.032-125.809,0.05h-0.01l0.26-0.26c-0.008,31.316-0.016,61.055-0.023,87.62l-0.237-0.237
								c37.109,0.048,68.532,0.089,90.692,0.117c11.088,0.027,19.856,0.049,25.865,0.064c2.998,0.012,5.305,0.022,6.876,0.029
								c0.775,0.006,1.366,0.011,1.776,0.014C229.655,169.938,229.865,169.947,229.865,169.947s-0.192,0.009-0.583,0.014
								c-0.404,0.003-0.986,0.008-1.749,0.014c-1.56,0.007-3.851,0.016-6.829,0.029c-5.996,0.015-14.746,0.036-25.811,0.064
								c-22.198,0.029-53.675,0.069-90.847,0.117l-0.237,0l0-0.238c-0.007-26.565-0.015-56.304-0.023-87.62l0-0.26h0.261h0.01
								c47.221,0.019,90.861,0.036,125.809,0.05l0.211,0l0,0.21c-0.046,26.667-0.084,48.59-0.11,63.86
								c-0.023,7.604-0.041,13.549-0.054,17.606c-0.01,2.009-0.018,3.548-0.024,4.598
								C229.88,169.426,229.865,169.947,229.865,169.947z"/>
						</g>
					</g>
				</g>
			</g>
			<g>
				<g>
					<rect x="104.046" y="82.327" style="fill:#263238;" width="125.82" height="10.949"/>
				</g>
			</g>
			<g>
				<g>
					<path style="fill:#FFFFFF;" d="M110.877,88.114c0,0.758-0.588,1.372-1.313,1.372c-0.725,0-1.313-0.614-1.313-1.372
						c0-0.758,0.588-1.372,1.313-1.372C110.289,86.742,110.877,87.356,110.877,88.114z"/>
				</g>
			</g>
			<g>
				<g>
					<path style="fill:#FFFFFF;" d="M116.201,88.114c0,0.758-0.588,1.372-1.313,1.372c-0.725,0-1.313-0.614-1.313-1.372
						c0-0.758,0.588-1.372,1.313-1.372C115.613,86.742,116.201,87.356,116.201,88.114z"/>
				</g>
			</g>
			<g>
				<g>
					<path style="fill:#FFFFFF;" d="M121.525,88.114c0,0.758-0.588,1.372-1.313,1.372c-0.725,0-1.313-0.614-1.313-1.372
						c0-0.758,0.588-1.372,1.313-1.372C120.937,86.742,121.525,87.356,121.525,88.114z"/>
				</g>
			</g>
		</g>
		<g>
			<rect x="116.008" y="104.007" style="fill:#E8505B;" width="17.932" height="43.019"/>
		</g>
		<g>
			<rect x="143.658" y="104.007" style="fill:#EBEBEB;" width="17.932" height="43.019"/>
		</g>
		<g>
			<rect x="171.308" y="104.007" style="fill:#FAFAFA;" width="17.933" height="43.019"/>
		</g>
		<g>
			<rect x="198.959" y="104.345" style="fill:#E0E0E0;" width="17.932" height="43.019"/>
		</g>
		<g>
			<rect x="113.931" y="151.775" style="fill:#E8505B;" width="108.684" height="9.83"/>
		</g>
		<g>
			<polygon style="fill:#263238;" points="214.348,159.589 216.686,171.425 218.609,168.123 222.738,174.022 224.803,172.695 
				220.674,166.795 224.465,166.239 			"/>
		</g>
	</g>
	<g>
		<g>
			<g>
				<rect x="126.265" y="180.361" style="fill:#FAFAFA;" width="55.381" height="94.99"/>
			</g>
			<g>
				<g>
					<path style="fill:#222221;" d="M181.646,275.35c0,0-0.01-0.163-0.014-0.469c-0.003-0.32-0.008-0.769-0.014-1.356
						c-0.007-1.205-0.017-2.961-0.03-5.237c-0.015-4.576-0.038-11.232-0.066-19.627c-0.029-16.78-0.07-40.495-0.118-68.3
						l0.242,0.242c-17.05,0.006-35.774,0.012-55.373,0.018h-0.007l0.26-0.26c-0.023,36.235-0.043,69.469-0.059,94.989l-0.201-0.201
						c16.96,0.045,30.778,0.081,40.375,0.107c4.797,0.022,8.535,0.039,11.093,0.051c1.265,0.01,2.235,0.017,2.906,0.022
						C181.298,275.336,181.646,275.35,181.646,275.35s-0.32,0.014-0.964,0.021c-0.663,0.005-1.62,0.013-2.869,0.022
						c-2.547,0.012-6.27,0.029-11.048,0.051c-9.626,0.025-23.487,0.062-40.499,0.107l-0.201,0l0-0.202
						c-0.016-25.52-0.037-58.754-0.059-94.989l0-0.26h0.261h0.007c19.599,0.006,38.323,0.013,55.373,0.018h0.243l0,0.242
						c-0.048,27.871-0.089,51.641-0.118,68.46c-0.028,8.371-0.05,15.008-0.066,19.572c-0.013,2.255-0.023,3.995-0.03,5.188
						c-0.006,0.575-0.011,1.015-0.014,1.329C181.656,275.207,181.646,275.35,181.646,275.35z"/>
				</g>
			</g>
		</g>
		<g>
			<rect x="126.265" y="180.361" style="fill:#263238;" width="55.381" height="8.004"/>
		</g>
		<g>
			<g>
				<polygon style="fill:#263238;" points="139.574,198.354 140.244,207.223 142.723,203.989 146.864,203.817 				"/>
			</g>
			<g>
				<g>
					<path style="fill:#263238;" d="M163.508,198.354c-0.008-0.015,0.174,0.113,0.522,0.362c0.432,0.311,0.933,0.67,1.514,1.088
						c1.304,0.937,3.185,2.287,5.342,3.894l0.335,0.249l-0.418,0.018c-1.25,0.054-2.596,0.113-3.997,0.174l-0.143,0.006l0.117-0.061
						c-0.872,1.133-1.709,2.22-2.485,3.229l-0.237,0.308l-0.028-0.387c-0.19-2.627-0.313-4.885-0.4-6.448
						c-0.038-0.695-0.071-1.295-0.099-1.814C163.51,198.556,163.5,198.339,163.508,198.354c0.008,0.015,0.034,0.261,0.076,0.7
						c0.051,0.532,0.11,1.147,0.178,1.86c0.151,1.579,0.363,3.755,0.563,6.298l-0.265-0.079c0.772-1.012,1.604-2.102,2.472-3.239
						l0.044-0.058l0.073-0.003l0.143-0.006c1.401-0.056,2.748-0.109,3.998-0.159l-0.083,0.268c-2.081-1.569-3.844-2.95-5.126-3.95
						c-0.58-0.452-1.079-0.842-1.51-1.179C163.715,198.527,163.517,198.369,163.508,198.354z"/>
				</g>
			</g>
			<g>
				<g>
					<path style="fill:#263238;" d="M137.964,236.942c-0.062-0.06,2.696-2.999,6.16-6.563c3.465-3.565,6.323-6.406,6.385-6.346
						c0.062,0.06-2.696,2.998-6.161,6.564C140.884,234.161,138.026,237.002,137.964,236.942z"/>
				</g>
			</g>
			<g>
				<g>
					<path style="fill:#263238;" d="M176.412,230.398c-0.047,0.004,0.002-0.725-0.303-1.975c-0.307-1.223-1.079-3.039-2.89-4.467
						c-0.896-0.698-2.035-1.292-3.353-1.537c-1.311-0.233-2.793-0.183-4.194,0.373c-1.406,0.518-2.717,1.522-3.651,2.859
						c-0.953,1.33-1.484,3.012-1.499,4.746c0.014,1.734,0.545,3.417,1.498,4.748c0.934,1.338,2.246,2.342,3.652,2.86
						c1.401,0.556,2.884,0.606,4.194,0.373c1.318-0.246,2.457-0.84,3.353-1.538c1.811-1.428,2.582-3.244,2.889-4.467
						C176.414,231.123,176.365,230.394,176.412,230.398c0,0,0.087,0.726-0.185,2.003c-0.275,1.249-1.028,3.12-2.87,4.611
						c-0.912,0.728-2.08,1.353-3.441,1.619c-1.352,0.253-2.889,0.211-4.346-0.358c-1.462-0.531-2.827-1.567-3.8-2.953
						c-0.992-1.378-1.547-3.126-1.56-4.924c0.014-1.798,0.569-3.545,1.561-4.922c0.973-1.385,2.338-2.421,3.8-2.952
						c1.457-0.569,2.993-0.611,4.345-0.358c1.361,0.265,2.529,0.89,3.441,1.619c1.842,1.491,2.595,3.362,2.87,4.611
						C176.499,229.672,176.412,230.398,176.412,230.398z"/>
				</g>
			</g>
			<g>
				<g>
					<path style="fill:#263238;" d="M169.238,251.498c0.001-0.009,0.069,0.042,0.199,0.147c0.169,0.141,0.357,0.297,0.574,0.478
						c0.573,0.491,1.298,1.114,2.181,1.872l0.07,0.06l-0.062,0.071c-2.222,2.555-5.532,6.359-9.3,10.69l-0.037,0.043l-0.057,0.009
						c-0.355,0.054-0.736,0.111-1.119,0.17c-0.682,0.103-1.355,0.205-2.017,0.304l-0.219,0.033l0.043-0.217
						c0.252-1.272,0.495-2.5,0.726-3.664l0.008-0.038l0.025-0.029c2.521-2.967,4.72-5.493,6.316-7.255
						C168.153,252.405,169.178,251.422,169.238,251.498c-0.002,0.007-0.07,0.075-0.186,0.178c-0.113,0.122-0.292,0.296-0.507,0.537
						c-0.439,0.475-1.059,1.186-1.838,2.082c-1.555,1.795-3.723,4.346-6.227,7.324l0.032-0.067
						c-0.227,1.165-0.466,2.394-0.714,3.667l-0.176-0.184c0.661-0.1,1.335-0.202,2.016-0.306c0.383-0.058,0.764-0.115,1.119-0.169
						l-0.094,0.051c3.806-4.298,7.149-8.073,9.394-10.608l0.008,0.131c-0.844-0.776-1.538-1.413-2.085-1.916
						c-0.21-0.198-0.392-0.37-0.555-0.524C169.302,251.574,169.237,251.507,169.238,251.498z"/>
				</g>
			</g>
			<g>
				<g>
					<path style="fill:#263238;" d="M148.981,264.455c-0.005-0.005-0.01-0.094-0.015-0.261c-0.005-0.208-0.01-0.448-0.016-0.729
						c-0.009-0.7-0.021-1.61-0.036-2.732c-0.017-2.406-0.041-5.709-0.069-9.64l0.136,0.136c-3.801,0.006-8.246,0.013-12.984,0.02
						c-0.036,0.033,0.295-0.295,0.155-0.154v0.004v0.007v0.014v0.029v0.057v0.115l0,0.229v0.457l0,0.907
						c0,0.602-0.001,1.198-0.001,1.788c-0.001,1.179-0.003,2.333-0.004,3.456c-0.006,2.239-0.011,4.353-0.016,6.296l-0.134-0.134
						c3.826,0.028,7.035,0.052,9.373,0.069c1.088,0.014,1.971,0.026,2.651,0.035c0.273,0.006,0.505,0.011,0.707,0.016
						C148.89,264.445,148.976,264.45,148.981,264.455c0.005,0.005-0.071,0.01-0.223,0.015c-0.195,0.005-0.419,0.01-0.681,0.016
						c-0.673,0.009-1.546,0.021-2.621,0.035c-2.359,0.017-5.598,0.041-9.459,0.069l-0.134,0.001l0-0.135
						c-0.005-1.944-0.01-4.057-0.016-6.296c-0.001-1.123-0.003-2.277-0.004-3.456c0-0.59-0.001-1.186-0.001-1.788l0-0.907l0-0.457
						v-0.229v-0.115v-0.057v-0.029v-0.014v-0.007v-0.004c-0.139,0.139,0.19-0.193,0.158-0.159c4.737,0.007,9.182,0.014,12.984,0.02
						l0.137,0l-0.001,0.136c-0.028,3.966-0.052,7.299-0.069,9.727c-0.015,1.109-0.026,2.009-0.036,2.701
						c-0.006,0.272-0.011,0.502-0.016,0.703C148.991,264.381,148.986,264.46,148.981,264.455z"/>
				</g>
			</g>
			<g>
				<g>
					<path style="fill:#263238;" d="M137.964,251.093c0,0.086-1.26,0.156-2.815,0.156c-1.555,0-2.815-0.07-2.815-0.156
						s1.26-0.156,2.815-0.156C136.703,250.936,137.964,251.006,137.964,251.093z"/>
				</g>
			</g>
			<g>
				<g>
					<path style="fill:#263238;" d="M135.996,253.662c-0.086,0-0.156-1.419-0.156-3.169c0-1.751,0.07-3.169,0.156-3.169
						c0.086,0,0.156,1.419,0.156,3.169C136.152,252.243,136.082,253.662,135.996,253.662z"/>
				</g>
			</g>
		</g>
	</g>
	<g>
		<rect x="40.624" y="208.664" style="fill:#F5F5F5;" width="73.325" height="73.325"/>
	</g>
	<g>
		<g>
			
				<ellipse transform="matrix(0.7071 -0.7071 0.7071 0.7071 -181.439 183.6528)" style="fill:#E0E0E0;" cx="130.969" cy="310.843" rx="13.744" ry="13.744"/>
		</g>
		<g>
			<g>
				
					<ellipse transform="matrix(0.7071 -0.7071 0.7071 0.7071 -177.1528 182.989)" style="fill:#FAFAFA;" cx="132.311" cy="305.337" rx="12.015" ry="12.015"/>
			</g>
			<g>
				<circle style="fill:#E8505B;" cx="132.311" cy="305.337" r="11.585"/>
			</g>
			<g>
				<path style="fill:#263238;" d="M132.311,314.209c-4.892,0-8.872-3.98-8.872-8.872s3.98-8.872,8.872-8.872
					c4.892,0,8.872,3.98,8.872,8.872S137.203,314.209,132.311,314.209z M132.311,296.516c-4.865,0-8.822,3.957-8.822,8.821
					c0,4.864,3.957,8.821,8.822,8.821c4.864,0,8.822-3.957,8.822-8.821C141.133,300.473,137.175,296.516,132.311,296.516z"/>
			</g>
			<g style="opacity:0.2;">
				<g>
					<path d="M133.254,297.241c-2.254-0.532-4.789,0.462-6.08,2.385c-1.292,1.922-1.254,4.645,0.09,6.531
						c1.344,1.886,3.905,2.809,6.144,2.216c2.239-0.594,4.005-2.666,4.238-4.97c0.119-1.179-0.145-2.408-0.81-3.389
						C135.823,298.518,135.016,297.629,133.254,297.241"/>
				</g>
			</g>
			<g>
				<polygon style="fill:#263238;" points="130.141,312.816 130.798,313.718 134.331,313.608 135.01,312.816 				"/>
			</g>
		</g>
	</g>
	<g>
		<g>
			<circle style="fill:#263238;" cx="366.719" cy="312.454" r="7.336"/>
		</g>
		<g>
			<path style="fill:#455A64;" d="M369.399,312.454c0,1.48-1.2,2.68-2.68,2.68c-1.48,0-2.68-1.2-2.68-2.68
				c0-1.48,1.2-2.68,2.68-2.68C368.199,309.774,369.399,310.974,369.399,312.454z"/>
		</g>
	</g>
	<g>
		<g>
			<g>
				<g>
					<path style="fill:#263238;" d="M98.025,292.345c0-0.136,0.636-0.246,1.42-0.246c0.785,0,1.421,0.11,1.421,0.246
						c0,0.136-0.636,0.246-1.421,0.246C98.661,292.591,98.025,292.481,98.025,292.345z"/>
				</g>
			</g>
			<g>
				<g>
					<path style="fill:#263238;" d="M92.343,292.345c0-0.136,0.636-0.246,1.42-0.246c0.785,0,1.421,0.11,1.421,0.246
						c0,0.136-0.636,0.246-1.421,0.246C92.979,292.591,92.343,292.481,92.343,292.345z"/>
				</g>
			</g>
			<g>
				<g>
					<path style="fill:#263238;" d="M86.661,292.345c0-0.136,0.636-0.246,1.42-0.246c0.785,0,1.421,0.11,1.421,0.246
						c0,0.136-0.636,0.246-1.421,0.246C87.297,292.591,86.661,292.481,86.661,292.345z"/>
				</g>
			</g>
			<g>
				<g>
					<path style="fill:#263238;" d="M80.98,292.345c0-0.136,0.636-0.246,1.42-0.246c0.785,0,1.421,0.11,1.421,0.246
						c0,0.136-0.636,0.246-1.421,0.246C81.616,292.591,80.98,292.481,80.98,292.345z"/>
				</g>
			</g>
			<g>
				<g>
					<path style="fill:#263238;" d="M75.298,292.345c0-0.136,0.636-0.246,1.42-0.246c0.785,0,1.42,0.11,1.42,0.246
						c0,0.136-0.636,0.246-1.42,0.246C75.934,292.591,75.298,292.481,75.298,292.345z"/>
				</g>
			</g>
			<g>
				<g>
					<path style="fill:#263238;" d="M69.616,292.345c0-0.136,0.636-0.246,1.42-0.246c0.785,0,1.421,0.11,1.421,0.246
						c0,0.136-0.636,0.246-1.421,0.246C70.252,292.591,69.616,292.481,69.616,292.345z"/>
				</g>
			</g>
			<g>
				<g>
					<path style="fill:#263238;" d="M63.934,292.345c0-0.136,0.636-0.246,1.42-0.246c0.785,0,1.421,0.11,1.421,0.246
						c0,0.136-0.636,0.246-1.421,0.246C64.57,292.591,63.934,292.481,63.934,292.345z"/>
				</g>
			</g>
			<g>
				<g>
					<path style="fill:#263238;" d="M58.253,292.345c0-0.136,0.636-0.246,1.42-0.246c0.785,0,1.421,0.11,1.421,0.246
						c0,0.136-0.636,0.246-1.421,0.246C58.889,292.591,58.253,292.481,58.253,292.345z"/>
				</g>
			</g>
			<g>
				<g>
					<path style="fill:#263238;" d="M52.571,292.345c0-0.136,0.636-0.246,1.42-0.246c0.785,0,1.42,0.11,1.42,0.246
						c0,0.136-0.636,0.246-1.42,0.246C53.207,292.591,52.571,292.481,52.571,292.345z"/>
				</g>
			</g>
			<g>
				<g>
					<path style="fill:#263238;" d="M46.889,292.345c0-0.136,0.636-0.246,1.42-0.246c0.785,0,1.421,0.11,1.421,0.246
						c0,0.136-0.636,0.246-1.421,0.246C47.525,292.591,46.889,292.481,46.889,292.345z"/>
				</g>
			</g>
			<g>
				<g>
					<path style="fill:#263238;" d="M41.208,292.345c0-0.136,0.636-0.246,1.42-0.246c0.785,0,1.421,0.11,1.421,0.246
						c0,0.136-0.636,0.246-1.421,0.246C41.843,292.591,41.208,292.481,41.208,292.345z"/>
				</g>
			</g>
			<g>
				<g>
					<path style="fill:#263238;" d="M35.526,292.345c0-0.136,0.636-0.246,1.42-0.246c0.785,0,1.42,0.11,1.42,0.246
						c0,0.136-0.636,0.246-1.42,0.246C36.162,292.591,35.526,292.481,35.526,292.345z"/>
				</g>
			</g>
			<g>
				<g>
					<path style="fill:#263238;" d="M31.477,290.711c0.136,0,0.247,0.636,0.247,1.42c-0.001,0.07-0.002,0.138-0.003,0.213
						l-0.244-0.244c0.684,0.018,1.208,0.12,1.208,0.244s-0.523,0.226-1.208,0.244l-0.241,0.006l-0.003-0.25
						c-0.001-0.075-0.002-0.142-0.003-0.213C31.231,291.347,31.341,290.711,31.477,290.711z"/>
				</g>
			</g>
			<g>
				<g>
					<path style="fill:#263238;" d="M31.477,285.03c0.136,0,0.247,0.636,0.247,1.42c0,0.785-0.11,1.421-0.247,1.421
						s-0.247-0.636-0.247-1.421C31.231,285.666,31.341,285.03,31.477,285.03z"/>
				</g>
			</g>
			<g>
				<g>
					<path style="fill:#263238;" d="M31.477,279.348c0.136,0,0.247,0.636,0.247,1.42c0,0.785-0.11,1.421-0.247,1.421
						s-0.247-0.636-0.247-1.421C31.231,279.984,31.341,279.348,31.477,279.348z"/>
				</g>
			</g>
			<g>
				<g>
					<path style="fill:#263238;" d="M31.477,273.666c0.136,0,0.247,0.636,0.247,1.42c0,0.785-0.11,1.421-0.247,1.421
						s-0.247-0.636-0.247-1.421C31.231,274.302,31.341,273.666,31.477,273.666z"/>
				</g>
			</g>
			<g>
				<g>
					<path style="fill:#263238;" d="M31.477,267.984c0.136,0,0.247,0.636,0.247,1.42c0,0.785-0.11,1.421-0.247,1.421
						s-0.247-0.636-0.247-1.421C31.231,268.621,31.341,267.984,31.477,267.984z"/>
				</g>
			</g>
			<g>
				<g>
					<path style="fill:#263238;" d="M31.477,262.303c0.136,0,0.247,0.636,0.247,1.42c0,0.785-0.11,1.42-0.247,1.42
						s-0.247-0.636-0.247-1.42C31.231,262.939,31.341,262.303,31.477,262.303z"/>
				</g>
			</g>
			<g>
				<g>
					<path style="fill:#263238;" d="M31.477,256.621c0.136,0,0.247,0.636,0.247,1.42c0,0.785-0.11,1.421-0.247,1.421
						s-0.247-0.636-0.247-1.421C31.231,257.257,31.341,256.621,31.477,256.621z"/>
				</g>
			</g>
			<g>
				<g>
					<path style="fill:#263238;" d="M31.477,250.939c0.136,0,0.247,0.636,0.247,1.42c0,0.785-0.11,1.421-0.247,1.421
						s-0.247-0.636-0.247-1.421C31.231,251.575,31.341,250.939,31.477,250.939z"/>
				</g>
			</g>
			<g>
				<g>
					<path style="fill:#263238;" d="M31.477,245.258c0.136,0,0.247,0.636,0.247,1.42c0,0.785-0.11,1.421-0.247,1.421
						s-0.247-0.636-0.247-1.421C31.231,245.893,31.341,245.258,31.477,245.258z"/>
				</g>
			</g>
			<g>
				<g>
					<path style="fill:#263238;" d="M31.477,239.576c0.136,0,0.247,0.636,0.247,1.42c0,0.785-0.11,1.421-0.247,1.421
						s-0.247-0.636-0.247-1.421C31.231,240.212,31.341,239.576,31.477,239.576z"/>
				</g>
			</g>
			<g>
				<g>
					<path style="fill:#263238;" d="M31.477,233.894c0.136,0,0.247,0.636,0.247,1.42c0,0.785-0.11,1.42-0.247,1.42
						s-0.247-0.636-0.247-1.42C31.231,234.53,31.341,233.894,31.477,233.894z"/>
				</g>
			</g>
			<g>
				<g>
					<path style="fill:#263238;" d="M31.477,228.212c0.136,0,0.247,0.636,0.247,1.42c0,0.785-0.11,1.421-0.247,1.421
						s-0.247-0.636-0.247-1.421C31.231,228.848,31.341,228.212,31.477,228.212z"/>
				</g>
			</g>
			<g>
				<g>
					<path style="fill:#263238;" d="M31.903,222.956c0,0.069-0.163,0.131-0.425,0.176l0.176-0.176
						c0.044,0.255,0.071,0.607,0.071,0.995c0,0.785-0.11,1.421-0.247,1.421s-0.247-0.636-0.247-1.421
						c0-0.388,0.027-0.739,0.071-0.995l0.034-0.2l0.142,0.024C31.74,222.825,31.903,222.887,31.903,222.956z"/>
				</g>
			</g>
			<g>
				<g>
					<path style="fill:#263238;" d="M37.584,222.956c0,0.136-0.636,0.247-1.42,0.247c-0.785,0-1.421-0.11-1.421-0.247
						c0-0.136,0.636-0.247,1.421-0.247C36.948,222.71,37.584,222.82,37.584,222.956z"/>
				</g>
			</g>
			<g>
				<g>
					<path style="fill:#263238;" d="M43.266,222.956c0,0.136-0.636,0.247-1.42,0.247c-0.785,0-1.42-0.11-1.42-0.247
						c0-0.136,0.636-0.247,1.42-0.247C42.63,222.71,43.266,222.82,43.266,222.956z"/>
				</g>
			</g>
			<g>
				<g>
					<path style="fill:#263238;" d="M48.948,222.956c0,0.136-0.636,0.247-1.42,0.247c-0.785,0-1.421-0.11-1.421-0.247
						c0-0.136,0.636-0.247,1.421-0.247C48.312,222.71,48.948,222.82,48.948,222.956z"/>
				</g>
			</g>
			<g>
				<g>
					<path style="fill:#263238;" d="M54.63,222.956c0,0.136-0.636,0.247-1.42,0.247c-0.785,0-1.421-0.11-1.421-0.247
						c0-0.136,0.636-0.247,1.421-0.247C53.994,222.71,54.63,222.82,54.63,222.956z"/>
				</g>
			</g>
			<g>
				<g>
					<path style="fill:#263238;" d="M60.311,222.956c0,0.136-0.636,0.247-1.42,0.247c-0.785,0-1.421-0.11-1.421-0.247
						c0-0.136,0.636-0.247,1.421-0.247C59.675,222.71,60.311,222.82,60.311,222.956z"/>
				</g>
			</g>
			<g>
				<g>
					<path style="fill:#263238;" d="M65.993,222.956c0,0.136-0.636,0.247-1.42,0.247c-0.785,0-1.421-0.11-1.421-0.247
						c0-0.136,0.636-0.247,1.421-0.247C65.357,222.71,65.993,222.82,65.993,222.956z"/>
				</g>
			</g>
			<g>
				<g>
					<path style="fill:#263238;" d="M71.675,222.956c0,0.136-0.636,0.247-1.42,0.247c-0.785,0-1.42-0.11-1.42-0.247
						c0-0.136,0.636-0.247,1.42-0.247C71.039,222.71,71.675,222.82,71.675,222.956z"/>
				</g>
			</g>
			<g>
				<g>
					<path style="fill:#263238;" d="M77.357,222.956c0,0.136-0.636,0.247-1.42,0.247c-0.785,0-1.421-0.11-1.421-0.247
						c0-0.136,0.636-0.247,1.421-0.247C76.721,222.71,77.357,222.82,77.357,222.956z"/>
				</g>
			</g>
			<g>
				<g>
					<path style="fill:#263238;" d="M83.038,222.956c0,0.136-0.636,0.247-1.42,0.247c-0.785,0-1.421-0.11-1.421-0.247
						c0-0.136,0.636-0.247,1.421-0.247C82.402,222.71,83.038,222.82,83.038,222.956z"/>
				</g>
			</g>
			<g>
				<g>
					<path style="fill:#263238;" d="M88.72,222.956c0,0.136-0.636,0.247-1.42,0.247c-0.785,0-1.421-0.11-1.421-0.247
						c0-0.136,0.636-0.247,1.421-0.247C88.084,222.71,88.72,222.82,88.72,222.956z"/>
				</g>
			</g>
			<g>
				<g>
					<path style="fill:#263238;" d="M94.402,222.956c0,0.136-0.636,0.247-1.42,0.247c-0.785,0-1.421-0.11-1.421-0.247
						c0-0.136,0.636-0.247,1.421-0.247C93.766,222.71,94.402,222.82,94.402,222.956z"/>
				</g>
			</g>
			<g>
				<g>
					<path style="fill:#263238;" d="M100.083,222.956c0,0.136-0.636,0.247-1.42,0.247c-0.785,0-1.421-0.11-1.421-0.247
						c0-0.136,0.636-0.247,1.421-0.247C99.447,222.71,100.083,222.82,100.083,222.956z"/>
				</g>
			</g>
			<g>
				<g>
					<path style="fill:#263238;" d="M100.866,227.856c-0.136,0-0.247-0.636-0.247-1.42c0-0.785,0.11-1.421,0.247-1.421
						s0.247,0.636,0.247,1.421C101.112,227.22,101.002,227.856,100.866,227.856z"/>
				</g>
			</g>
			<g>
				<g>
					<path style="fill:#263238;" d="M100.866,233.537c-0.136,0-0.247-0.636-0.247-1.42c0-0.785,0.11-1.421,0.247-1.421
						s0.247,0.636,0.247,1.421C101.112,232.901,101.002,233.537,100.866,233.537z"/>
				</g>
			</g>
			<g>
				<g>
					<path style="fill:#263238;" d="M100.866,239.219c-0.136,0-0.247-0.636-0.247-1.42c0-0.785,0.11-1.421,0.247-1.421
						s0.247,0.636,0.247,1.421C101.112,238.583,101.002,239.219,100.866,239.219z"/>
				</g>
			</g>
			<g>
				<g>
					<path style="fill:#263238;" d="M100.866,244.901c-0.136,0-0.247-0.636-0.247-1.42c0-0.785,0.11-1.421,0.247-1.421
						s0.247,0.636,0.247,1.421C101.112,244.265,101.002,244.901,100.866,244.901z"/>
				</g>
			</g>
			<g>
				<g>
					<path style="fill:#263238;" d="M100.866,250.583c-0.136,0-0.247-0.636-0.247-1.42c0-0.785,0.11-1.421,0.247-1.421
						s0.247,0.636,0.247,1.421C101.112,249.947,101.002,250.583,100.866,250.583z"/>
				</g>
			</g>
			<g>
				<g>
					<path style="fill:#263238;" d="M100.866,256.264c-0.136,0-0.247-0.636-0.247-1.42c0-0.785,0.11-1.421,0.247-1.421
						s0.247,0.636,0.247,1.421C101.112,255.628,101.002,256.264,100.866,256.264z"/>
				</g>
			</g>
			<g>
				<g>
					<path style="fill:#263238;" d="M100.866,261.946c-0.136,0-0.247-0.636-0.247-1.42c0-0.785,0.11-1.421,0.247-1.421
						s0.247,0.636,0.247,1.421C101.112,261.31,101.002,261.946,100.866,261.946z"/>
				</g>
			</g>
			<g>
				<g>
					<path style="fill:#263238;" d="M100.866,267.628c-0.136,0-0.247-0.636-0.247-1.42c0-0.785,0.11-1.421,0.247-1.421
						s0.247,0.636,0.247,1.421C101.112,266.992,101.002,267.628,100.866,267.628z"/>
				</g>
			</g>
			<g>
				<g>
					<path style="fill:#263238;" d="M100.866,273.31c-0.136,0-0.247-0.636-0.247-1.42c0-0.785,0.11-1.421,0.247-1.421
						s0.247,0.636,0.247,1.421C101.112,272.673,101.002,273.31,100.866,273.31z"/>
				</g>
			</g>
			<g>
				<g>
					<path style="fill:#263238;" d="M100.866,278.991c-0.136,0-0.247-0.636-0.247-1.42c0-0.785,0.11-1.421,0.247-1.421
						s0.247,0.636,0.247,1.421C101.112,278.355,101.002,278.991,100.866,278.991z"/>
				</g>
			</g>
			<g>
				<g>
					<path style="fill:#263238;" d="M100.866,284.673c-0.136,0-0.247-0.636-0.247-1.42c0-0.785,0.11-1.421,0.247-1.421
						s0.247,0.636,0.247,1.421C101.112,284.037,101.002,284.673,100.866,284.673z"/>
				</g>
			</g>
			<g>
				<g>
					<path style="fill:#263238;" d="M100.866,290.355c-0.136,0-0.247-0.636-0.247-1.42c0-0.785,0.11-1.421,0.247-1.421
						s0.247,0.636,0.247,1.421C101.112,289.719,101.002,290.355,100.866,290.355z"/>
				</g>
			</g>
		</g>
		<g>
			<rect x="98.296" y="289.072" style="fill:#263238;" width="5.139" height="5.139"/>
		</g>
		<g>
			<rect x="28.908" y="289.775" style="fill:#263238;" width="5.139" height="5.139"/>
		</g>
		<g>
			<rect x="98.296" y="219.886" style="fill:#263238;" width="5.139" height="5.139"/>
		</g>
		<g>
			<rect x="28.908" y="220.387" style="fill:#263238;" width="5.139" height="5.139"/>
		</g>
	</g>
</g>
</svg>
