<?xml version="1.0" encoding="utf-8"?>
<!-- Generator: Adobe Illustrator 27.5.0, SVG Export Plug-In . SVG Version: 6.00 Build 0)  -->
<svg version="1.1" xmlns="http://www.w3.org/2000/svg" xmlns:xlink="http://www.w3.org/1999/xlink" x="0px" y="0px"
	 viewBox="0 0 500 500" style="enable-background:new 0 0 500 500;" xml:space="preserve">
<g id="Background_Complete">
	<g>
		<g>
			<g>
				<g>
					<g>
						<g>
							<path style="fill:#F5F5F5;" d="M380.565,408.9c-15.552-10.865-19.08-31.033-18.465-49.162
								c0.102-3.026-0.23-6.216,1.209-8.872c1.44-2.654,4.799-4.469,7.508-3.194c2.247,1.058,3.227,3.672,4.484,5.834
								c1.672,2.877,4.164,5.257,7.097,6.779c1.927,1,4.311,1.611,6.213,0.562c2.61-1.44,2.918-5.046,2.899-8.057
								c-0.036-5.61-0.07-11.22-0.105-16.828c-0.019-3.009-0.028-6.083,0.908-8.939c0.936-2.857,3.004-5.51,5.867-6.312
								c2.864-0.802,6.404,0.849,7.009,3.795c0.252,1.226,0.002,2.499,0.086,3.748c0.084,1.25,0.666,2.632,1.852,2.98
								c1.201,0.353,2.406-0.5,3.305-1.381c3.107-3.039,5.215-6.954,7.185-10.847c1.97-3.893,3.882-7.879,6.701-11.193
								c2.819-3.315,6.718-5.941,11.028-6.185c4.311-0.244,8.903,2.417,9.992,6.648c1.092,4.243-1.383,8.548-4.077,11.983
								c-3.996,5.096-8.724,9.603-13.988,13.334c-0.949,0.673-1.977,1.401-2.34,2.516c-0.654,2.007,1.247,3.999,3.229,4.659
								c2.243,0.747,4.678,0.514,7.024,0.79c2.347,0.276,4.889,1.311,5.777,3.529c1.233,3.076-1.34,6.301-3.872,8.413
								c-5.069,4.229-10.858,7.57-17.033,9.832c-2.214,0.81-4.544,1.521-6.329,3.076c-1.785,1.556-2.863,4.261-1.784,6.381
								c1.079,2.123,3.848,2.801,6.167,2.37c2.318-0.43,4.395-1.689,6.605-2.523c4.136-1.561,9.477-1.276,12.127,2.298
								c1.741,2.35,1.895,5.622,1.014,8.422c-0.88,2.801-2.666,5.214-4.563,7.438c-6.629,7.777-15.115,14.039-24.711,17.366
								C398.991,411.486,390.1,412.387,380.565,408.9"/>
						</g>
					</g>
				</g>
			</g>
			<g>
				<g>
					<g>
						<g>
							<g>
								<path style="fill:#E0E0E0;" d="M380.327,422.34c0.657-7.182,2.232-15.663,4.918-24.805
									c2.668-9.149,6.425-18.935,10.705-29.036c1.079-2.521,2.146-5.012,3.197-7.467c1.055-2.448,2.101-4.876,3.271-7.188
									c2.32-4.634,4.904-8.913,7.484-12.898c2.579-3.988,5.171-7.677,7.62-11.109c2.458-3.429,4.809-6.581,7.074-9.363
									c4.514-5.583,8.681-9.646,11.655-12.319c1.484-1.342,2.67-2.345,3.483-3.014c0.391-0.318,0.698-0.567,0.929-0.755
									c0.211-0.167,0.322-0.249,0.328-0.242c0.007,0.008-0.092,0.104-0.292,0.286c-0.222,0.198-0.518,0.462-0.894,0.797
									c-0.788,0.697-1.951,1.725-3.411,3.089c-2.925,2.719-7.033,6.81-11.496,12.408c-2.24,2.79-4.567,5.948-7.004,9.383
									c-2.431,3.442-5.006,7.135-7.567,11.12c-2.561,3.983-5.125,8.251-7.426,12.863c-1.16,2.301-2.194,4.708-3.25,7.163
									c-1.05,2.454-2.115,4.944-3.193,7.464c-4.277,10.093-8.038,19.849-10.726,28.963c-2.704,9.106-4.312,17.545-5.016,24.696"/>
							</g>
						</g>
					</g>
				</g>
			</g>
			<g>
				<g>
					<g>
						<g>
							<g>
								<path style="fill:#E0E0E0;" d="M402.576,353.823c-0.037,0.006-0.14-0.451-0.294-1.284c-0.158-0.832-0.347-2.042-0.558-3.541
									c-0.426-2.997-0.872-7.155-1.347-11.742c-0.475-4.589-0.979-8.729-1.449-11.711c-0.231-1.491-0.43-2.697-0.578-3.528
									c-0.144-0.833-0.206-1.298-0.168-1.307c0.037-0.008,0.17,0.44,0.378,1.261c0.213,0.819,0.472,2.018,0.752,3.506
									c0.571,2.975,1.139,7.126,1.614,11.719c0.457,4.527,0.87,8.623,1.186,11.752c0.151,1.413,0.28,2.603,0.383,3.559
									C402.583,353.348,402.615,353.817,402.576,353.823z"/>
							</g>
						</g>
					</g>
				</g>
			</g>
			<g>
				<g>
					<g>
						<g>
							<g>
								<path style="fill:#E0E0E0;" d="M441.272,346.591c0.001,0.038-0.549,0.102-1.543,0.185c-0.993,0.089-2.43,0.208-4.201,0.414
									c-3.544,0.382-8.421,1.082-13.769,2.09c-5.347,1.018-10.147,2.144-13.595,3.06c-1.728,0.445-3.116,0.844-4.078,1.113
									c-0.961,0.273-1.497,0.407-1.51,0.371c-0.012-0.037,0.503-0.241,1.446-0.579c0.944-0.333,2.319-0.79,4.039-1.287
									c3.431-1.016,8.234-2.207,13.597-3.229c5.363-1.01,10.268-1.651,13.833-1.933c1.781-0.155,3.228-0.216,4.227-0.237
									C440.717,346.543,441.27,346.552,441.272,346.591z"/>
							</g>
						</g>
					</g>
				</g>
			</g>
			<g>
				<g>
					<g>
						<g>
							<g>
								<path style="fill:#E0E0E0;" d="M385.72,396.823c-0.018,0.008-0.108-0.154-0.265-0.472c-0.179-0.379-0.397-0.841-0.662-1.4
									c-0.569-1.218-1.347-3.003-2.279-5.219c-1.867-4.433-4.253-10.637-6.793-17.519c-2.542-6.885-4.867-13.103-6.639-17.568
									c-0.868-2.171-1.583-3.956-2.114-5.283c-0.227-0.576-0.414-1.051-0.567-1.441c-0.124-0.331-0.181-0.509-0.163-0.518
									c0.018-0.007,0.108,0.155,0.265,0.473c0.179,0.378,0.397,0.84,0.662,1.399c0.569,1.218,1.347,3.002,2.279,5.219
									c1.867,4.433,4.253,10.637,6.794,17.522c2.541,6.883,4.867,13.1,6.638,17.566c0.869,2.17,1.583,3.956,2.114,5.282
									c0.227,0.576,0.414,1.052,0.567,1.441C385.681,396.637,385.738,396.815,385.72,396.823z"/>
							</g>
						</g>
					</g>
				</g>
			</g>
			<g>
				<g>
					<g>
						<g>
							<g>
								<path style="fill:#E0E0E0;" d="M437.141,380.25c0.005,0.019-0.171,0.091-0.51,0.21c-0.402,0.135-0.896,0.3-1.493,0.5
									c-1.379,0.447-3.241,1.051-5.506,1.784c-4.649,1.508-11.046,3.664-18.112,6.056c-7.068,2.394-13.491,4.493-18.173,5.905
									c-2.341,0.707-4.24,1.259-5.56,1.614c-0.611,0.16-1.114,0.292-1.523,0.4c-0.35,0.086-0.537,0.121-0.542,0.102
									c-0.005-0.019,0.171-0.09,0.51-0.211c0.401-0.134,0.895-0.299,1.493-0.499c1.379-0.447,3.24-1.05,5.505-1.784
									c4.649-1.507,11.047-3.664,18.115-6.057c7.066-2.393,13.488-4.492,18.17-5.904c2.341-0.707,4.24-1.26,5.561-1.614
									c0.611-0.16,1.113-0.293,1.523-0.4C436.949,380.267,437.135,380.232,437.141,380.25z"/>
							</g>
						</g>
					</g>
				</g>
			</g>
		</g>
		<g>
			<g>
				<path style="fill:#E0E0E0;" d="M462.397,332.457c-0.023-0.006-0.161-0.211-0.398-0.587c-0.273-0.441-0.603-0.974-0.998-1.611
					c-0.845-1.379-2.023-3.319-3.397-5.654l0.307,0.082c-2.332,1.359-5.048,2.94-7.945,4.628c-0.022,0.078,0.18-0.673,0.095-0.354
					l0.001,0.002l0.003,0.004l0.005,0.008l0.01,0.017l0.02,0.034l0.039,0.068l0.079,0.136l0.157,0.272l0.311,0.54
					c0.206,0.359,0.411,0.714,0.613,1.066c0.403,0.703,0.798,1.391,1.183,2.062c0.761,1.336,1.481,2.6,2.146,3.77l-0.307-0.082
					c2.357-1.335,4.347-2.426,5.769-3.198c0.66-0.354,1.213-0.651,1.669-0.896C462.152,332.56,462.374,332.451,462.397,332.457
					c0.023,0.006-0.153,0.127-0.507,0.352c-0.428,0.266-0.947,0.588-1.566,0.972c-1.366,0.837-3.358,2.046-5.778,3.469l-0.193,0.114
					l-0.115-0.196c-0.68-1.161-1.415-2.417-2.191-3.744c-0.388-0.668-0.787-1.354-1.194-2.055c-0.203-0.351-0.409-0.706-0.616-1.064
					l-0.312-0.54l-0.157-0.272l-0.079-0.136l-0.039-0.068l-0.02-0.034l-0.01-0.017l-0.005-0.008l-0.002-0.004l-0.001-0.002
					c-0.085,0.317,0.115-0.435,0.095-0.358c2.91-1.665,5.638-3.226,7.981-4.567l0.197-0.113l0.111,0.195
					c1.385,2.443,2.505,4.484,3.27,5.893c0.344,0.643,0.632,1.181,0.871,1.626C462.328,332.271,462.42,332.464,462.397,332.457z"/>
			</g>
		</g>
		<g>
			<g>
				<g>
					
						<rect x="151.311" y="64.528" transform="matrix(1 -0.0054 0.0054 1 -0.4722 0.8376)" style="fill:#E0E0E0;" width="9.672" height="48.124"/>
				</g>
			</g>
			<g>
				<g>
					<g>
						
							<rect x="67.468" y="64.695" transform="matrix(1 -0.0054 0.0054 1 -0.4164 0.4294)" style="fill:#EBEBEB;" width="25.045" height="26.568"/>
					</g>
				</g>
				<g>
					<g>
						
							<rect x="92.394" y="64.561" transform="matrix(1 -0.0054 0.0054 1 -0.4153 0.5629)" style="fill:#F5F5F5;" width="25.045" height="26.568"/>
					</g>
				</g>
				<g>
					<g>
						<g>
							<path style="fill:#E0E0E0;" d="M67.436,72.099c16.644,0.137,33.329,0.041,49.972-0.23c0.343-0.005,0.34-0.53-0.003-0.532
								c-16.644-0.092-33.33-0.01-49.971,0.306C67.14,71.648,67.142,72.097,67.436,72.099L67.436,72.099z"/>
						</g>
					</g>
				</g>
			</g>
			<g>
				<g>
					<g>
						
							<rect x="51.839" y="90.874" transform="matrix(1 -0.0054 0.0054 1 -0.5438 0.4011)" style="fill:#EBEBEB;" width="45.503" height="21.651"/>
					</g>
				</g>
				<g>
					<g>
						
							<rect x="97.127" y="90.631" transform="matrix(1 -0.0054 0.0054 1 -0.5416 0.6435)" style="fill:#F5F5F5;" width="45.503" height="21.651"/>
					</g>
				</g>
				<g>
					<g>
						<g>
							<path style="fill:#E0E0E0;" d="M51.814,97.018c30.229,0.342,60.563,0.035,90.791-0.448c0.342-0.006,0.34-0.531-0.003-0.532
								c-30.231-0.16-60.567-0.142-90.79,0.524C51.518,96.568,51.52,97.014,51.814,97.018L51.814,97.018z"/>
						</g>
					</g>
				</g>
			</g>
			<g>
				<g>
					<rect x="34.797" y="112.647" style="fill:#E0E0E0;" width="176.293" height="7.756"/>
				</g>
				<g>
					<rect x="63.66" y="116.376" style="fill:#E0E0E0;" width="7.157" height="26.467"/>
				</g>
				<g>
					<rect x="170.493" y="116.376" style="fill:#E0E0E0;" width="7.157" height="26.467"/>
				</g>
			</g>
			<g>
				<g>
					
						<rect x="160.797" y="46.582" transform="matrix(1 -0.0054 0.0054 1 -0.4244 0.8883)" style="fill:#EBEBEB;" width="9.671" height="66.188"/>
				</g>
			</g>
			<g>
				<g>
					<g>
						
							<rect x="170.519" y="58.917" transform="matrix(1 -0.0054 0.0054 1 -0.4573 0.9561)" style="fill:#F5F5F5;" width="15.028" height="53.638"/>
					</g>
				</g>
				<g>
					<g>
						<path style="fill:#E0E0E0;" d="M185.302,69.211c0,0.144-3.364,0.261-7.514,0.261c-4.151,0-7.514-0.117-7.514-0.261
							c0-0.144,3.364-0.26,7.514-0.26C181.938,68.951,185.302,69.067,185.302,69.211z"/>
					</g>
				</g>
				<g>
					<g>
						<path style="fill:#E0E0E0;" d="M185.302,66.958c0,0.144-3.364,0.26-7.514,0.26c-4.151,0-7.514-0.117-7.514-0.26
							c0-0.144,3.364-0.26,7.514-0.26C181.938,66.698,185.302,66.814,185.302,66.958z"/>
					</g>
				</g>
				<g>
					<g>
						<path style="fill:#E0E0E0;" d="M185.302,104.445c0,0.144-3.364,0.26-7.514,0.26c-4.151,0-7.514-0.117-7.514-0.26
							s3.364-0.26,7.514-0.26C181.938,104.185,185.302,104.301,185.302,104.445z"/>
					</g>
				</g>
				<g>
					<g>
						<path style="fill:#E0E0E0;" d="M185.302,102.191c0,0.144-3.364,0.261-7.514,0.261c-4.151,0-7.514-0.117-7.514-0.261
							c0-0.144,3.364-0.26,7.514-0.26C181.938,101.931,185.302,102.048,185.302,102.191z"/>
					</g>
				</g>
				<g>
					<g>
						<path style="fill:#E0E0E0;" d="M178.03,97.275c-0.144,0-0.26-5.411-0.26-12.085c0-6.676,0.117-12.086,0.26-12.086
							s0.26,5.41,0.26,12.086C178.29,91.864,178.174,97.275,178.03,97.275z"/>
					</g>
				</g>
			</g>
			<g>
				<g>
					<rect x="185.465" y="72.049" style="fill:#EBEBEB;" width="16.358" height="40.486"/>
				</g>
				<g>
					<path style="fill:#FAFAFA;" d="M194.106,102.035c-2.152,0-3.655-1.531-3.655-3.642c0-1.145,0.441-2.138,1.324-2.731
						l0.372,0.511c-0.731,0.524-1.076,1.324-1.076,2.221c0,1.697,1.214,2.938,3.035,2.938s3.035-1.241,3.035-2.938
						c0-0.896-0.345-1.696-1.076-2.221l0.373-0.511c0.869,0.594,1.324,1.587,1.324,2.731
						C197.761,100.504,196.243,102.035,194.106,102.035z"/>
					<path style="fill:#FAFAFA;" d="M196.837,94.658l-0.552-0.317c0.469-0.552,0.869-1.531,0.869-2.593
						c0-1.518-0.538-2.124-1.352-2.124c-2.097,0-0.552,4.772-3.379,4.772c-1.089,0-1.972-0.91-1.972-2.731
						c0-0.91,0.275-1.903,0.703-2.469l0.552,0.317c-0.441,0.606-0.648,1.393-0.648,2.165c0,1.407,0.58,2.028,1.352,2.028
						c2.166,0,0.634-4.773,3.379-4.773c1.173,0,1.973,1.007,1.973,2.842C197.761,92.961,197.361,94.092,196.837,94.658z"/>
					<path style="fill:#FAFAFA;" d="M196.837,88.066l-0.552-0.317c0.469-0.552,0.869-1.531,0.869-2.594
						c0-1.517-0.538-2.124-1.352-2.124c-2.097,0-0.552,4.772-3.379,4.772c-1.089,0-1.972-0.91-1.972-2.73
						c0-0.911,0.275-1.904,0.703-2.47l0.552,0.317c-0.441,0.608-0.648,1.394-0.648,2.166c0,1.406,0.58,2.027,1.352,2.027
						c2.166,0,0.634-4.772,3.379-4.772c1.173,0,1.973,1.007,1.973,2.842C197.761,86.368,197.361,87.5,196.837,88.066z"/>
				</g>
			</g>
			<g>
				<circle style="fill:#E0E0E0;" cx="165.314" cy="57.857" r="2.78"/>
			</g>
			<g>
				<rect x="164.454" y="65.502" style="fill:#E0E0E0;" width="1.718" height="39.374"/>
			</g>
		</g>
		<g>
			<g>
				<g>
					<path style="fill:#E0E0E0;" d="M383.475,297.233c-0.102-0.102,3.15-3.518,7.261-7.629c4.113-4.113,7.528-7.364,7.63-7.262
						c0.102,0.102-3.149,3.517-7.262,7.63C386.993,294.083,383.577,297.334,383.475,297.233z"/>
				</g>
			</g>
			<g>
				<g>
					<path style="fill:#E0E0E0;" d="M398.367,297.233c-0.102,0.102-3.518-3.15-7.629-7.261c-4.113-4.113-7.364-7.528-7.262-7.63
						c0.102-0.102,3.517,3.149,7.63,7.262C395.217,293.715,398.468,297.131,398.367,297.233z"/>
				</g>
			</g>
		</g>
		<g>
			<g>
				<g>
					<path style="fill:#E0E0E0;" d="M247.276,216.467c-0.102-0.102,3.15-3.518,7.261-7.629c4.113-4.113,7.529-7.364,7.63-7.262
						c0.102,0.102-3.149,3.517-7.262,7.63C250.794,213.318,247.378,216.569,247.276,216.467z"/>
				</g>
			</g>
			<g>
				<g>
					<path style="fill:#E0E0E0;" d="M262.167,216.467c-0.102,0.102-3.518-3.15-7.63-7.261c-4.113-4.113-7.363-7.528-7.262-7.63
						c0.102-0.102,3.517,3.149,7.63,7.262C259.018,212.949,262.269,216.365,262.167,216.467z"/>
				</g>
			</g>
		</g>
		<g>
			<g>
				<g>
					<path style="fill:#E0E0E0;" d="M226.863,86.137c-0.143,0.012-0.611-4.019-1.045-9.003c-0.434-4.986-0.669-9.037-0.526-9.049
						c0.143-0.012,0.611,4.018,1.045,9.004C226.771,82.073,227.007,86.124,226.863,86.137z"/>
				</g>
			</g>
			<g>
				<g>
					<path style="fill:#E0E0E0;" d="M235.104,76.325c0.012,0.143-4.019,0.611-9.003,1.045c-4.986,0.434-9.037,0.669-9.049,0.526
						c-0.012-0.143,4.018-0.611,9.004-1.045C231.04,76.417,235.092,76.182,235.104,76.325z"/>
				</g>
			</g>
		</g>
		<g>
			<g>
				<path style="fill:#E0E0E0;" d="M143.368,185.039c-0.012-0.003-0.076-0.099-0.191-0.281c-0.133-0.217-0.295-0.48-0.492-0.799
					c-0.446-0.743-1.05-1.749-1.803-3.004c-1.544-2.618-3.697-6.267-6.268-10.627l0.308,0.082
					c-4.316,2.504-9.391,5.447-14.805,8.588c-0.023,0.078,0.18-0.671,0.095-0.352l0.002,0.004l0.005,0.008l0.009,0.016l0.018,0.032
					l0.037,0.064l0.073,0.127l0.146,0.254l0.292,0.506l0.58,1.005c0.385,0.667,0.766,1.329,1.143,1.983
					c0.753,1.309,1.49,2.589,2.206,3.835c1.427,2.491,2.775,4.843,4.015,7.006l-0.307-0.082c4.407-2.49,8.096-4.575,10.742-6.069
					c1.28-0.71,2.305-1.28,3.063-1.7c0.33-0.178,0.601-0.325,0.825-0.446C143.253,185.087,143.357,185.036,143.368,185.039
					c0.023,0.006-0.325,0.226-1,0.637c-0.732,0.44-1.723,1.035-2.96,1.777c-2.648,1.562-6.34,3.739-10.752,6.34l-0.193,0.114
					l-0.114-0.197c-1.253-2.154-2.616-4.498-4.06-6.98c-0.721-1.244-1.462-2.522-2.218-3.829c-0.378-0.654-0.76-1.314-1.146-1.981
					l-0.581-1.005l-0.292-0.506l-0.146-0.254l-0.073-0.127l-0.037-0.064l-0.018-0.032l-0.009-0.016l-0.005-0.008l-0.002-0.004
					c-0.086,0.317,0.114-0.436,0.095-0.359c5.427-3.119,10.514-6.042,14.84-8.527l0.197-0.113l0.111,0.196
					c2.519,4.458,4.628,8.19,6.141,10.866c0.7,1.261,1.261,2.272,1.675,3.019C143.2,184.681,143.392,185.046,143.368,185.039z"/>
			</g>
		</g>
		<g>
			<g>
				<path style="fill:#E0E0E0;" d="M470.905,281.326c-0.046,0.014-0.137-0.334-0.459-0.87c-0.316-0.526-0.932-1.248-1.957-1.653
					c-0.997-0.415-2.444-0.407-3.62,0.426c-1.177,0.79-1.93,2.459-1.497,4.061c0.404,1.611,1.878,2.699,3.291,2.814
					c1.434,0.152,2.7-0.548,3.367-1.397c0.696-0.854,0.88-1.785,0.9-2.398C470.948,281.684,470.858,281.336,470.905,281.326
					c0.021-0.008,0.182,0.324,0.228,0.981c0.043,0.643-0.089,1.66-0.813,2.627c-0.691,0.96-2.081,1.791-3.702,1.648
					c-1.595-0.098-3.29-1.323-3.75-3.16c-0.495-1.827,0.385-3.723,1.729-4.588c1.344-0.916,2.962-0.871,4.035-0.371
					c1.104,0.491,1.716,1.313,1.993,1.895C470.905,280.954,470.927,281.322,470.905,281.326z"/>
			</g>
		</g>
		<g>
			<g>
				<path style="fill:#E0E0E0;" d="M283.978,43.316c-0.046,0.014-0.137-0.334-0.459-0.87c-0.316-0.526-0.932-1.248-1.957-1.653
					c-0.997-0.415-2.443-0.407-3.62,0.426c-1.177,0.79-1.93,2.459-1.497,4.061c0.404,1.611,1.878,2.699,3.291,2.813
					c1.434,0.152,2.7-0.548,3.367-1.397c0.696-0.854,0.881-1.785,0.9-2.398C284.022,43.674,283.931,43.326,283.978,43.316
					c0.022-0.008,0.182,0.324,0.228,0.981c0.043,0.643-0.089,1.66-0.813,2.627c-0.691,0.96-2.081,1.791-3.702,1.648
					c-1.595-0.098-3.29-1.323-3.75-3.16c-0.495-1.827,0.385-3.723,1.729-4.588c1.344-0.916,2.962-0.871,4.034-0.371
					c1.104,0.491,1.716,1.313,1.993,1.895C283.979,42.944,284.001,43.312,283.978,43.316z"/>
			</g>
		</g>
		<g>
			<g>
				<path style="fill:#E0E0E0;" d="M98.022,157.767c-0.046,0.014-0.137-0.334-0.459-0.87c-0.316-0.526-0.932-1.248-1.957-1.653
					c-0.997-0.415-2.443-0.407-3.62,0.426c-1.177,0.79-1.93,2.459-1.497,4.061c0.404,1.611,1.878,2.699,3.291,2.813
					c1.434,0.152,2.7-0.548,3.367-1.397c0.696-0.854,0.881-1.785,0.9-2.398C98.065,158.126,97.974,157.778,98.022,157.767
					c0.021-0.008,0.182,0.324,0.228,0.981c0.043,0.643-0.089,1.66-0.813,2.627c-0.691,0.96-2.081,1.791-3.702,1.648
					c-1.595-0.099-3.29-1.323-3.75-3.16c-0.495-1.827,0.385-3.723,1.729-4.588c1.344-0.916,2.962-0.871,4.034-0.371
					c1.104,0.491,1.716,1.313,1.993,1.895C98.022,157.395,98.044,157.764,98.022,157.767z"/>
			</g>
		</g>
		<g>
			<g>
				<path style="fill:#E0E0E0;" d="M453.715,141.781c-0.06,0.02-0.214-0.733-0.875-1.906c-0.651-1.15-1.959-2.744-4.184-3.654
					c-1.1-0.441-2.409-0.716-3.801-0.598c-1.381,0.125-2.861,0.56-4.135,1.474c-0.648,0.436-1.238,0.992-1.745,1.631
					c-0.518,0.632-0.947,1.36-1.25,2.153c-0.644,1.574-0.758,3.408-0.32,5.154c0.471,1.738,1.467,3.284,2.798,4.343
					c0.652,0.544,1.382,0.97,2.143,1.268c0.755,0.31,1.541,0.507,2.32,0.571c1.559,0.174,3.063-0.169,4.329-0.735
					c1.273-0.577,2.28-1.457,3.024-2.379c1.496-1.881,1.859-3.911,1.865-5.232C453.886,142.525,453.653,141.793,453.715,141.781
					c0.017-0.005,0.073,0.175,0.163,0.525c0.096,0.347,0.186,0.877,0.207,1.564c0.056,1.351-0.254,3.466-1.778,5.461
					c-0.757,0.978-1.799,1.918-3.13,2.543c-1.323,0.614-2.905,0.991-4.557,0.822c-0.824-0.061-1.658-0.263-2.461-0.587
					c-0.807-0.312-1.584-0.76-2.279-1.333c-1.416-1.118-2.482-2.761-2.98-4.608c-0.467-1.854-0.339-3.807,0.35-5.475
					c0.326-0.84,0.785-1.61,1.337-2.276c0.542-0.674,1.171-1.258,1.86-1.714c1.358-0.954,2.923-1.398,4.377-1.509
					c1.466-0.105,2.835,0.206,3.973,0.689c2.304,0.996,3.608,2.69,4.22,3.896c0.317,0.61,0.498,1.116,0.583,1.466
					C453.693,141.593,453.732,141.777,453.715,141.781z"/>
			</g>
		</g>
		<g>
			<g>
				<path style="fill:#E0E0E0;" d="M426.782,268.374c0,0.028-0.182-0.298-0.525-0.927c-0.383-0.708-0.878-1.627-1.484-2.747
					c-1.276-2.368-3.113-5.781-5.193-9.795l-0.2-0.385l0.434,0.027c2.301,0.144,4.807,0.301,7.417,0.464
					c2.711,0.18,5.308,0.353,7.69,0.512l0.417,0.028l-0.228,0.35c-2.422,3.728-4.537,6.885-6.01,9.079
					c-0.699,1.036-1.271,1.885-1.714,2.542C426.992,268.102,426.782,268.402,426.782,268.374c0-0.028,0.212-0.383,0.598-1.014
					c0.425-0.69,0.975-1.583,1.646-2.673c1.402-2.269,3.35-5.415,5.676-9.053l0.189,0.378c-2.382-0.149-4.98-0.311-7.692-0.481
					c-2.61-0.173-5.115-0.34-7.415-0.493l0.235-0.358c1.992,3.908,3.646,7.286,4.844,9.728c0.574,1.173,1.045,2.135,1.408,2.877
					C426.601,267.965,426.782,268.346,426.782,268.374z"/>
			</g>
		</g>
		<g>
			<g>
				<path style="fill:#E0E0E0;" d="M357.049,79.539c0,0.028-0.182-0.298-0.525-0.927c-0.383-0.709-0.878-1.627-1.484-2.747
					c-1.276-2.368-3.113-5.781-5.193-9.795l-0.2-0.385l0.434,0.027c2.301,0.144,4.806,0.301,7.417,0.464
					c2.711,0.18,5.308,0.353,7.69,0.512l0.417,0.028l-0.228,0.35c-2.422,3.728-4.537,6.885-6.01,9.079
					c-0.699,1.036-1.272,1.885-1.714,2.541C357.26,79.267,357.049,79.567,357.049,79.539c0-0.028,0.212-0.383,0.597-1.014
					c0.425-0.69,0.975-1.583,1.646-2.673c1.403-2.269,3.35-5.415,5.676-9.054l0.19,0.378c-2.382-0.149-4.98-0.311-7.692-0.481
					c-2.61-0.173-5.115-0.34-7.415-0.493l0.234-0.358c1.992,3.908,3.647,7.286,4.844,9.728c0.574,1.174,1.045,2.135,1.408,2.877
					C356.868,79.13,357.05,79.511,357.049,79.539z"/>
			</g>
		</g>
		<g>
			<g>
				<path style="fill:#E0E0E0;" d="M236.099,302.579c-0.024,0.013,0.176-0.301,0.566-0.898c0.439-0.668,1.011-1.538,1.711-2.603
					c1.477-2.242,3.608-5.477,6.163-9.228l0.201-0.295l0.201,0.297c1.474,2.179,3.084,4.56,4.768,7.051
					c1.298,1.935,2.552,3.804,3.715,5.537l0.262,0.391l-0.469-0.001c-5.025-0.013-9.364-0.087-12.389-0.14
					c-1.442-0.027-2.621-0.049-3.52-0.065C236.498,302.607,236.073,302.593,236.099,302.579c0.026-0.014,0.502-0.027,1.352-0.044
					c0.919-0.017,2.126-0.039,3.602-0.065c3.055-0.053,7.275-0.127,12.163-0.14l-0.207,0.389c-1.168-1.729-2.428-3.594-3.732-5.525
					c-1.674-2.498-3.274-4.885-4.739-7.07l0.402,0.002c-2.505,3.623-4.694,6.684-6.272,8.894c-0.76,1.063-1.381,1.931-1.857,2.598
					C236.371,302.228,236.123,302.566,236.099,302.579z"/>
			</g>
		</g>
	</g>
</g>
<g id="Background_Simple" style="display:none;">
	<g style="display:inline;">
		<path style="fill:#EBEBEB;" d="M452.326,152.755l-1.361-4.038c-11.476-34.039-40.485-59.634-75.927-65.481
			c-4.556-0.752-9.166-1.179-13.793-1.26c-33.311-0.585-66.405,16.786-84.844,44.535c-10.844,16.319-17.454,36.459-33.501,47.704
			c-20.884,14.634-49.271,8.721-73.936,2.248c-24.665-6.473-53.088-12.317-73.908,2.408c-13.039,9.222-20.127,24.969-22.862,40.703
			c-7.241,41.658,13.341,85.123,46.067,111.896c32.726,26.774,75.828,38.402,118.092,39.644
			c59.207,1.74,120.161-16.838,163.509-57.204C443.208,273.544,466.364,210.3,452.326,152.755z"/>
	</g>
</g>
<g id="Character">
	<g>
		<g>
			<path style="fill:#455A64;" d="M392.33,432.616H267.107v-72.599c0-34.579,28.032-62.612,62.611-62.612h0
				c34.579,0,62.611,28.032,62.611,62.612V432.616z"/>
		</g>
		<g>
			<g>
				<g>
					<path style="fill:#FFBE9D;" d="M171.183,397.401l-6.302,4.454l-7.015,16.816c0,0,1.904,1.275,3.371-0.079
						c1.467-1.353,7.09-11.136,7.09-11.136l0.041,5.782c0.017,2.347,1.779,4.313,4.11,4.586l10.382,3.236l12.74-3.627l1.087-15.164
						L171.183,397.401z"/>
				</g>
			</g>
			<g>
				<g>
					<path style="fill:#263238;" d="M284.367,285.634c-3.116-0.903-4.647-4.473-4.928-7.706c-0.281-3.233,0.251-6.563-0.629-9.686
						c-0.625-2.219-1.948-4.258-2.117-6.557c-0.182-2.48,1.01-4.872,1.077-7.358c0.094-3.468-1.995-6.691-2.046-10.159
						c-0.071-4.798,0.79-12.727,5.581-12.459c4.791,0.269,12.494,8.678,11.887,13.438"/>
				</g>
				<g>
					<g>
						<g>
							<g>
								<g>
									<path style="fill:#FFBE9D;" d="M329.718,245.893l-0.095,4.794l-0.963,71.761c-0.112,8.331-7.364,14.87-16.283,14.682h0
										c-9.008-0.19-16.325-7.162-16.351-15.58c-0.027-8.835-0.217-18.136-0.217-18.136s-11.382-1.89-13.74-16.74
										c-1.173-7.385-0.802-19.493-0.178-29.391c0.561-8.909,8.419-15.558,17.296-14.619L329.718,245.893z"/>
								</g>
							</g>
							<g>
								<g>
									<g>
										<path style="fill:#263238;" d="M284.934,265.714c-0.036,1.006,0.787,1.865,1.836,1.922
											c1.048,0.056,1.927-0.711,1.963-1.717c0.036-1.006-0.787-1.866-1.834-1.923C285.85,263.94,284.97,264.709,284.934,265.714
											z"/>
									</g>
								</g>
								<g>
									<g>
										<g>
											<path style="fill:#263238;" d="M284.519,263.582c0.236,0.248,1.679-0.819,3.729-0.814
												c2.047-0.024,3.551,1.03,3.773,0.779c0.109-0.111-0.131-0.559-0.786-1.036c-0.644-0.475-1.744-0.936-3.021-0.931
												c-1.277,0.007-2.35,0.477-2.967,0.958C284.616,263.022,284.402,263.471,284.519,263.582z"/>
										</g>
									</g>
								</g>
							</g>
							<g>
								<g>
									<g>
										<path style="fill:#263238;" d="M305.446,265.714c-0.036,1.006,0.787,1.865,1.836,1.922
											c1.048,0.056,1.928-0.711,1.963-1.717c0.036-1.006-0.787-1.866-1.834-1.923
											C306.361,263.94,305.481,264.709,305.446,265.714z"/>
									</g>
								</g>
								<g>
									<g>
										<g>
											<path style="fill:#263238;" d="M304.663,263.965c0.236,0.248,1.681-0.819,3.729-0.814
												c2.047-0.024,3.551,1.03,3.774,0.779c0.109-0.111-0.129-0.559-0.787-1.036c-0.645-0.475-1.744-0.936-3.02-0.931
												c-1.277,0.007-2.35,0.477-2.968,0.958C304.762,263.404,304.547,263.853,304.663,263.965z"/>
										</g>
									</g>
								</g>
							</g>
							<g>
								<g>
									<g>
										<path style="fill:#263238;" d="M297.226,279.163c0.009-0.116-1.264-0.336-3.329-0.6c-0.523-0.054-1.018-0.158-1.107-0.515
											c-0.123-0.378,0.096-0.942,0.349-1.551c0.492-1.267,1.007-2.594,1.548-3.985c2.149-5.673,3.705-10.339,3.476-10.423
											c-0.229-0.085-2.157,4.445-4.306,10.119c-0.517,1.399-1.012,2.733-1.482,4.009c-0.198,0.595-0.539,1.269-0.272,2.054
											c0.141,0.391,0.525,0.675,0.86,0.765c0.336,0.102,0.63,0.108,0.889,0.124C295.929,279.27,297.218,279.279,297.226,279.163
											z"/>
									</g>
								</g>
							</g>
							<g>
								<g>
									<path style="fill:#EB996E;" d="M295.81,303.414c0,0,9.99,0.644,19.888-5.305c0,0-4.825,10.201-19.687,8.811L295.81,303.414
										z"/>
								</g>
							</g>
							<g>
								<g>
									<path style="fill:#EB996E;" d="M298.092,284.102c0.737-0.975,2.028-1.51,3.311-1.371c0.889,0.096,1.788,0.525,2.328,1.249
										c0.54,0.724,0.654,1.752,0.163,2.443c-0.553,0.778-1.709,0.957-2.687,0.679c-0.978-0.278-1.82-0.922-2.619-1.563
										c-0.221-0.177-0.447-0.363-0.586-0.606c-0.138-0.243-0.167-0.561,0.003-0.763"/>
								</g>
							</g>
							<g>
								<g>
									<g>
										<path style="fill:#263238;" d="M303.257,280.58c-0.333-0.019-0.338,2.205-2.242,3.784
											c-1.901,1.584-4.272,1.334-4.289,1.645c-0.031,0.139,0.528,0.432,1.529,0.459c0.982,0.034,2.415-0.282,3.581-1.248
											c1.162-0.968,1.661-2.26,1.737-3.173C303.657,281.119,303.409,280.568,303.257,280.58z"/>
									</g>
								</g>
							</g>
						</g>
					</g>
				</g>
				<g>
					<g>
						<path style="fill:#263238;" d="M304.134,255.933c0.202,0.557,2.248,0.293,4.652,0.583c2.41,0.241,4.349,0.945,4.668,0.446
							c0.142-0.239-0.196-0.763-0.979-1.303c-0.777-0.539-2.017-1.05-3.46-1.211c-1.443-0.158-2.765,0.071-3.641,0.428
							C304.491,255.231,304.047,255.669,304.134,255.933z"/>
					</g>
				</g>
				<g>
					<g>
						<path style="fill:#263238;" d="M285.272,257.651c0.361,0.465,1.772-0.018,3.47-0.04c1.697-0.082,3.135,0.313,3.466-0.174
							c0.145-0.237-0.081-0.703-0.71-1.143c-0.619-0.439-1.654-0.798-2.821-0.763c-1.166,0.037-2.177,0.459-2.768,0.936
							C285.31,256.944,285.113,257.424,285.272,257.651z"/>
					</g>
				</g>
				<g>
					<path style="fill:#263238;" d="M335.191,241.327c3.093-8.389,15.947-21.036,25.839-15.4
						c10.826,6.167,6.981,10.442,10.906,13.281c0.936,0.677,5.329-0.784,5.939,0.196c1.611,2.589,0.247,5.934-1.129,8.655
						c0.312-0.036,0.641-0.136,0.977-0.261c1.216-0.454,2.542,0.458,2.468,1.754c-0.189,3.278-1.422,6.773-3.347,9.193
						c0.677,0.158,1.384,0.177,2.069,0.065c0.953-0.156,1.723,0.772,1.409,1.686c-1.086,3.159-4.114,5.651-7.455,6.343
						c-4.132,0.857-8.489-0.644-11.862-3.18c-3.373-2.535-5.902-6.018-8.189-9.565c-1.327-2.058-2.64-4.212-4.618-5.657
						s-4.833-2.004-6.864-0.635"/>
				</g>
				<g>
					<g>
						<path style="fill:#E8505B;" d="M341.352,247.477c-0.043-0.024,0.003-0.154-0.018-0.384c-0.016-0.233-0.098-0.574-0.253-0.983
							c-0.295-0.822-0.882-1.906-1.608-3.045c-0.738-1.134-1.505-2.093-2.111-2.735c-0.603-0.645-1.049-0.968-1.007-1.039
							c0.028-0.055,0.566,0.17,1.262,0.773c0.696,0.597,1.535,1.552,2.293,2.718c0.747,1.172,1.3,2.316,1.523,3.219
							c0.117,0.447,0.153,0.835,0.104,1.104C341.491,247.375,341.367,247.496,341.352,247.477z"/>
					</g>
				</g>
				<g>
					<g>
						<path style="fill:#263238;" d="M366.46,270.503c0.01,0.015-0.113,0.107-0.36,0.268c-0.239,0.177-0.624,0.377-1.137,0.608
							c-1.025,0.447-2.665,0.835-4.683,0.618c-1.984-0.235-4.404-1.131-6.205-3.179c-0.893-1.019-1.547-2.304-1.972-3.695
							c-0.423-1.395-0.629-2.888-0.734-4.408c-0.186-3.044-0.069-5.932-0.61-8.474c-0.262-1.265-0.673-2.431-1.232-3.426
							c-0.567-0.981-1.299-1.779-2.075-2.359c-1.551-1.194-3.188-1.514-4.263-1.439c-1.089,0.092-1.641,0.414-1.662,0.355
							c-0.008-0.016,0.126-0.09,0.394-0.219c0.268-0.124,0.688-0.261,1.25-0.339c1.114-0.143,2.851,0.135,4.501,1.345
							c0.826,0.589,1.612,1.408,2.23,2.44c0.602,1.032,1.044,2.24,1.327,3.542c0.581,2.612,0.475,5.543,0.66,8.538
							c0.103,1.498,0.302,2.953,0.702,4.296c0.402,1.338,1.018,2.565,1.848,3.53c1.678,1.951,3.979,2.856,5.888,3.127
							c1.94,0.255,3.539-0.062,4.563-0.441C365.922,270.813,366.427,270.448,366.46,270.503z"/>
					</g>
				</g>
				<g>
					<g>
						<path style="fill:#263238;" d="M376.44,230.133c0.013-0.007,0.125,0.18,0.291,0.562c0.152,0.385,0.335,0.982,0.383,1.776
							c0.044,0.79-0.045,1.786-0.478,2.84c-0.418,1.046-1.197,2.174-2.444,2.925c-1.234,0.752-2.889,1.064-4.556,0.733
							c-1.65-0.315-3.369-1.38-4.268-3.086c-0.981-1.654-1.325-3.636-1.72-5.594c-0.392-1.946-0.775-4.063-2.096-5.646
							c-0.653-0.781-1.54-1.337-2.497-1.585c-0.955-0.272-1.968-0.223-2.927-0.051c-1.932,0.373-3.667,1.271-5.222,2.231
							c-3.141,1.92-5.729,4.02-7.753,5.931c-2.029,1.91-3.503,3.627-4.493,4.833c-0.457,0.577-0.827,1.044-1.117,1.41
							c-0.254,0.324-0.395,0.489-0.41,0.478c-0.015-0.01,0.098-0.196,0.325-0.54c0.223-0.348,0.578-0.841,1.042-1.473
							c0.944-1.249,2.385-3.014,4.397-4.974c2.007-1.96,4.596-4.111,7.756-6.074c1.571-0.984,3.345-1.923,5.379-2.324
							c1.011-0.185,2.101-0.244,3.156,0.052c1.056,0.271,2.04,0.887,2.757,1.746c1.447,1.747,1.81,3.943,2.202,5.888
							c0.386,1.965,0.722,3.895,1.634,5.451c0.836,1.608,2.389,2.578,3.941,2.904c1.56,0.328,3.117,0.056,4.281-0.627
							c1.176-0.68,1.939-1.73,2.364-2.721c0.439-0.998,0.556-1.954,0.544-2.719C376.866,230.927,376.371,230.152,376.44,230.133z"/>
					</g>
				</g>
				<g>
					<g>
						<path style="fill:#263238;" d="M338.876,226.595c0.043-0.036,0.587,0.523,1.094,1.659c0.508,1.12,0.91,2.87,0.585,4.765
							c-0.326,1.895-1.289,3.411-2.142,4.298c-0.858,0.902-1.557,1.247-1.586,1.199c-0.052-0.069,0.558-0.517,1.308-1.441
							c0.749-0.912,1.6-2.367,1.906-4.144c0.304-1.776-0.012-3.431-0.414-4.541C339.23,227.269,338.804,226.643,338.876,226.595z"/>
					</g>
				</g>
				<g>
					<g>
						<path style="fill:#263238;" d="M340.355,245.062c-2.248-5.72-7.453-10.24-13.482-11.432c-3.662-0.724-7.549-0.158-10.9,1.468
							c-1.278-0.72-2.32-1.817-3.377-2.851c-3.559-3.481-7.894-6.25-12.701-7.547c-4.807-1.297-10.097-1.049-14.575,1.127
							c-4.478,2.177-8.032,6.37-9.006,11.253c-0.974,4.882,0.851,10.327,4.842,13.304c3.991,2.977,10.019,3.069,13.855-0.104
							c-0.273,2.187,1.651,4.221,3.817,4.63c2.166,0.408,4.397-0.484,6.168-1.797c1.771-1.312,3.195-3.026,4.766-4.572
							c0.585-0.576,1.194-1.126,1.821-1.656c2.32,5.015,7.049,8.938,12.495,10.006c-1.722,1.87-1.568,4.794-0.862,7.236
							c0.706,2.442,1.865,4.827,1.81,7.368c-0.046,2.133-0.948,4.147-1.353,6.242c-0.564,2.914-0.133,6.012,1.204,8.662
							c0.517,1.026,1.143,2.458,1.711,3.456c1.012,1.777,1.012,1.777,2.48,2.23c3.058,0.944,8.344-10.161,9.706-14.573
							c1.135-3.677,1.581-10.278,2.902-13.892C344.047,257.137,342.604,250.782,340.355,245.062z"/>
					</g>
					<g>
						<g>
							<path style="fill:#455A64;" d="M342.418,258.957c0.015,0.01-0.055,0.123-0.204,0.332c-0.161,0.196-0.425,0.479-0.849,0.73
								c-0.417,0.255-0.99,0.483-1.689,0.557c-0.694,0.079-1.523-0.004-2.332-0.402c-0.398-0.206-0.786-0.488-1.112-0.863
								c-0.318-0.375-0.57-0.818-0.786-1.282c-0.439-0.924-0.718-1.979-1.36-2.837c-0.628-0.87-1.704-1.37-2.879-1.541
								c-1.18-0.189-2.448-0.134-3.759-0.156c-1.322-0.035-2.613-0.215-3.82-0.534c-1.205-0.333-2.321-0.795-3.34-1.316
								c-2.021-1.083-3.624-2.426-4.751-3.733c-1.133-1.304-1.86-2.511-2.259-3.385c-0.226-0.424-0.331-0.788-0.427-1.02
								c-0.087-0.237-0.124-0.364-0.108-0.371c0.117-0.068,0.765,2.027,3.067,4.529c1.136,1.247,2.724,2.525,4.699,3.554
								c0.997,0.494,2.083,0.933,3.251,1.249c1.173,0.302,2.414,0.472,3.698,0.506c1.29,0.023,2.58-0.033,3.832,0.173
								c1.24,0.182,2.48,0.759,3.181,1.758c0.705,0.977,0.961,2.057,1.369,2.945c0.198,0.448,0.423,0.861,0.702,1.204
								c0.281,0.336,0.619,0.596,0.973,0.793c1.475,0.764,2.962,0.415,3.751-0.004C342.101,259.411,342.37,258.91,342.418,258.957z"
								/>
						</g>
					</g>
					<g>
						<g>
							<path style="fill:#455A64;" d="M340.106,265.012c0.021,0.022-0.177,0.263-0.622,0.606c-0.443,0.34-1.151,0.771-2.122,1.064
								c-0.964,0.292-2.211,0.427-3.532,0.122c-1.313-0.293-2.688-1.011-3.746-2.171c-1.048-1.171-1.642-2.52-2.259-3.652
								c-0.596-1.151-1.257-2.092-1.981-2.73c-0.71-0.645-1.428-0.985-1.948-1.109c-0.521-0.132-0.831-0.121-0.832-0.167
								c-0.004-0.025,0.306-0.108,0.872-0.031c0.563,0.068,1.364,0.38,2.148,1.029c0.795,0.634,1.535,1.625,2.161,2.779
								c0.648,1.139,1.249,2.449,2.223,3.533c0.978,1.073,2.25,1.755,3.471,2.054c1.226,0.309,2.395,0.222,3.325-0.01
								C339.145,265.839,340.051,264.923,340.106,265.012z"/>
						</g>
					</g>
				</g>
				<g>
					<g>
						<path style="fill:#455A64;" d="M379.524,247.575c0.013,0.003-0.016,0.204-0.142,0.569c-0.129,0.363-0.397,0.883-0.902,1.426
							c-0.499,0.544-1.264,1.079-2.258,1.429c-0.988,0.346-2.243,0.481-3.537,0.139c-2.622-0.639-5.094-3.015-6.603-6.119
							c-1.6-3.064-2.466-6.833-4.776-9.99c-1.142-1.572-2.682-2.748-4.375-3.421c-1.696-0.663-3.49-0.882-5.163-0.752
							c-3.388,0.227-6.152,1.862-8.039,3.56c-1.915,1.715-3.065,3.494-3.794,4.729c-0.72,1.25-1.035,1.989-1.078,1.97
							c-0.017-0.007,0.049-0.197,0.19-0.553c0.142-0.355,0.371-0.872,0.711-1.516c0.682-1.277,1.798-3.113,3.723-4.903
							c1.892-1.768,4.732-3.503,8.25-3.766c1.736-0.147,3.605,0.066,5.388,0.756c1.777,0.695,3.421,1.949,4.605,3.584
							c2.395,3.286,3.238,7.078,4.787,10.084c1.453,3.045,3.798,5.329,6.269,5.98c1.216,0.346,2.396,0.245,3.351-0.059
							c0.957-0.309,1.705-0.794,2.205-1.295C379.351,248.411,379.456,247.539,379.524,247.575z"/>
					</g>
				</g>
				<g>
					<g>
						<path style="fill:#455A64;" d="M379.143,254.604c0.013,0.013-0.113,0.159-0.367,0.428c-0.264,0.257-0.655,0.64-1.224,1.055
							c-0.567,0.413-1.299,0.889-2.239,1.254c-0.933,0.366-2.09,0.634-3.373,0.508c-2.546-0.291-5.371-1.914-7.372-4.621
							c-1.013-1.348-1.748-2.97-2.34-4.674c-0.597-1.706-1.067-3.508-1.706-5.282c-0.644-1.767-1.453-3.442-2.59-4.78
							c-1.115-1.357-2.602-2.27-4.15-2.694c-3.143-0.853-6.176-0.045-8.338,1.064c-2.201,1.126-3.736,2.464-4.777,3.376
							c-0.479,0.438-0.87,0.796-1.183,1.083c-0.268,0.251-0.415,0.377-0.428,0.364c-0.013-0.012,0.109-0.163,0.353-0.438
							c0.247-0.273,0.617-0.67,1.119-1.157c1.007-0.962,2.516-2.359,4.747-3.554c2.192-1.175,5.32-2.069,8.634-1.2
							c1.634,0.43,3.237,1.404,4.411,2.826c1.201,1.402,2.034,3.132,2.691,4.932c0.651,1.808,1.116,3.609,1.698,5.293
							c0.577,1.682,1.282,3.254,2.245,4.557c1.902,2.624,4.619,4.219,7.024,4.538c1.208,0.142,2.319-0.086,3.232-0.415
							c0.919-0.327,1.65-0.766,2.225-1.147C378.579,255.14,379.107,254.565,379.143,254.604z"/>
					</g>
				</g>
			</g>
			<g>
				<g>
					<g>
						<path style="fill:#E8505B;" d="M271.212,403.427l1.684,4.227l-3.323,38.481h84.95l-3.793-11.502l10.562,0.535
							c16.29,0.825,29.596-13.727,26.429-29.727c-0.095-0.481-0.204-0.961-0.327-1.442c-5.273-20.593-12.44-48.267-14.938-56.441
							c-4.129-13.512-13.319-19.926-13.319-19.926c-0.052-0.006-0.099-0.006-0.151-0.012c-12.71-10.368-30.023-11.286-30.023-11.286
							l-6.373,4.272c-6.476,4.342-14.634,4.906-21.528,1.777c-2.544-1.155-4.457-3.37-5.25-6.049l0,0
							c-7.685,0.93-15.249,2.701-21.669,5.625c-7.953,3.623-13.974,10.481-16.795,18.752l-22.185,65.026l-37.78-5.11l-8.077,22.065
							l38.281,9.116c14.152,4.207,29.318-2.061,36.37-15.032L271.212,403.427 M341.872,408.625L341.872,408.625
							c0,0,3.629-13.911,5.841-21.403l5.36,21.053L341.872,408.625z"/>
					</g>
					<g>
						<g>
							<path style="fill:#263238;" d="M370.755,435.386c0,0-0.147,0.014-0.435,0.021c-0.304,0.005-0.729,0.012-1.283,0.02
								c-1.148,0.009-2.817,0.022-4.981,0.039c-4.367,0.016-10.713,0.04-18.707,0.07c-16.026,0.023-38.65,0.056-65.107,0.094
								l-0.254,0l0.011-0.255c0.335-7.934,0.688-16.264,1.051-24.867l0.01-0.238l0.238-0.008c7.787-0.245,15.905-0.5,24.191-0.761
								c16.789-0.52,32.884-1.018,47.577-1.473l-0.228,0.311c-1.782-6.494-3.227-12.811-4.631-18.844
								c-1.357-6.042-2.651-11.805-3.873-17.244c-0.597-2.722-1.177-5.363-1.738-7.918c-0.55-2.549-1.171-5.024-1.357-7.47
								c-0.219-2.437-0.178-4.796,0.031-7.034c0.216-2.235,0.558-4.369,1.156-6.331c1.168-3.927,3.236-7.138,5.666-9.238
								c2.422-2.138,5.13-3.072,7.31-3.405c2.209-0.328,3.945-0.032,5.046,0.283c0.551,0.173,0.964,0.318,1.229,0.449
								c0.269,0.118,0.402,0.187,0.402,0.187c-0.013,0.033-0.546-0.253-1.653-0.556c-1.101-0.287-2.822-0.553-5-0.204
								c-2.151,0.354-4.813,1.3-7.18,3.422c-2.378,2.087-4.397,5.263-5.532,9.148c-0.58,1.938-0.909,4.054-1.113,6.275
								c-0.198,2.221-0.228,4.56-0.002,6.971c0.192,2.416,0.815,4.861,1.376,7.42c0.569,2.553,1.156,5.193,1.762,7.913
								c1.235,5.435,2.543,11.193,3.914,17.231c1.415,6.026,2.872,12.344,4.657,18.814l0.083,0.301l-0.311,0.01
								c-14.693,0.465-30.788,0.973-47.576,1.504c-8.287,0.258-16.405,0.511-24.192,0.753l0.248-0.245
								c-0.372,8.602-0.733,16.932-1.077,24.866l-0.243-0.254c26.457,0.038,49.081,0.071,65.107,0.094
								c7.995,0.03,14.34,0.054,18.707,0.07c2.163,0.017,3.833,0.03,4.981,0.039c0.554,0.009,0.979,0.015,1.283,0.02
								C370.608,435.372,370.755,435.386,370.755,435.386z"/>
						</g>
					</g>
					<g>
						<g>
							<path style="fill:#263238;" d="M275.924,346.853c0.018,0,0.032,0.213,0.043,0.621c-0.005,0.407,0.052,1.013-0.014,1.788
								c-0.068,1.553-0.403,3.793-1.158,6.468c-0.745,2.679-1.949,5.764-3.318,9.154c-1.343,3.394-2.866,7.134-3.654,11.255
								c-0.831,4.116-0.604,8.169-0.063,11.756c0.579,3.595,1.469,6.769,2.301,9.401c0.836,2.633,1.591,4.741,2.105,6.2
								c0.238,0.689,0.431,1.247,0.583,1.684c0.128,0.387,0.188,0.593,0.171,0.6c-0.017,0.006-0.109-0.187-0.269-0.562
								c-0.175-0.429-0.399-0.975-0.675-1.65c-0.573-1.438-1.381-3.53-2.265-6.158c-0.88-2.627-1.813-5.81-2.425-9.439
								c-0.574-3.62-0.82-7.739,0.025-11.93c0.802-4.19,2.353-7.951,3.72-11.337c1.395-3.383,2.625-6.434,3.409-9.077
								c0.793-2.639,1.179-4.844,1.309-6.38C275.875,347.712,275.873,346.854,275.924,346.853z"/>
						</g>
					</g>
					<g>
						<g>
							<path style="fill:#263238;" d="M353.074,408.275c-0.011-0.057,0.659-0.246,1.774-0.236c1.109,0.01,2.66,0.253,4.215,0.971
								c1.557,0.711,2.754,1.79,3.348,2.749c0.611,0.954,0.698,1.667,0.651,1.674c-0.089,0.031-0.302-0.62-0.951-1.461
								c-0.634-0.849-1.784-1.81-3.266-2.489c-1.48-0.684-2.951-0.974-4.017-1.076C353.759,408.303,353.084,408.36,353.074,408.275z
								"/>
						</g>
					</g>
					<g>
						<g>
							<path style="fill:#263238;" d="M345.591,320.099c0.014-0.033,0.579,0.182,1.59,0.6c0.504,0.213,1.127,0.46,1.834,0.783
								c0.713,0.346,1.508,0.732,2.378,1.154c0.879,0.431,1.803,0.98,2.815,1.531c0.999,0.574,2.032,1.247,3.125,1.945
								c2.139,1.468,4.401,3.222,6.551,5.316c4.286,4.223,7.037,9.075,8.259,12.802c0.311,0.932,0.595,1.774,0.756,2.538
								c0.184,0.758,0.355,1.406,0.422,1.952c0.172,1.083,0.25,1.682,0.214,1.688c-0.035,0.005-0.181-0.583-0.413-1.647
								c-0.097-0.536-0.296-1.173-0.504-1.917c-0.186-0.751-0.491-1.576-0.821-2.489c-1.298-3.654-4.05-8.388-8.279-12.557
								c-2.123-2.068-4.351-3.814-6.455-5.29c-1.076-0.702-2.092-1.384-3.075-1.97c-0.996-0.563-1.903-1.127-2.767-1.577
								c-0.853-0.445-1.632-0.852-2.332-1.217c-0.678-0.325-1.274-0.612-1.791-0.86C346.116,320.41,345.578,320.132,345.591,320.099
								z"/>
						</g>
					</g>
					<g style="opacity:0.3;">
						<path d="M342.28,361.995c0,0-8.439,37.269-8.306,40.915c0.133,3.646,0.861,5.656,0.861,5.656l7.036,0.06l0.055-0.687
							l5.905-21.086L342.28,361.995z"/>
					</g>
				</g>
				<g>
					<g>
						<g>
							<path style="fill:#FFFFFF;" d="M295.905,360.123c0.028,0.054-0.9,0.412-2.316,1.458c-1.371,1.059-3.268,2.928-4.324,5.894
								c-0.523,1.467-0.829,3.183-0.694,5.013c0.117,1.819,0.612,3.768,1.676,5.532c1.033,1.773,2.564,3.385,4.502,4.503
								c0.961,0.565,2.014,1.02,3.134,1.295c1.11,0.314,2.287,0.42,3.468,0.404c1.188-0.006,2.342-0.249,3.449-0.56
								c1.092-0.369,2.132-0.842,3.067-1.456c1.86-1.231,3.343-2.894,4.276-4.722c0.94-1.828,1.386-3.781,1.411-5.61
								c0.015-1.831-0.347-3.535-0.948-4.973c-1.211-2.906-3.185-4.687-4.611-5.673c-1.465-0.976-2.409-1.288-2.383-1.344
								c0.007-0.017,0.238,0.063,0.675,0.232c0.435,0.173,1.061,0.472,1.82,0.943c1.483,0.949,3.547,2.725,4.839,5.698
								c0.641,1.471,1.038,3.226,1.041,5.12c-0.007,1.892-0.452,3.922-1.417,5.827c-0.957,1.905-2.49,3.642-4.423,4.929
								c-0.971,0.641-2.053,1.138-3.19,1.523c-1.153,0.327-2.356,0.579-3.592,0.587c-1.229,0.017-2.455-0.095-3.612-0.423
								c-1.166-0.289-2.263-0.765-3.261-1.356c-2.014-1.171-3.598-2.854-4.659-4.702c-1.092-1.839-1.59-3.866-1.692-5.748
								c-0.12-1.893,0.218-3.661,0.779-5.164c1.133-3.038,3.122-4.906,4.55-5.932c0.738-0.503,1.347-0.836,1.773-1.03
								C295.67,360.197,295.898,360.106,295.905,360.123z"/>
						</g>
					</g>
					<g>
						<g>
							<path style="fill:#FFFFFF;" d="M301.046,357.844c0.144,0,0.26,4.109,0.26,9.176c0,5.069-0.117,9.177-0.26,9.177
								c-0.144,0-0.26-4.108-0.26-9.177C300.786,361.953,300.903,357.844,301.046,357.844z"/>
						</g>
					</g>
				</g>
			</g>
			<g>
				<g>
					<g>
						<g>
							<path style="fill:#FFBE9D;" d="M268.807,409.974l-5.497-2.237c0,0-6.393-10.838-7.698-10.317
								c-1.305,0.521-1.504,3.827,1.1,8.824l-7.231-1.636c0,0-15.031,7.988-14.295,8.91c0.736,0.922,2.126,3.126,5.391,1.22
								c3.265-1.906,7.555-4.167,7.555-4.167l8.446,1.911l-10.644,1.957l-9.57,9.735c0,0,3.448,2.292,6.157-0.496l26.499,4.167
								l11.221,0.01l0.6-14.828L268.807,409.974z"/>
						</g>
					</g>
					<g>
						<g>
							<g>
								<path style="fill:#EB996E;" d="M242.521,423.678c0.116,0.067,0.559-0.734,1.445-1.815c0.447-0.531,1.057-1.094,1.824-1.579
									c0.738-0.468,1.718-0.708,2.787-0.896c4.334-0.76,7.824-1.555,7.783-1.779c-0.04-0.223-3.585,0.21-7.93,0.971
									c-1.089,0.193-2.192,0.473-3.055,1.071c-0.824,0.572-1.448,1.239-1.87,1.859
									C242.682,422.76,242.441,423.635,242.521,423.678z"/>
							</g>
						</g>
					</g>
					<g>
						<g>
							<g>
								<path style="fill:#EB996E;" d="M246.676,424.501c0.099-0.005,0.151-0.551,0.877-0.749c0.74-0.178,1.925-0.386,3.158-0.583
									c2.501-0.395,4.57-0.491,4.577-0.725c0.014-0.219-2.112-0.494-4.703-0.087c-1.303,0.214-2.406,0.486-3.258,0.859
									c-0.439,0.209-0.708,0.592-0.75,0.868C246.527,424.37,246.628,424.513,246.676,424.501z"/>
							</g>
						</g>
					</g>
				</g>
				<g>
					<g>
						<path style="fill:#EB996E;" d="M268.077,409.677c-0.028,0.073-1.025-0.258-2.646-0.749c-1.62-0.495-3.872-1.124-6.379-1.757
							c-2.423-0.609-4.614-1.16-6.43-1.616c-1.643-0.432-2.649-0.743-2.632-0.812c0.017-0.07,1.052,0.114,2.716,0.453
							c1.663,0.342,3.957,0.835,6.474,1.47c2.516,0.636,4.768,1.326,6.367,1.913C267.148,409.162,268.101,409.615,268.077,409.677z"
							/>
					</g>
				</g>
			</g>
		</g>
	</g>
</g>
<g id="Screens">
	<g>
		<g>
			<g>
				<path style="fill:#263238;" d="M360.305,130.744c-0.017-0.017-0.034-0.395-0.051-1.086c-0.015-0.749-0.035-1.739-0.059-2.964
					c-0.029-2.584-0.068-6.155-0.115-10.412l0.225,0.225c-4.22,0.01-9.175,0.022-14.461,0.035c-0.059,0.056,0.492-0.492,0.259-0.258
					v0.004v0.008v0.015v0.031v0.062v0.124v0.247l0,0.493l0,0.981c-0.001,0.651-0.001,1.296-0.002,1.934
					c-0.002,1.275-0.005,2.524-0.007,3.738c-0.009,2.424-0.018,4.715-0.026,6.822l-0.225-0.225
					c4.258,0.047,7.829,0.086,10.413,0.115c1.225,0.024,2.214,0.044,2.964,0.059C359.91,130.711,360.288,130.727,360.305,130.744
					c0.017,0.017-0.328,0.033-0.993,0.051c-0.736,0.015-1.709,0.035-2.913,0.059c-2.62,0.029-6.239,0.068-10.557,0.115l-0.224,0.002
					l-0.001-0.228c-0.008-2.108-0.017-4.398-0.026-6.822c-0.002-1.215-0.004-2.463-0.007-3.738c0-0.638-0.001-1.283-0.002-1.934
					l0-0.981l0-0.493v-0.247v-0.124v-0.062v-0.031v-0.015v-0.008v-0.004c-0.233,0.232,0.316-0.32,0.262-0.263
					c5.286,0.013,10.241,0.025,14.461,0.035l0.228,0.001l-0.002,0.225c-0.047,4.317-0.086,7.936-0.115,10.556
					c-0.024,1.204-0.044,2.177-0.059,2.913C360.339,130.416,360.322,130.761,360.305,130.744z"/>
			</g>
		</g>
		<g>
			<g>
				<path style="fill:#263238;" d="M360.305,116.428c0.102,0.102-3.046,3.405-7.029,7.376c-3.984,3.973-7.296,7.11-7.397,7.008
					c-0.102-0.102,3.045-3.404,7.029-7.377C356.892,119.464,360.204,116.326,360.305,116.428z"/>
			</g>
		</g>
		<g>
			<g>
				<path style="fill:#263238;" d="M360.077,130.655c-0.102,0.101-3.344-3.002-7.239-6.93c-3.897-3.929-6.972-7.196-6.87-7.297
					c0.102-0.101,3.343,3.001,7.24,6.93C357.103,127.286,360.179,130.553,360.077,130.655z"/>
			</g>
		</g>
	</g>
	<g>
		<g>
			<g>
				<path style="fill:#263238;" d="M445.926,214.889c-0.025-0.026,0.252-0.336,0.774-0.875c0.608-0.609,1.358-1.359,2.244-2.246
					c1.91-1.88,4.574-4.451,7.539-7.267l0.067-0.064l0.003,0.38c-2.987-2.764-5.668-5.284-7.59-7.126
					c-0.891-0.869-1.645-1.604-2.257-2.2c-0.525-0.528-0.804-0.832-0.779-0.858c0.024-0.026,0.349,0.228,0.916,0.71
					c0.642,0.563,1.434,1.258,2.37,2.079c1.986,1.773,4.707,4.25,7.694,7.013l0.204,0.189l-0.201,0.191l-0.067,0.064
					c-2.964,2.816-5.668,5.345-7.644,7.156c-0.931,0.839-1.719,1.55-2.358,2.126C446.275,214.654,445.951,214.915,445.926,214.889z"
					/>
			</g>
		</g>
		<g>
			<g>
				<path style="fill:#263238;" d="M422.873,194.633c0.025,0.026-0.252,0.336-0.774,0.875c-0.608,0.609-1.358,1.359-2.244,2.246
					c-1.91,1.88-4.574,4.451-7.539,7.267l-0.067,0.064l-0.003-0.38c2.987,2.764,5.668,5.283,7.59,7.125
					c0.891,0.869,1.646,1.604,2.257,2.201c0.525,0.528,0.804,0.832,0.779,0.858c-0.024,0.026-0.349-0.228-0.916-0.71
					c-0.642-0.564-1.434-1.258-2.369-2.079c-1.986-1.773-4.707-4.25-7.694-7.013l-0.204-0.189l0.201-0.191l0.067-0.064
					c2.964-2.816,5.668-5.345,7.644-7.156c0.931-0.839,1.719-1.55,2.358-2.126C422.524,194.867,422.848,194.606,422.873,194.633z"/>
			</g>
		</g>
		<g>
			<g>
				<path style="fill:#263238;" d="M428.79,219.66c-0.135-0.051,2.285-6.826,5.404-15.131c3.12-8.308,5.758-14.999,5.892-14.949
					c0.135,0.051-2.285,6.824-5.405,15.132C431.563,213.018,428.925,219.711,428.79,219.66z"/>
			</g>
		</g>
		<g>
			<g>
				<path style="fill:#263238;" d="M472.124,234.157c0,0-0.016-0.393-0.024-1.133c-0.006-0.755-0.014-1.843-0.025-3.259
					c-0.013-2.862-0.032-7.031-0.056-12.344c-0.027-10.627-0.066-25.814-0.112-44.125l0.217,0.217
					c-21.451,0.012-47.246,0.027-74.984,0.043h-0.006l0.26-0.26c-0.01,22.001-0.02,42.778-0.028,60.861l-0.232-0.232
					c22.264,0.048,40.981,0.088,54.149,0.117c6.585,0.026,11.78,0.047,15.348,0.062c1.77,0.012,3.134,0.021,4.074,0.028
					c0.453,0.006,0.801,0.01,1.053,0.013C471.997,234.148,472.124,234.157,472.124,234.157s-0.11,0.009-0.339,0.013
					c-0.246,0.003-0.586,0.008-1.028,0.013c-0.93,0.006-2.278,0.016-4.028,0.028c-3.556,0.014-8.733,0.035-15.296,0.062
					c-13.205,0.028-31.974,0.069-54.3,0.117l-0.233,0l0-0.233c-0.008-18.082-0.018-38.859-0.028-60.861l0-0.26h0.261h0.006
					c27.737,0.016,53.533,0.031,74.984,0.043l0.218,0l-0.001,0.217c-0.047,18.368-0.085,33.602-0.112,44.261
					c-0.024,5.292-0.043,9.444-0.056,12.295c-0.011,1.398-0.019,2.473-0.025,3.218C472.14,233.795,472.124,234.157,472.124,234.157z
					"/>
			</g>
		</g>
		<g>
			<g>
				<path style="fill:#263238;" d="M472.712,182.326c0,0.144-16.928,0.26-37.804,0.26c-20.883,0-37.807-0.117-37.807-0.26
					s16.924-0.26,37.807-0.26C455.785,182.066,472.712,182.182,472.712,182.326z"/>
			</g>
		</g>
		<g>
			<g>
				<path style="fill:#263238;" d="M403.254,177.885c0,0.558-0.452,1.01-1.01,1.01c-0.558,0-1.01-0.452-1.01-1.01
					s0.452-1.01,1.01-1.01C402.802,176.875,403.254,177.327,403.254,177.885z"/>
			</g>
			<g>
				<path style="fill:#263238;" d="M406.934,177.885c0,0.558-0.452,1.01-1.01,1.01c-0.558,0-1.01-0.452-1.01-1.01
					s0.452-1.01,1.01-1.01C406.482,176.875,406.934,177.327,406.934,177.885z"/>
			</g>
			<g>
				<path style="fill:#263238;" d="M410.615,177.885c0,0.558-0.452,1.01-1.01,1.01c-0.558,0-1.01-0.452-1.01-1.01
					s0.452-1.01,1.01-1.01C410.163,176.875,410.615,177.327,410.615,177.885z"/>
			</g>
		</g>
	</g>
	<g>
		<g>
			<g>
				<rect x="260.342" y="81.31" style="fill:#455A64;" width="59.253" height="42.237"/>
			</g>
			<g>
				<g>
					<path style="fill:#FFFFFF;" d="M320.059,87.577c0,0.144-13.375,0.26-29.87,0.26c-16.501,0-29.873-0.117-29.873-0.26
						s13.372-0.26,29.873-0.26C306.684,87.316,320.059,87.433,320.059,87.577z"/>
				</g>
			</g>
			<g>
				<g>
					<path style="fill:#FFFFFF;" d="M265.178,84.494c0,0.387-0.357,0.701-0.798,0.701c-0.441,0-0.798-0.314-0.798-0.701
						c0-0.387,0.357-0.701,0.798-0.701C264.821,83.794,265.178,84.107,265.178,84.494z"/>
				</g>
				<g>
					<path style="fill:#FFFFFF;" d="M268.086,84.494c0,0.387-0.357,0.701-0.798,0.701c-0.441,0-0.798-0.314-0.798-0.701
						c0-0.387,0.357-0.701,0.798-0.701C267.729,83.794,268.086,84.107,268.086,84.494z"/>
				</g>
				<g>
					<ellipse style="fill:#FFFFFF;" cx="270.196" cy="84.494" rx="0.798" ry="0.701"/>
				</g>
			</g>
		</g>
		<g>
			<path style="fill:#FFFFFF;" d="M282.257,104.423c0,2.535-1.837,4.066-4.865,4.066h-3.199v3.76h-1.259v-11.91h4.458
				C280.42,100.339,282.257,101.87,282.257,104.423z M280.998,104.423c0-1.906-1.259-2.995-3.641-2.995h-3.165v5.955h3.165
				C279.739,107.383,280.998,106.294,280.998,104.423z"/>
			<path style="fill:#FFFFFF;" d="M294.927,100.339v11.91h-1.242v-5.496h-7.452v5.496h-1.259v-11.91h1.259v5.309h7.452v-5.309
				H294.927z"/>
			<path style="fill:#FFFFFF;" d="M308.125,104.423c0,2.535-1.837,4.066-4.865,4.066h-3.199v3.76h-1.259v-11.91h4.458
				C306.288,100.339,308.125,101.87,308.125,104.423z M306.866,104.423c0-1.906-1.259-2.995-3.641-2.995h-3.165v5.955h3.165
				C305.607,107.383,306.866,106.294,306.866,104.423z"/>
		</g>
	</g>
	<g>
		<g>
			<path style="fill:#E8505B;" d="M200.04,171.973l0.783-0.859c0.96,1.439,2.323,2.223,3.914,2.223c2.349,0,3.51-1.339,3.51-4.167
				v-11.313h-6.516v-1.162h7.804v12.475c0,3.561-1.642,5.329-4.798,5.329C202.817,174.499,201.05,173.564,200.04,171.973z"/>
			<path style="fill:#E8505B;" d="M213.197,172.782l0.581-1.01c1.01,0.858,2.803,1.591,4.747,1.591c2.778,0,3.889-0.985,3.889-2.475
				c0-3.838-8.738-1.01-8.738-6.187c0-1.995,1.667-3.611,5.001-3.611c1.667,0,3.485,0.505,4.52,1.288l-0.581,1.01
				c-1.111-0.808-2.551-1.186-3.965-1.186c-2.576,0-3.712,1.061-3.712,2.475c0,3.965,8.738,1.162,8.738,6.187
				c0,2.146-1.843,3.611-5.202,3.611C216.303,174.473,214.232,173.741,213.197,172.782z"/>
		</g>
		<g>
			<g>
				<g>
					<path style="fill:#E8505B;" d="M235.201,183.757c0,0-0.016-0.282-0.025-0.803c-0.006-0.544-0.015-1.308-0.026-2.294
						c-0.014-2.022-0.033-4.945-0.058-8.657c-0.028-7.448-0.067-18.055-0.114-30.801l0.222,0.222
						c-13.254,0.011-29.009,0.024-45.867,0.038c-0.062,0.055,0.489-0.49,0.256-0.253v0.011v0.023v0.046v0.091v0.182v0.363l0,0.725
						l0,1.446c0,0.962,0,1.921,0,2.875c0,1.908-0.001,3.8-0.002,5.672c-0.002,3.744-0.004,7.411-0.006,10.983
						c-0.008,7.142-0.016,13.902-0.024,20.132l-0.228-0.228c13.675,0.048,25.11,0.087,33.154,0.115
						c4.01,0.026,7.174,0.046,9.362,0.06c1.068,0.012,1.898,0.02,2.485,0.027c0.268,0.005,0.479,0.01,0.644,0.013
						C235.121,183.748,235.197,183.752,235.201,183.757c0.004,0.004-0.063,0.009-0.201,0.013c-0.159,0.003-0.361,0.007-0.619,0.013
						c-0.577,0.006-1.391,0.015-2.441,0.027c-2.176,0.014-5.322,0.034-9.311,0.06c-8.079,0.028-19.565,0.068-33.3,0.116
						l-0.228,0.001l0-0.229c-0.007-6.231-0.015-12.99-0.024-20.132c-0.002-3.572-0.004-7.239-0.006-10.983
						c-0.001-1.872-0.001-3.763-0.002-5.672c0-0.954,0-1.912-0.001-2.875l0-1.446v-0.725v-0.363v-0.182v-0.091v-0.046v-0.023v-0.011
						c-0.233,0.229,0.316-0.326,0.265-0.267c16.859,0.014,32.614,0.027,45.867,0.038l0.223,0l-0.001,0.222
						c-0.047,12.805-0.086,23.461-0.114,30.943c-0.025,3.69-0.044,6.596-0.058,8.607c-0.011,0.967-0.02,1.718-0.026,2.251
						C235.218,183.508,235.201,183.757,235.201,183.757z"/>
				</g>
			</g>
			<g>
				<g>
					<path style="fill:#E8505B;" d="M235.104,147.515c0,0.144-10.254,0.26-22.899,0.26c-12.65,0-22.902-0.117-22.902-0.26
						c0-0.144,10.251-0.26,22.902-0.26C224.851,147.255,235.104,147.371,235.104,147.515z"/>
				</g>
			</g>
			<g>
				<g>
					<ellipse style="fill:#E8505B;" cx="193.398" cy="144.41" rx="0.804" ry="0.706"/>
				</g>
				<g>
					<path style="fill:#E8505B;" d="M197.132,144.41c0,0.39-0.36,0.706-0.804,0.706s-0.804-0.316-0.804-0.706
						c0-0.39,0.36-0.706,0.804-0.706S197.132,144.02,197.132,144.41z"/>
				</g>
				<g>
					<path style="fill:#E8505B;" d="M200.061,144.41c0,0.39-0.36,0.706-0.804,0.706c-0.444,0-0.804-0.316-0.804-0.706
						c0-0.39,0.36-0.706,0.804-0.706C199.702,143.704,200.061,144.02,200.061,144.41z"/>
				</g>
			</g>
		</g>
	</g>
	<g>
		<g>
			<path style="fill:#E8505B;" d="M402.471,101.575c0-4.312,3.276-7.502,7.672-7.502c2.092,0,3.973,0.676,5.262,2.05l-0.676,0.697
				c-1.268-1.247-2.811-1.754-4.544-1.754c-3.783,0-6.636,2.79-6.636,6.509c0,3.719,2.853,6.509,6.636,6.509
				c1.733,0,3.275-0.528,4.544-1.775l0.676,0.697c-1.289,1.373-3.17,2.071-5.262,2.071
				C405.748,109.077,402.471,105.886,402.471,101.575z"/>
			<path style="fill:#E8505B;" d="M417.434,107.07l0.485-0.803c1.015,1.057,2.896,1.86,4.882,1.86c2.959,0,4.27-1.289,4.27-2.896
				c0-4.438-9.235-1.775-9.235-7.228c0-2.092,1.606-3.931,5.241-3.931c1.627,0,3.317,0.507,4.459,1.331l-0.401,0.867
				c-1.226-0.845-2.727-1.247-4.058-1.247c-2.874,0-4.163,1.331-4.163,2.959c0,4.438,9.234,1.817,9.234,7.185
				c0,2.092-1.669,3.91-5.325,3.91C420.625,109.077,418.511,108.253,417.434,107.07z"/>
			<path style="fill:#E8505B;" d="M430.303,107.07l0.485-0.803c1.015,1.057,2.895,1.86,4.882,1.86c2.959,0,4.27-1.289,4.27-2.896
				c0-4.438-9.235-1.775-9.235-7.228c0-2.092,1.607-3.931,5.241-3.931c1.627,0,3.317,0.507,4.459,1.331l-0.401,0.867
				c-1.226-0.845-2.727-1.247-4.058-1.247c-2.874,0-4.163,1.331-4.163,2.959c0,4.438,9.234,1.817,9.234,7.185
				c0,2.092-1.669,3.91-5.325,3.91C433.494,109.077,431.38,108.253,430.303,107.07z"/>
		</g>
		<g>
			<g>
				<g>
					<path style="fill:#E8505B;" d="M453.611,120.808c0,0-0.015-0.273-0.022-0.784c-0.005-0.529-0.013-1.279-0.023-2.251
						c-0.012-1.985-0.03-4.871-0.053-8.56c-0.026-7.395-0.063-18.006-0.109-30.961l0.206,0.206
						c-18.037,0.015-40.982,0.034-65.887,0.054h-0.005l0.26-0.26c-0.007,15.113-0.014,29.502-0.021,42.556l-0.239-0.24
						c19.331,0.048,35.771,0.089,47.4,0.118c5.81,0.028,10.418,0.049,13.595,0.065c1.569,0.013,2.784,0.022,3.628,0.029
						c0.401,0.006,0.711,0.011,0.941,0.014C453.495,120.798,453.606,120.803,453.611,120.808c0.005,0.005-0.096,0.009-0.3,0.014
						c-0.224,0.003-0.525,0.008-0.914,0.014c-0.833,0.007-2.032,0.017-3.58,0.029c-3.164,0.015-7.753,0.037-13.54,0.065
						c-11.667,0.029-28.161,0.07-47.557,0.118l-0.24,0l0-0.24c-0.006-13.053-0.013-27.443-0.021-42.556l0-0.26h0.261h0.005
						c24.905,0.021,47.849,0.039,65.887,0.054l0.207,0l-0.001,0.206c-0.046,13.008-0.083,23.664-0.109,31.089
						c-0.023,3.669-0.04,6.539-0.052,8.513c-0.01,0.955-0.018,1.693-0.023,2.213C453.625,120.563,453.611,120.808,453.611,120.808z"
						/>
				</g>
			</g>
			<g>
				<g>
					<path style="fill:#E8505B;" d="M453.611,84.566c0,0.144-14.758,0.26-32.958,0.26c-18.206,0-32.961-0.117-32.961-0.26
						c0-0.144,14.754-0.26,32.961-0.26C438.853,84.306,453.611,84.422,453.611,84.566z"/>
				</g>
			</g>
			<g>
				<g>
					<path style="fill:#E8505B;" d="M392.591,81.461c0,0.39-0.36,0.706-0.804,0.706s-0.804-0.316-0.804-0.706
						s0.36-0.706,0.804-0.706S392.591,81.071,392.591,81.461z"/>
				</g>
				<g>
					<path style="fill:#E8505B;" d="M395.521,81.461c0,0.39-0.36,0.706-0.804,0.706c-0.444,0-0.804-0.316-0.804-0.706
						s0.36-0.706,0.804-0.706C395.161,80.755,395.521,81.071,395.521,81.461z"/>
				</g>
				<g>
					<path style="fill:#E8505B;" d="M398.451,81.461c0,0.39-0.36,0.706-0.804,0.706c-0.444,0-0.804-0.316-0.804-0.706
						s0.36-0.706,0.804-0.706C398.091,80.755,398.451,81.071,398.451,81.461z"/>
				</g>
			</g>
		</g>
	</g>
	<g>
		<g>
			<rect x="285.902" y="142.856" style="fill:#E8505B;" width="82.744" height="58.983"/>
		</g>
		<g>
			<path style="fill:#FFFFFF;" d="M313.808,170.245v11.707h-2.71v-4.8h-5.317v4.8h-2.71v-11.707h2.71v4.616h5.317v-4.616H313.808z"
				/>
			<path style="fill:#FFFFFF;" d="M319.009,172.452h-3.746v-2.208h10.202v2.208h-3.746v9.499h-2.71V172.452z"/>
			<path style="fill:#FFFFFF;" d="M326.921,170.245h2.71v9.499h5.869v2.208h-8.579V170.245z"/>
			<path style="fill:#FFFFFF;" d="M347.675,181.952l-0.017-7.024l-3.445,5.786h-1.221l-3.429-5.636v6.874h-2.542v-11.707h2.241
				l4.382,7.275l4.314-7.275h2.225l0.033,11.707H347.675z"/>
		</g>
		<g>
			<g>
				<g>
					<path style="fill:#FFFFFF;" d="M369.295,151.608c0,0.144-18.678,0.26-41.713,0.26c-23.043,0-41.717-0.117-41.717-0.26
						c0-0.144,18.674-0.26,41.717-0.26C350.617,151.347,369.295,151.464,369.295,151.608z"/>
				</g>
			</g>
			<g>
				<g>
					<path style="fill:#FFFFFF;" d="M292.655,147.303c0,0.54-0.499,0.979-1.114,0.979c-0.615,0-1.114-0.438-1.114-0.979
						s0.499-0.979,1.114-0.979C292.156,146.325,292.655,146.763,292.655,147.303z"/>
				</g>
				<g>
					<path style="fill:#FFFFFF;" d="M296.716,147.303c0,0.54-0.499,0.979-1.114,0.979c-0.615,0-1.114-0.438-1.114-0.979
						s0.499-0.979,1.114-0.979C296.217,146.325,296.716,146.763,296.716,147.303z"/>
				</g>
				<g>
					<path style="fill:#FFFFFF;" d="M300.777,147.303c0,0.54-0.499,0.979-1.114,0.979c-0.615,0-1.114-0.438-1.114-0.979
						s0.499-0.979,1.114-0.979C300.278,146.325,300.777,146.763,300.777,147.303z"/>
				</g>
			</g>
		</g>
	</g>
	<g>
		<g>
			<g>
				<g>
					<path style="fill:#263238;" d="M115.367,258.99c-0.004-0.004-0.008-0.07-0.013-0.196c-0.003-0.146-0.007-0.327-0.013-0.555
						c-0.006-0.511-0.015-1.224-0.026-2.139c-0.014-1.889-0.034-4.61-0.059-8.061c-0.028-6.932-0.067-16.787-0.115-28.6l0.225,0.225
						c-11.502,0.01-25.07,0.022-39.548,0.035c-0.062,0.055,0.49-0.49,0.257-0.254v0.011v0.021v0.042v0.085v0.17v0.339v0.677l0,1.35
						c0,0.898,0,1.792,0,2.682c-0.001,1.78-0.001,3.543-0.002,5.288c-0.002,3.489-0.005,6.903-0.007,10.224
						c-0.009,6.64-0.018,12.907-0.026,18.657l-0.225-0.225c11.815,0.047,21.67,0.087,28.601,0.115
						c3.45,0.025,6.172,0.045,8.06,0.059c0.915,0.011,1.628,0.02,2.139,0.026c0.228,0.005,0.409,0.009,0.555,0.013
						C115.297,258.982,115.363,258.986,115.367,258.99c0.004,0.004-0.053,0.008-0.171,0.013c-0.139,0.003-0.312,0.007-0.531,0.013
						c-0.501,0.006-1.199,0.015-2.095,0.026c-1.877,0.014-4.581,0.034-8.01,0.059c-6.966,0.028-16.871,0.067-28.745,0.115
						l-0.225,0.001l0-0.226c-0.008-5.75-0.017-12.017-0.026-18.657c-0.002-3.321-0.005-6.735-0.007-10.224
						c-0.001-1.745-0.001-3.508-0.002-5.288c0-0.89,0-1.784-0.001-2.682l0-1.35v-0.677v-0.339v-0.17v-0.085v-0.042v-0.021v-0.011
						c-0.233,0.229,0.316-0.325,0.264-0.267c14.478,0.013,28.046,0.025,39.548,0.035l0.226,0l-0.001,0.225
						c-0.047,11.872-0.087,21.777-0.115,28.744c-0.025,3.429-0.045,6.133-0.059,8.01c-0.011,0.897-0.02,1.595-0.026,2.096
						c-0.005,0.218-0.009,0.392-0.013,0.531C115.376,258.937,115.372,258.995,115.367,258.99z"/>
				</g>
			</g>
			<g>
				<g>
					<path style="fill:#263238;" d="M115.367,219.84c0.102,0.102-8.648,8.991-19.54,19.852
						c-10.896,10.865-19.808,19.587-19.91,19.486c-0.101-0.102,8.646-8.989,19.542-19.854
						C106.352,228.463,115.266,219.739,115.367,219.84z"/>
				</g>
			</g>
			<g>
				<g>
					<path style="fill:#263238;" d="M114.742,258.746c-0.102,0.101-8.823-8.527-19.475-19.269
						c-10.657-10.745-19.21-19.536-19.108-19.637c0.102-0.101,8.821,8.525,19.477,19.27
						C106.289,249.853,114.844,258.645,114.742,258.746z"/>
				</g>
			</g>
		</g>
		<g>
			<g>
				<path style="fill:#263238;" d="M197.815,230.051c0,0.144-15.713,0.26-35.091,0.26c-19.385,0-35.094-0.117-35.094-0.26
					c0-0.144,15.709-0.26,35.094-0.26C182.102,229.79,197.815,229.907,197.815,230.051z"/>
			</g>
		</g>
		<g>
			<g>
				<path style="fill:#263238;" d="M197.815,236.356c0,0.144-15.713,0.26-35.091,0.26c-19.385,0-35.094-0.117-35.094-0.26
					c0-0.144,15.709-0.26,35.094-0.26C182.102,236.096,197.815,236.213,197.815,236.356z"/>
			</g>
		</g>
		<g>
			<g>
				<path style="fill:#263238;" d="M197.815,242.662c0,0.144-15.713,0.26-35.091,0.26c-19.385,0-35.094-0.117-35.094-0.26
					c0-0.144,15.709-0.26,35.094-0.26C182.102,242.402,197.815,242.519,197.815,242.662z"/>
			</g>
		</g>
		<g>
			<g>
				<path style="fill:#263238;" d="M197.815,248.968c0,0.144-15.713,0.26-35.091,0.26c-19.385,0-35.094-0.117-35.094-0.26
					c0-0.144,15.709-0.26,35.094-0.26C182.102,248.708,197.815,248.824,197.815,248.968z"/>
			</g>
		</g>
		<g>
			<g>
				<path style="fill:#263238;" d="M159.375,223.745c0,0.144-7.221,0.26-16.126,0.26c-8.908,0-16.127-0.117-16.127-0.26
					s7.219-0.26,16.127-0.26C152.155,223.484,159.375,223.601,159.375,223.745z"/>
			</g>
		</g>
		<g>
			<g>
				<path style="fill:#263238;" d="M63.362,207.51c0,0,0.249-0.009,0.753-0.013c0.516-0.002,1.267-0.005,2.252-0.009
					c2.002-0.001,4.946-0.004,8.764-0.007c7.677,0.005,18.859,0.014,32.928,0.024c28.207,0.05,67.98,0.12,114.3,0.201l0.247,0v0.247
					c0.004,19.497,0.008,40.639,0.013,62.573l0,0.26h-0.26c-2.97,0-6.169,0-9.383,0c-1.639,0-3.273,0-4.903,0l0.26-0.26
					c0,4.359,0,8.685-0.001,12.971v0.627l-0.443-0.443c-4.388-4.389-8.716-8.718-12.969-12.973l0.182,0.075
					c-51.836-0.031-97.796-0.059-131.74-0.079l-0.179,0l0-0.178c0.041-19.639,0.074-35.408,0.097-46.279
					c0.019-5.408,0.034-9.596,0.044-12.444c0.008-1.406,0.015-2.48,0.019-3.213C63.349,207.869,63.362,207.51,63.362,207.51
					s0.012,0.383,0.018,1.116c0.004,0.741,0.011,1.825,0.019,3.245c0.01,2.857,0.025,7.058,0.044,12.484
					c0.023,10.846,0.056,26.578,0.097,46.172l-0.178-0.178c33.944-0.02,79.905-0.048,131.74-0.079l0.107,0l0.076,0.076
					c4.254,4.253,8.584,8.582,12.973,12.969l-0.443,0.184c0-4.286-0.001-8.612-0.001-12.971v-0.26h0.26c1.629,0,3.264,0,4.903,0
					c3.214,0,6.412,0,9.383,0l-0.26,0.26c0.005-21.934,0.009-43.076,0.013-62.573l0.247,0.247
					c-46.252-0.177-85.967-0.329-114.133-0.436c-14.094-0.068-25.295-0.123-32.984-0.16c-3.84-0.024-6.802-0.043-8.815-0.056
					c-0.997-0.009-1.758-0.017-2.281-0.021C63.631,207.521,63.362,207.51,63.362,207.51z"/>
			</g>
		</g>
	</g>
</g>
<g id="Desk">
	<g>
		<g>
			<rect x="381.771" y="410.839" style="fill:#455A64;" width="86.795" height="21.777"/>
		</g>
		<g>
			<rect x="403.216" y="417.949" style="fill:#263238;" width="52.9" height="7.557"/>
		</g>
		<g>
			<path style="fill:#263238;" d="M396.548,422.172c0,2.332-1.891,4.223-4.223,4.223c-2.332,0-4.223-1.891-4.223-4.223
				c0-2.332,1.891-4.223,4.223-4.223C394.657,417.949,396.548,419.839,396.548,422.172z"/>
		</g>
		<g>
			<rect x="390.921" y="398.969" style="fill:#263238;" width="69.326" height="11.78"/>
		</g>
		<g>
			<g>
				<rect x="390.921" y="377.202" style="fill:#E8505B;" width="86.795" height="21.777"/>
			</g>
			<g>
				<path style="fill:#FFFFFF;" d="M417.347,387.542c0-3.074,2.36-5.274,5.537-5.274c1.764,0,3.235,0.641,4.197,1.807l-1.516,1.398
					c-0.685-0.786-1.545-1.194-2.565-1.194c-1.909,0-3.265,1.341-3.265,3.264c0,1.924,1.355,3.265,3.265,3.265
					c1.02,0,1.88-0.408,2.565-1.21l1.516,1.399c-0.962,1.181-2.434,1.821-4.212,1.821
					C419.708,392.818,417.347,390.617,417.347,387.542z"/>
				<path style="fill:#FFFFFF;" d="M439.429,388.432h-2.535v2.477h-1.88v-2.477h-2.521v-1.778h2.521v-2.478h1.88v2.478h2.535
					V388.432z"/>
				<path style="fill:#FFFFFF;" d="M448.249,388.432h-2.535v2.477h-1.88v-2.477h-2.522v-1.778h2.522v-2.478h1.88v2.478h2.535
					V388.432z"/>
			</g>
			<g>
				<g>
					<path style="fill:#FAFAFA;" d="M403.819,398.371c-0.144,0-0.26-4.743-0.26-10.593c0-5.852,0.117-10.594,0.26-10.594
						c0.144,0,0.26,4.742,0.26,10.594C404.079,393.627,403.963,398.371,403.819,398.371z"/>
				</g>
			</g>
			<g>
				<g>
					<path style="fill:#FAFAFA;" d="M400.043,398.371c-0.144,0-0.26-4.743-0.26-10.593c0-5.852,0.117-10.594,0.26-10.594
						c0.144,0,0.26,4.742,0.26,10.594C400.303,393.627,400.186,398.371,400.043,398.371z"/>
				</g>
			</g>
			<g>
				<g>
					<path style="fill:#FAFAFA;" d="M463.896,398.371c-0.144,0-0.26-4.743-0.26-10.593c0-5.852,0.117-10.594,0.26-10.594
						c0.144,0,0.26,4.742,0.26,10.594C464.156,393.627,464.04,398.371,463.896,398.371z"/>
				</g>
			</g>
			<g>
				<g>
					<path style="fill:#FAFAFA;" d="M460.12,398.371c-0.144,0-0.26-4.743-0.26-10.593c0-5.852,0.117-10.594,0.26-10.594
						c0.144,0,0.26,4.742,0.26,10.594C460.38,393.627,460.264,398.371,460.12,398.371z"/>
				</g>
			</g>
		</g>
		<g>
			<path style="fill:#EBEBEB;" d="M419.601,404.723c0-1.38,1.002-2.347,2.382-2.347c0.782,0,1.441,0.308,1.811,0.914l-0.466,0.316
				c-0.316-0.466-0.809-0.686-1.345-0.686c-1.011,0-1.749,0.721-1.749,1.802c0,1.09,0.738,1.802,1.749,1.802
				c0.536,0,1.028-0.211,1.345-0.677l0.466,0.316c-0.369,0.598-1.028,0.914-1.811,0.914
				C420.603,407.078,419.601,406.103,419.601,404.723z"/>
			<path style="fill:#EBEBEB;" d="M424.375,406.507l0.281-0.492c0.369,0.29,0.993,0.518,1.644,0.518
				c0.879,0,1.239-0.299,1.239-0.756c0-1.204-2.997-0.255-2.997-2.083c0-0.756,0.65-1.318,1.828-1.318
				c0.598,0,1.248,0.167,1.635,0.431l-0.272,0.501c-0.404-0.281-0.888-0.395-1.362-0.395c-0.835,0-1.204,0.325-1.204,0.765
				c0,1.248,2.997,0.308,2.997,2.083c0,0.8-0.703,1.318-1.907,1.318C425.491,407.078,424.753,406.832,424.375,406.507z"/>
			<path style="fill:#EBEBEB;" d="M428.674,406.507l0.281-0.492c0.369,0.29,0.993,0.518,1.644,0.518
				c0.879,0,1.239-0.299,1.239-0.756c0-1.204-2.997-0.255-2.997-2.083c0-0.756,0.65-1.318,1.828-1.318
				c0.598,0,1.248,0.167,1.635,0.431l-0.272,0.501c-0.404-0.281-0.888-0.395-1.362-0.395c-0.835,0-1.204,0.325-1.204,0.765
				c0,1.248,2.997,0.308,2.997,2.083c0,0.8-0.703,1.318-1.907,1.318C429.791,407.078,429.052,406.832,428.674,406.507z"/>
		</g>
		<g>
			<circle style="fill:#EBEBEB;" cx="401.118" cy="404.859" r="2.098"/>
		</g>
		<g>
			<circle style="fill:#EBEBEB;" cx="453.749" cy="404.859" r="2.098"/>
		</g>
	</g>
	<g>
		<g>
			<g>
				<g>
					<path style="fill:#263238;" d="M189.478,409.712H43.649c-6.625,0-11.996-5.371-11.996-11.996v-91.719
						c0-6.625,5.371-11.996,11.996-11.996h145.829c6.625,0,11.996,5.371,11.996,11.996v91.719
						C201.473,404.342,196.103,409.712,189.478,409.712z"/>
				</g>
				<g>
					<polygon style="fill:#455A64;" points="88.177,382.206 78.783,435.441 122.903,435.441 130.891,381.119 					"/>
				</g>
				<g>
					<path style="fill:#455A64;" d="M182.736,409.712H36.908c-6.625,0-11.996-5.371-11.996-11.996v-91.719
						c0-6.625,5.371-11.996,11.996-11.996h145.829c6.625,0,11.996,5.371,11.996,11.996v91.719
						C194.732,404.342,189.361,409.712,182.736,409.712z"/>
				</g>
				<g>
					<polygon style="fill:#263238;" points="126.686,409.712 130.891,381.119 132.064,409.712 					"/>
				</g>
				<g>
					<g>
						<path style="fill:#263238;" d="M88.417,379.25c0.142,0.024-0.926,7.108-2.385,15.821c-1.459,8.716-2.757,15.76-2.899,15.737
							c-0.142-0.024,0.926-7.107,2.385-15.823C86.978,386.272,88.276,379.226,88.417,379.25z"/>
					</g>
				</g>
				<g>
					<path style="fill:#FAFAFA;" d="M115.387,347.85c0,3.073-2.492,5.565-5.565,5.565c-3.074,0-5.565-2.492-5.565-5.565
						c0-3.074,2.492-5.565,5.565-5.565C112.895,342.285,115.387,344.776,115.387,347.85z"/>
					<path style="fill:#263238;" d="M109.822,353.44c-3.083,0-5.59-2.508-5.59-5.59c0-3.083,2.507-5.591,5.59-5.591
						c3.082,0,5.59,2.508,5.59,5.591C115.412,350.932,112.904,353.44,109.822,353.44z M109.822,342.31
						c-3.055,0-5.54,2.485-5.54,5.54c0,3.055,2.485,5.539,5.54,5.539c3.055,0,5.54-2.484,5.54-5.539
						C115.362,344.795,112.877,342.31,109.822,342.31z"/>
				</g>
			</g>
			<g>
				<g>
					<path style="fill:#263238;" d="M67.409,328.438c0,0,2.616-3.7,1.727-7.804c0.011,0.002,0.023,0.005,0.034,0.007
						c0,0-0.012-1.327-1.995-3.943c-0.659-0.87-1.46-1.641-2.224-2.28c-0.692-0.602-1.451-1.156-2.268-1.646
						c-0.272-0.17-0.44-0.264-0.44-0.264c0,0.002,0,0.005,0,0.007c-2.69-1.493-5.98-2.247-9.683-1.451
						c-2.5,0.537-4.81,1.794-6.555,3.663c-0.57,0.611-1.115,1.312-1.511,2.073c-1.19,2.285-3.13,6.453-1.458,11.599
						c0.077,0.262,0.167,0.518,0.266,0.768c0.013,0.032,0.027,0.064,0.04,0.096c0.035,0.086,0.068,0.175,0.106,0.259
						c0.03,0.066,0.057,0.118,0.087,0.182c0.088,0.203,0.167,0.403,0.267,0.609c0.261,0.536,0.536,1.007,0.817,1.449
						c0.679,1.114,1.114,1.509,1.114,1.509c0.001-0.003,0.002-0.006,0.003-0.009c2.431,2.73,5.19,2.858,6.844,2.693
						c0.575,0.865,1.383,1.774,2.334,1.988c1.923,0.433,5.067-0.53,7.343-1.757c2.276-1.227,5.554-3.543,5.505-5.538
						C67.744,329.902,67.6,329.126,67.409,328.438L67.409,328.438z"/>
				</g>
				<g>
					<g>
						<g>
							<path style="fill:#E8505B;" d="M50.45,311.065c-2.5,0.537-4.809,1.794-6.555,3.663c-0.57,0.611-1.115,1.312-1.511,2.073
								c-1.335,2.563-3.626,7.489-0.692,13.513c2.934,6.024,7.264,5.863,9.229,5.589c1.965-0.274,14.379-7.464,14.379-7.464
								s3.805-5.353,0.711-10.325C63.357,313.848,57.682,309.511,50.45,311.065z"/>
						</g>
						<g>
							<path style="fill:#F5F5F5;" d="M49.539,334.234c0,0,1.343,3.277,3.267,3.71c1.924,0.433,5.067-0.53,7.343-1.757
								c2.276-1.226,5.554-3.543,5.505-5.538c-0.049-1.995-0.996-4.201-1.335-4.38c-0.338-0.18-4.581-1.334-9.179,1.446
								C50.541,330.495,49.539,334.234,49.539,334.234z"/>
						</g>
						<g style="opacity:0.4;">
							<path style="fill:#FFFFFF;" d="M56.259,315.246c1.731,3.211,0.53,7.218-2.681,8.948c-3.211,1.731-7.218,0.53-8.948-2.681
								c-1.731-3.212-0.53-7.218,2.681-8.949C50.522,310.835,54.528,312.035,56.259,315.246z"/>
						</g>
						<g style="opacity:0.4;">
							<g>
								<path style="fill:#FFFFFF;" d="M43.624,333.272c0.802-1.814,1.056-4.005,0.439-5.89c-0.617-1.885-1.95-3.526-3.668-4.516
									c0,0-0.3,3.927,0.944,6.658C42.659,332.425,43.624,333.272,43.624,333.272z"/>
							</g>
						</g>
						<g style="opacity:0.4;">
							<g>
								<path style="fill:#FFFFFF;" d="M67.061,320.642c-1.956-0.328-3.926-1.321-5.161-2.872c-1.235-1.552-1.884-3.281-1.766-5.26
									c0,0,3.047,1.704,4.932,4.19C67.048,319.315,67.061,320.642,67.061,320.642z"/>
							</g>
						</g>
						<g>
							<path style="fill:#E0E0E0;" d="M49.562,334.187c0.045,0.265,0.093,0.539,0.24,0.764s0.42,0.392,0.682,0.329
								c0.281-0.067,0.443-0.354,0.578-0.61c1.372-2.6,3.508-4.79,6.073-6.227c1.041-0.584,2.181-1.052,3.374-1.094
								c1.077-0.038,2.137,0.274,3.213,0.328c0.274,0.014,0.561,0.008,0.806-0.115s0.23-0.398,0.175-0.667
								c-0.066-0.321-0.272-0.581-0.383-0.627c-2.835-1.171-6.357-0.312-9.013,1.222C52.649,329.026,50.918,331.435,49.562,334.187"
								/>
						</g>
					</g>
				</g>
			</g>
		</g>
		<g>
			<rect x="162.266" y="425.808" style="fill:#455A64;" width="96.606" height="6.807"/>
		</g>
		<g>
			<g>
				<path style="fill:#455A64;" d="M151.712,432.616h-20.304v-1.666c0-4.284,3.473-7.757,7.757-7.757h4.79
					c4.284,0,7.757,3.473,7.757,7.757V432.616z"/>
			</g>
			<g>
				<g>
					<path style="fill:#263238;" d="M151.412,430.498c0,0.144-4.382,0.26-9.785,0.26c-5.405,0-9.786-0.117-9.786-0.26
						s4.381-0.26,9.786-0.26C147.03,430.237,151.412,430.354,151.412,430.498z"/>
				</g>
			</g>
			<g>
				<g>
					<path style="fill:#263238;" d="M141.782,423.114c0.144-0.003,0.218,1.603,0.164,3.586c-0.053,1.984-0.213,3.583-0.356,3.573
						c-0.143-0.01-0.217-1.616-0.164-3.587C141.479,424.716,141.638,423.116,141.782,423.114z"/>
				</g>
			</g>
		</g>
	</g>
	<g>
		<rect x="17.706" y="432.616" style="fill:#263238;" width="464.587" height="13.52"/>
	</g>
</g>
</svg>
